<?xml version="1.0" encoding="utf-8"?>
<!-- Generator: Adobe Illustrator 26.3.0, SVG Export Plug-In . SVG Version: 6.00 Build 0)  -->
<svg version="1.1" xmlns="http://www.w3.org/2000/svg" xmlns:xlink="http://www.w3.org/1999/xlink" x="0px" y="0px"
	 viewBox="0 0 800 800" style="enable-background:new 0 0 800 800;" xml:space="preserve">
<style type="text/css">
	.st0{display:none;}
	.st1{display:inline;}
	.st2{fill:#C7403F;}
	.st3{fill:#448B4E;}
	.st4{fill:#2E6432;}
	.st5{fill:#AC3535;}
	.st6{fill:#951B1E;}
	.st7{fill:#FFCE09;}
	.st8{fill:#FFDC54;}
	.st9{fill:#FBBE15;}
	.st10{fill:#00AED8;}
	.st11{fill:#2D79BE;}
	.st12{fill:#0D92D1;}
	.st13{fill:#89C5D3;}
	.st14{fill:#0090D0;}
	.st15{fill:#5CBBD3;}
	.st16{fill:#0676AA;}
	.st17{fill:#68CEF6;}
	.st18{fill:#13A6DF;}
	.st19{fill:#303C7C;}
	.st20{filter:url(#Adobe_OpacityMaskFilter);}
	.st21{filter:url(#Adobe_OpacityMaskFilter_00000116950905626102516210000007668114103898212760_);}
	.st22{mask:url(#SVGID_1_);fill:url(#SVGID_00000165217782766653796060000016183111752553356723_);}
	.st23{fill:url(#SVGID_00000063614684518108647310000007866169284387186821_);}
	.st24{opacity:0.7;fill:#38558A;}
	.st25{fill:#FFFFFF;}
	.st26{fill:url(#SVGID_00000121277985022591116180000010304007542127018405_);}
	.st27{opacity:0.3;fill:#13A6DF;}
	.st28{fill:#803723;}
	.st29{fill:#946739;}
	.st30{fill:#D09D64;}
	.st31{fill:#B37452;}
	.st32{fill:#2D83C5;}
</style>
<g id="Layer_2" class="st0">
	<g class="st1">
		<g>
			<path class="st2" d="M417.6,290.2c2.3-2.1,2.6-3.7,3.2-6.6c0.1-0.7,0.1-1.4,0.2-2.1c0.2-1,0.6-1.8,1-2.6
				c-3.6,0.8-7.4,1.3-10.8,3.3c-3.5,2.1-6.7,4.9-8.9,8.3c-1.1,1.8-1.9,3.7-2.4,5.7c-0.4,1.7-1.7,4.3-1.1,6.2
				c0.2,0.7,0.7,1.3,1.6,1.7c1,0.4,10.3,0.7,10.3,1c0-4.1,0.3-8.4,3-11.8C414.9,291.9,416.3,291.4,417.6,290.2z"/>
			<path class="st2" d="M381.5,298.8c-2.8,6.3-4,12.7-4.4,19.6c-0.3,5.5-0.7,11.5,0.9,16.9c1,3.3,2.6,5.8,4.6,8.2
				c0.5-0.4,1.1-0.4,1.7,0.2c2.7,3.2,6.3,5.7,10.2,7.8c0.2-0.1,0.4-0.2,0.7-0.3c9.3-0.7,17.2-2.3,25.2-7.3
				c6.8-4.3,12.6-10.1,17.7-16.3c10.3-12.4,22.5-26.9,24-43.5c0.7-8.1-1.2-16.6-5.1-23.7c-2.4-4.4-5.5-8.8-10.3-10.6
				c-4.7-1.8-9.8-0.9-14.6,0.1c-1.3,0.3-2.5,0.5-3.8,0.8c7,2.2,12.8,9.9,14.3,16.7c2.8,12.5-0.3,27.7-11.1,35.4
				c-10.7,7.7-26,8.7-37.6,2.4c-4.4-2.4-8.1-6.1-10.4-10.4C382.8,296.2,382.1,297.4,381.5,298.8z"/>
			<path class="st2" d="M536.2,231.3c-6.4-10.1-22.1-12.9-33-16c-5.3-1.6-10.7-3-16-4.5c-4.6-1.2-9.4-2.8-14-2
				c11.9,6.8,24.7,17,20.2,26.9c6.8,6.8,10,15.5,11.4,25.4c2.2,14.8,4.1,30.3,2,45.3c-2.1,14.7-8.6,28.2-15,41.4
				c-3.6,7.5-7.7,15.8-14.1,21.4c0.2,0,0.4-0.1,0.6-0.1c12.9-3.1,21.3-9.8,31.1-18.3c17.4-15.1,31.2-32,41.3-52.8
				c6.2-12.8,4.5-23.8-0.5-36.7C546.3,251.2,542,240.5,536.2,231.3z"/>
			<path class="st2" d="M496.8,385.3c10.1-3.8,17.4-10.2,24.3-18.2c6.8-7.8,16.3-11.8,23.5-19.2c12.7-13.2,16.7-33.1,10.1-50
				c-3,7.2-6.6,14.2-10.7,20.8c-11,17.7-26.7,33-43.2,45.7c-7.6,5.8-16.4,8.5-25.7,10.2c-9.8,1.7-20.7,4.7-30.7,3.9
				C460,389.5,478.4,392.3,496.8,385.3z"/>
			<path class="st2" d="M393.2,268.6c-0.9,0.7-1.8,1.5-2.6,2.4c-2.5,2.6-3.9,5.9-6.1,8.7c-0.8,4.3,0.1,8.7,2,12.6
				c0.9,1.8,1.9,3.4,3.3,4.8c0.4,0.4,3.8,2.8,4.9,3.7l0.8-2.7c-0.1,0.2-0.3,0.3-0.6,0.3c0.2-0.5,0.5-0.9,0.9-1.4
				c0.1-0.8,0-1.7,0.1-2.2c0.4-1.9,1.2-3.7,2.2-5.3c1.9-3,4.4-5.7,7.1-7.9c5.1-4.2,11.6-7.2,18.3-7.6c5.8-0.3,12.6,4.2,16.6,8.1
				c-0.4-0.4,0.3-7.4,0.3-8.3c-0.6-13.2-10.8-22.6-24.1-19.1c-10.6,2.8-20.4,12.6-22.3,23.5c-0.2,1.4-0.4,2.8-0.3,4.3
				c0,3.4,0,7-1.8,9.8c-0.8-4.3-1.1-8.6-0.9-12.9C391,276.6,390.7,270.6,393.2,268.6z"/>
			<path class="st2" d="M645.3,265c-2.1-11-8.7-20.3-16-28.8c-1.1,0.4-2.4,0-2.8-1.5c-0.2-0.7-0.3-1.5-0.5-2.2
				c-1.7-1.9-3.4-3.7-5.1-5.6c-9.8-10.6-21.5-20.9-36.7-21.1c-0.2,0-0.4-0.1-0.7-0.1c-0.6,0.5-1.3,0.9-2,1
				c4.2,11.6,8.3,23.4,9.6,35.8c0.8,7.7-0.3,15.4,1.5,23c1.3,5.5,2,9.6,0,15.1c-5.2,14.4-11.7,28.4-17.5,42.5
				c-0.2,0.5-0.6,0.9-0.9,1.1c-0.2,0.7-0.3,1.5-0.5,2.2c11,29.4-1.2,60.1-24.7,79.7c-2.6,2.2-5.4,4.2-8.1,6.2
				c0.4,0.3,0.7,0.8,0.6,1.5c-2.5,17.5-16.6,32-30.2,42.1c-13.6,10.1-29.4,18.6-45.7,24.1c0.2,0.3,0.2,0.7,0.1,1.1
				c-5.2,20.1,14.8,32.4,29.9,40.1c8.8,4.5,16.9,7.1,26.6,4c9.1-2.9,17.1-9.1,24.5-15c23.5-18.7,43.1-41.6,61.9-64.9
				c9.5-11.7,19.8-23.3,27.1-36.6c8.1-14.7,9.2-30.8,8.1-47.2c-1-16-3.6-32-2.1-48.1C643.3,297.4,648.5,281.1,645.3,265z"/>
			<path class="st2" d="M395.5,298c0.2-0.2,0.3-0.6,0.3-1L395.5,298z"/>
			<path class="st2" d="M250.7,116c-7,9.1-14.2,17.9-20.6,27.4c-14.3,20.7-23.1,43.7-18.4,69.2c8.4,46.1,46.4,73.9,83.4,98
				c-2-1.6-4.2-2.8-6-4.7c-8.2-8.3-12.4-20.7-14.9-31.9c-2.6-11.6-3.3-24,0.4-35.5c1.9-5.9,6.5-11.1,7.7-17.2
				c1.3-6.4-0.3-12.6,1.8-18.9c3.8-11.5,12.7-21,21-29.5c8.5-8.7,18-16.5,28.6-22.5c11.6-6.5,24.1-9.3,36.6-13.3
				c25.7-8.3,48.2-25.2,75.1-30.2c10.8-2,22.3-2.3,32.9,0.8c11.8,3.4,19.6,11.2,28.5,19.2c9.7,8.7,21.6,13.9,32.8,20.4
				c10.1,5.9,18.7,13.1,25.3,22.8c6.6,9.7,11,20.8,15,31.7c0.7-0.4,1.5-0.3,2.1,0.3c0,0,0,0,0,0c0.2-0.1,0.4-0.1,0.6-0.2
				c0.4-0.5,1-0.9,1.8-0.9c16.4,0.3,29.1,11,39.8,22.5c-12.1-52.9-27-107.9-66.3-147.4c-18.6-18.6-41.4-29.9-65.7-39.1
				c-6.3-2.4-12.7-5-19.2-6.9c-7.8-2.2-15-2-22.9-0.8c-13.4,2.1-26.7,3.6-40.3,4.2c-26.2,1.3-52.7,1-78.2,8.2
				c-12,3.4-23.5,8.4-33.6,15.7c-5.8,4.2-10.9,9.3-15.5,14.7c0.7,0.7,0.9,1.9-0.1,2.8c-1.6,1.5-3.2,3.1-4.8,4.6
				c-0.4,0.4-1,0.6-1.5,0.6c-1.6,2.2-3.2,4.4-4.8,6.7C264.5,96.8,257.9,106.6,250.7,116z"/>
			<path class="st2" d="M458.9,206.6c-4.3-1.8-8.7-3.2-13.3-4c-17.8-3.2-39-0.9-56.4,3.8c-11.1,3-16.4,11.4-21.8,20.8
				c-4.6,8-8.7,16.3-12,25c-4.5,11.9-7.4,24.2-9.3,36.8c7.7-24.5,19.3-48.6,45.7-56.8c0.5-0.2,0.9-0.1,1.3,0.1c6.2-5,13-9.3,20.4-12
				c13.4-4.9,27.9-3.7,41.7-0.9c11.6,2.4,23.7,5.5,33.5,12.4c0,0,0.1,0.1,0.1,0.1c-0.6-3.6-1.9-6.5-5.2-9.7c-3.5-3.3-7.9-6.1-12-8.7
				C467.8,211,463.1,208.4,458.9,206.6z"/>
			<path class="st2" d="M444,376.2c8-2.8,16.8-3.9,25.4-5.3c10.8-7.8,16.4-19,22-30.8c7-14.8,12.5-29.7,12.5-46.3
				c0-13.1-1-27.6-4.4-40.2c-1.6-6.2-4.7-11.2-8.9-15.3c-0.6-0.1-1.1-0.5-1.3-1.1c-3.9-3.5-8.6-6.3-13.7-8.4
				c-22.6-9.2-51.1-13.3-72.6,0.4c-10.2,6.5-20.8,16.4-26.6,27.2c-3.5,6.5-3.8,13.4-4.5,20.6c-0.6,5.5-1.8,10.9-2.9,16.4
				c-1.5,7.5-2.5,14.9-1,22.4c1.1,5.7,3.3,11.2,5.3,16.6c0,0.1,0,0.1,0.1,0.2c-0.5-3.2-0.7-6.4-0.6-9.4c0.2-10.5,2.1-24,8.4-33.4
				c0.3-0.4-0.7-3.6-0.7-4.3c-0.1-1.8,0-3.6,0.4-5.3c1-4.4,3.8-7.1,6.9-10.1c1.4-1.3,2.5-2.9,4-4.1c0.8-0.7,1.6-1.3,2.5-1.8
				c0.5-0.3,2.3-0.6,2.6-1c8.6-10,23-14.8,36-17.1c8.5-1.5,16.1-0.8,22,6c5.8,6.7,9.1,15.5,10.2,24.2c2.5,20.4-9.4,35.9-21.5,51.1
				c-9.9,12.5-25.4,27.3-42.6,27.5c4.3,1.9,8.7,3.6,12.5,5.4c10.1,4.8,19.5,9.6,28.4,16.5c0.4,0.3,0.8,0.6,1.2,0.9
				C443.1,377,443.3,376.4,444,376.2z"/>
			<path class="st2" d="M309,323.3c11.7,15.4,27.5,24.8,44.4,32.8c-2.5-1.2-4-8.5-5.4-10.9c-2.1-3.7-4.4-7.6-7-11.1
				c-3.3-4.4-7.2-8.3-10.2-12.9c-5.1-7.7-7.5-17.8-10.1-26.5c-3-10.4-3.1-20.7-5-31.2c-1.7-8.9-7.9-17-5.3-26.2
				c0.5-1.8,3.5-1.5,3.4,0.5c-0.4,5.9,1.8,10.8,3.7,16.2c1.5,4.3,2.3,8.8,2.8,13.3c1.2,10.6,2.5,20.7,5.7,30.9
				c3,9.5,5.8,18.6,12.3,26.3c2.7,3.2,5.9,6.4,7.8,10.1c-1.1-6.3-1.9-12.8-2.3-19.1c-0.1-0.3-0.2-0.6-0.3-0.9
				c-1-2.9-1.4-5.9-1.3-8.8c-0.4-0.2-0.7-0.5-0.7-1.1c-0.3-21.3,5-42.6,13.6-62c4.3-9.8,9.6-19.6,16.1-28.1c6-7.8,13.5-11,23-12.7
				c20.9-3.8,43.7-7.9,64.2-0.1c2.1,0.8,5.2,2.1,8.8,3.9c0.6-0.3,1.2-0.6,1.8-0.9c0.3-0.1,0.6-0.2,0.9-0.2c7.8-2.4,16.6,1,24.2,3.1
				c11,3.1,22.2,6.3,32.8,11c8.7,3.8,12.6,9.7,16.7,18.1c4.7,9.3,8.9,19,12.3,28.8c3.1,9.1,4,17.7,0.8,26.9c0,0,0,0.1-0.1,0.1
				c7.1,15.3,6.2,33.4-2.1,48.1c-3.6,6.4-8.6,11.8-14.6,16c-4.5,3.2-9.4,5.8-13.4,9.8c-3.4,3.4-6.2,7.4-9.7,10.8
				c-10.9,10.7-25.7,16.6-40.9,16.7c-7.7,0-15.4-1.4-22.5-4.4c-8.6-3.7-14.9-10.4-22.6-15.4c-9-5.9-19.2-10.1-28.9-14.8
				c-5.7-2.8-12.8-5.2-17.2-10c-2.9-1.2-5.2-3-6.9-5.3c2.6,6.7,5.1,13.3,7.5,20c1.1,1.4,2.2,2.8,3.2,4.2c0.7,1,0.1,2-0.8,2.3
				c0.1,0.2,0.1,0.3,0.2,0.5c0.1,0.2,0.1,0.4,0.1,0.6c16.9,8.4,33,18.1,48.2,29.4c0.1,0.1,0.2,0.2,0.3,0.3c11.9,1.6,23.9,3,36,3.5
				c15.6,0.7,32.2,0.7,47-4.9c29.2-11,43.8-46.9,50.2-75.6c0,0,0-0.1,0-0.1c0.2-1.1,0.5-2.2,0.7-3.3c0.1-0.5,0.3-0.8,0.6-1.1
				c5.8-13.8,12.6-27.5,17.1-41.7c2.2-6.9-1.4-13.8-1.7-20.8c-0.3-7.9-0.1-15.4-1.8-23.3c-2.9-13.5-7.9-26.8-13.1-39.6
				c-5.1-12.7-11.6-25.2-22-34.3c-9-7.8-20.1-12.6-30.3-18.6c-9.8-5.7-17.1-13.3-25.6-20.7c-19.1-16.4-46-12.9-67.8-4.3
				c-12.2,4.8-23.8,11.1-35.8,16.6c-11.3,5.1-22.8,8.5-34.6,12c-23.9,7.1-43.6,23.4-59,42.7c-4.5,5.7-8.8,12.1-10.1,19.4
				c-0.9,5.6,0.7,11.3-1,16.9c-1.7,5.7-5.6,10.5-7.3,16.4c-1.7,5.8-2.1,12-1.9,18c0.5,12.5,3.9,26.1,10.2,37c1.8,3.1,4,6.1,6.7,8.5
				c1.8,1.6,4.7,2.5,6.2,4.2c2.1,2.3,3.6,5.5,5.1,8.5c1.9,1.2,3.8,2.5,5.7,3.7C312.2,321.6,310.8,324.1,309,323.3z"/>
			<path class="st2" d="M437.9,289c1.2-2.8,0.4-4.3-1.6-6.6c-1.4-1.7-3.7-4.2-6.1-4.1c-3.2,0.1-4.9,4.3-5.3,6.9
				c-0.1,1,0.2,1.9-0.1,2.9c-0.4,1.6-1.3,2.7-2.6,3.7c-3.1,2.3-5.8,2.9-7.2,7c-0.7,2-1.1,4.2-1.4,6.3c4.7-0.3,9.2-1.5,13.2-3.7
				C431.7,298.7,435.6,294.3,437.9,289z"/>
			<path class="st2" d="M710.5,369.2c-7.1-12.1-16.5-23.4-22.4-36.1c-2.7-5.7-3.5-11.3-3.7-17.6c-0.1-6.3,0-12.7-5-17.3
				c-7.2-6.6-20.5-7.1-26.7,1c-1.4,1.8-3.4,1.3-4.2,0c-1.3,8.5-2.7,17.1-2.6,25.7c0.2,19,4.3,37.9,2.6,57
				c-1.5,16.8-8.6,30.8-18.7,44.1c-10.2,13.5-20.9,26.7-31.8,39.5c-11.8,13.9-24.2,27.4-37.9,39.5c-11.5,10.2-25,22.5-40.6,25.6
				c-14.7,3-30.5-6.5-41.9-14.9c-10.9-8-19.1-20.8-15.3-34.6c-1.7,0.5-3.4,1-5,1.5c-11.1,3-22.4,3.8-33.6,3.2c0.1,0.4,0.2,0.8,0,1.3
				c-5,14.4-10.3,29.1-19.4,41.5c-8.8,12.1-21.2,20.3-31.9,30.4c-11.1,10.5-21.8,26.9-14.6,42.6c5.7,12.3,19.2,18.9,30.8,24.4
				c13.4,6.4,26.9,12.8,41.2,16.8c14.9,4.2,29.7,4.5,45,3.1c30.2-2.6,60.4-5.8,90.4-10.5c14.6-2.3,29.2-5.1,43.6-8.6
				c14.3-3.4,30.3-7,43.5-13.8c6.6-3.4,8.9-10.8,12.9-16.7c3.1-4.5,6.6-8.6,10.4-12.6c8.7-9.2,18.6-17.2,27.7-26
				c18.9-18.2,32.2-40.8,37.6-66.6c5.9-28.1,1.4-56.3-9.9-82.5C725.1,395,718,381.9,710.5,369.2z"/>
			<path class="st3" d="M146.2,475.6c10.2-21.5,25.9-43.3,45.9-56.8c-4.8-6.5-10.3-11.9-16.4-16.6c-0.2,0-0.5,0-0.7,0
				c-2-0.3-4.1,0.2-6.2,0.9c-0.1,0.6-0.5,1.2-1.2,1.4c-33.4,11.4-64.5,26.4-92,48.7c-25.4,20.7-46.8,46-63,74.5
				c18.4-3.5,36.9-6.1,55.4-8.3c20.6-2.5,41.6-6.2,62.3-6.9c0.4,0,0.7,0.1,0.9,0.2C135.1,499.9,140.6,487.4,146.2,475.6z"/>
			<path class="st4" d="M133.1,517.2c0.5-1.5-11.2-2.1-12.5-2c-0.3-28.4,3.8-56.6,11.2-84.1c1.2-4.5,2.6-9,5.4-12.7
				c2.9-3.7,7-6.1,11.2-8.1c4-1.9,8.2-2.7,12.2-4.3c4.7-1.8,8.4-4.7,13.7-4.4c4,0.3,7.9,2.4,10.6,5.3c1.1,1.2,8.8,13.3,7.2,14.8
				C165,448,144.4,481.1,133.1,517.2z"/>
			<path class="st2" d="M451.3,651.6c-14.8-0.9-28.9-5.3-42.5-11c-13.1-5.5-26.8-11.4-38.7-19.3c-9.4-6.3-17.6-15-19.1-26.7
				c-1.5-12.5,4.9-24.5,12.9-33.6c10.1-11.4,23.6-19.3,33.4-31c10.7-12.7,16.4-28.7,22.3-44c0.1-0.2,0.2-0.3,0.3-0.4
				c-8.6-0.7-17.1-2.1-25.6-4c-16-3.6-37-9.9-45.6-25.3c-0.3-0.6-0.1-1.1,0.3-1.4c-25.2-4.2-50.2-12-72.1-25.3
				c-9.4-5.7-18.2-12.7-25.9-20.6c0.2,1.5-1.1,3.3-3.1,2.9c-25-5.5-50.4,5.4-68.2,22.8c-18.3,18-29.7,41.9-38.7,65.6
				c-8.8,23.2-14.5,47.6-6.1,71.7c7.3,21,21.4,41.3,35.4,58.4c14,17.2,31,28.9,53,33.3c20.3,4,41.3,3.1,61.6,7.1
				c9.5,1.9,18.8,5,27.2,10c9.5,5.7,17.5,13.5,27.3,18.7c20.6,11,46.6,7.1,69.1,6.9c23.4-0.2,48.3-0.4,69.6-11.5
				c17.9-9.3,31.8-26.8,31.7-47.5c-3.2,0.3-6.3,0.7-9.5,1C484.3,650,467.7,652.6,451.3,651.6z"/>
			<path class="st3" d="M547.9,642.9c-11.3,1.6-22.7,2.9-34.1,4.1c0,0.6,0,1.2,0,1.8c0.3,0.2,0.6,0.4,0.7,0.9
				c19.6,58.1,90.4,70.3,125.5,115.8c-0.4-10.9-0.6-21.8-0.1-32.7c0.6-12.5,3.9-25.1,3.2-37.7c-0.7-13-6.1-25.9-12.3-37.1
				c-5.6-10.1-13.6-18.1-20.1-27.6C590.2,635.9,569.2,640,547.9,642.9z"/>
			<path class="st4" d="M564.6,639.6c-3.3,0.8-48.7,5.2-48.5,7c1.3,13.1,4.1,22.5,18,27.7c11.8,4.4,24.8,2.9,37.3,1.3
				c7.2-0.9,14.3-1.8,21.5-2.7c7.6-1,15.5-2,22.2-5.9c12.5-7.3,14.3-24.7,2.9-33.6c-1.9-1.4-3.8-2.9-6-3.6c-4-1.4-8.2-0.4-12.1,1
				c-3.7,1.3-6.6,2.1-10.5,2.7C581.1,635,572.9,637.6,564.6,639.6z"/>
			<path class="st2" d="M770.7,253.2c-5.8-6.2-11.3-12.6-16.5-19.4c-20.7-27-35.5-57.5-46.1-89.8c-5.7-17.4-12.2-33.3-24.9-46.7
				c-11.7-12.3-26.1-21.7-41-29.5c-26.8-14.1-59.2-24.2-86.8-8.3c-0.2,0.2-0.3,0.3-0.5,0.5c-1.7,1-3.1,2.3-4.7,3.5
				c7.3,5.9,14.1,12.5,20.3,19.9c34.9,41.6,47.9,95.3,59.7,147.1c10,11.4,18.8,23.7,20.2,39.5c0.8,8.7-0.3,17.3-1.5,25.9
				c6.2-7.7,17.2-9.4,26.2-6c4.2,1.6,8.1,4.4,10.7,8.2c3.9,5.9,3.2,12.9,3.5,19.7c0.5,9.7,5,17.2,10.3,25.1
				c4.8,7.2,9.6,14.4,14,21.8c9.3,15.5,18,31.6,24.5,48.5c3.2,8.3,5.7,16.8,7.3,25.3c11.5-15.8,19.5-33.9,22.6-53.2
				c3.2-19.7,0.9-40,5.9-59.5c4.3-16.4,21.9-35.4,13.7-52.9C783.9,265.1,776.5,259.3,770.7,253.2z"/>
			<path class="st2" d="M397.5,477.5c19.9,4.1,39.8,5.8,59.6,0.3c17.6-4.9,34.7-13.7,49.6-24.1c14.7-10.4,25.1-22.8,31.6-39.5
				c-8.9,6-18.3,11.1-28,15.7c-16.2,7.8-33,14.6-50.3,19.4c-31.4,8.7-64.6,11.2-97,7.5c-4.1-0.5-8.2-1-12.3-1.7
				c6.8,5.6,13.2,10.9,21.3,14.6C380,473.4,388.8,475.7,397.5,477.5z"/>
			<path class="st2" d="M280.8,347.7c-10.3-7.6-22.9-15.2-36.3-14.4c-7,0.4-14.7,3.5-16.6,10.9c-1.9,7.1,0.9,15.9,3,22.8
				c8.7,27.4,30.1,48.6,54.9,62.1c54.2,29.4,123.6,31.3,181.6,13c15.2-4.8,29.9-11,44.3-18c12-5.9,24-12.4,34.3-21
				c21.4-17.7,31.9-43.3,25.9-69.9c-3.4,12.6-8.3,24.7-14.6,36.1c-6.6,11.9-15,23.3-26.9,30.4c-12.9,7.7-28.4,9.6-43.3,9.9
				c-17.4,0.3-34.9-1.5-52.1-3.9c-28.9-4-58.5-7.7-86.2-16.8c-12.8-4.2-25.3-9.7-36.6-17.1C301.2,364.6,291.5,355.5,280.8,347.7z"/>
			<path class="st2" d="M316.6,349c1,5.2,1.9,10.5,2.8,15.7c0.1,0.8,0.4,2.6,0.3,3.4c0.1,0.1,0.3,0.1,0.3,0.2
				c0.9,1.1,0.8,2.3,0.1,3.1c2.9,1.7,5.8,3.4,8.9,4.9c27.3,13.2,57.9,17.8,87.7,22.3c4.1,0.6,8.2,1.2,12.3,1.8
				c-11.9-8-24.2-15.5-36.9-22.1c-13.8-7.1-28.2-12.7-42.2-19.1c-13.2-6-25.6-13.3-35.9-23.6c-1.2-1.2-2.3-2.4-3.4-3.6
				c0.9,2.8,1.8,5.5,3.1,8.3C315.1,343.2,316.1,345.9,316.6,349z"/>
			<path class="st2" d="M195.4,416.7c15.7-9.6,33.8-14.2,53.9-9.8c-10.2-11.1-18.3-24.1-22.8-38.7c-3.3-10.5-7-25.4,2.5-33.7
				c8.1-7.1,20.4-6.4,30.1-3.4c12.1,3.7,22.4,11.4,32.2,19.2c7.8,6.2,15.5,12.4,23.7,17.8c-0.2-1.2-0.2-2.4-0.3-3.3
				c-0.8-5.2-1.3-10.4-2.2-15.5c-1.3-8.1-6-14.2-6-22.5c-1.8-2.3-3.5-4.7-5.1-7.2c-0.2-0.3-0.4-0.7-0.6-1.1
				c-45-26.5-95-64.3-94.7-121.4c0.1-24.9,12.9-46.4,27.4-65.8c7.5-9.9,15.4-19.6,22.6-29.7c5.6-7.9,10.7-16.1,16.5-23.9
				c-11.9-15.7-35.2-21.3-52.6-11.5c-4.3,2.4-8.2,5.4-13.3,6.3c-5.8,1-11.5-0.4-17.3-0.8c-11-0.8-21.3,3-30.2,9.3
				c-16.8,11.7-28.5,29.6-40.5,45.8c-13,17.5-27.9,34.8-36.9,54.8c-9.8,22-7.6,45.2,3.1,66.4c2.4,4.8,5.2,9.3,8.1,13.8
				c2,3.1,4.1,6.4,4.4,10.2c0.6,6.6-4,11.9-9.4,15.1c-7.4,4.5-16.7,4.6-23.9,9.4c-10.9,7.2-5.6,21.6-0.3,30.8
				c9.4,16.4,25.9,27.2,42.4,35.4C136.9,378.1,175.2,386.5,195.4,416.7z"/>
			<path class="st2" d="M358.6,358.4c3.3,1.5,6.6,2.9,9.9,4.3c5.3,2.3,10.5,4.6,15.7,7.1c-0.3-0.8-0.7-1.6-1-2.3
				c-10.5-10.9-19.7-23.6-28.8-35.6c-1.9-2.5-3.9-5-5.6-7.7c0.6,5,1,10,1.9,15C352,346.4,356.3,351.9,358.6,358.4z"/>
			<path class="st2" d="M363.8,336.8c4.4,5.7,9,11.2,13.6,16.8c-4.2-10.1-8.2-20.4-11.4-30.7c-2.3-7.4-3.2-14.7-2.2-22.4
				c1-8.4,3.5-16.4,4.3-24.8c0.7-6.8,1-13.3,4.1-19.6c2.6-5.4,6.6-10.1,10.7-14.5c0.9-1,1.9-1.9,2.8-2.8
				c-22.1,11-31.8,35.6-37.8,58.8c-2.1,8.3-1.1,15.1,3.5,22.4C355.1,325.9,359.6,331.3,363.8,336.8z"/>
		</g>
		<path class="st5" d="M420.8,490.6c7.1,35.8,45.8,58.2,82.3,59.1c32.6,0.8,65.4-12.3,88.5-35.4c23.1-23.1,36.3-55.8,35.6-88.4
			c-21,23.2-42,46.5-65.5,67.2c-16.9,14.9-36.5,29-59,30c-22.5,1.1-47-16.6-45.1-39.1c-10.6,1.5-21.2,3-31.8,4.6"/>
		<path class="st5" d="M286.2,309.3c-14.9-11.1-27.8-24.7-38.3-40.1c-4.5-6.7-8.7-14.1-8.9-22.1c-0.3-10.7,6.4-20.3,13.7-28.2
			c11.7-12.9,25.7-23.7,41.1-32c-10.8,41.5-21.5,85.7-8,126.4"/>
		<path class="st5" d="M375.6,341.4c-8.9-13-12.3-29.7-9.1-45.1c3.2-15.4,12.9-29.4,26.3-37.8c-9,22.6-15.2,46.3-18.5,70.5"/>
		<path class="st5" d="M394.3,350c13.1,1.6,26.4,3.2,39.3,0.6c12.9-2.6,25.5-10.3,30.6-22.5c7.2-17.3-2.6-37.7,2.7-55.7
			c10.3,4.2,12.5,17.6,13.3,28.7c0.9,13.4,1.7,26.7,2.6,40.1c0.7,10.2,0.9,21.5-5.9,29.1c-5.9,6.6-15.6,8.2-24.5,7.9
			c-20.1-0.6-39.9-9.4-53.8-24c3.5-0.6,6.9-1.3,10.4-1.9"/>
		<path class="st5" d="M444.5,387.3c37.7-6,66.2-36.2,91.7-64.6c-4.4,19.4-11.2,39-25,53.2c-13.8,14.2-36.2,21.7-54.2,13.4
			c1.4,0.2,2.8,0.3,4.3,0.5"/>
		<path class="st5" d="M485.5,213.1c16.9,9.5,28.9,27.2,31.4,46.4c2.5,19.2-4.5,39.4-18.4,53c2.6-16.8,5.2-34,2.6-50.8
			c-2.6-16.8-11.3-33.6-26.3-41.7c-0.1-3.3-0.2-6.6-0.2-9.9"/>
		<path class="st5" d="M536,230.3c18.5,6.8,33.1,23.3,37.6,42.5c4.5,19.2-1.1,40.4-14.6,54.8c-15.6-35.3-3.2-70.9-31.5-103.3
			c8.1,0.6,15.3,7.7,15.8,15.9"/>
		<path class="st5" d="M344.6,336.4c-18.6-22-31.2-49-36.1-77.4c-1.2-6.7-1.9-13.7,0.6-20.1c3.2-8.3,11.1-13.7,18.8-17.9
			c18.1-10,37.8-16.9,58.2-20.2c-28.8,35.7-45.5,81.1-46.6,126.9c-0.1,3.7,0.1,7.8,2.7,10.4c2.6,2.6,8.4,1.4,8.4-2.3"/>
		<path class="st5" d="M423.7,397.9c-33.8,2.4-85.1,0.7-106.2-31.1c-2.7-4.1-6.7-29.8-7.9-30.3C348.5,354.8,385.9,377.4,423.7,397.9
			z"/>
		<path class="st5" d="M645.2,303.6c4.9-10.1,3.4-22.3-0.6-32.8c-4-10.5-10.1-20.1-14.5-30.4c-3.3-7.7-5.6-15.7-7.9-23.8
			c-7.8-27-15.5-54.1-23.3-81.1c25.3,13,45.6,34.6,60.2,59.1c14.6,24.5,23.7,51.8,30.4,79.5c3.9,16,6.7,34-2,48
			c2.7-10.5-2.7-22.6-12.4-27.6c-9.7-4.9-22.7-2.2-29.6,6.2"/>
		<path class="st5" d="M267.8,289.5c-30.6-8-55.3-33.4-65.3-63.4c-10-30-5.9-63.8,8.4-92c14.3-28.2,38.1-51,65.6-66.7
			c-4,29.2-32,48.1-48.6,72.5c-16.8,24.5-22,56.6-14,85.2c8.1,28.6,29.3,53.2,56.4,65.4"/>
		<path class="st5" d="M238.6,407.6c17.3,20.1,36.9,38.6,60.2,51.1c23.3,12.6,50.6,18.9,76.7,14c-18.7-15-43.3-20-66.2-27
			c-23-7-47-18-58-39.3c-3.9,2.6-5.8,7.7-4.6,12.2"/>
		<path class="st5" d="M355.2,456.5c30.4,23.6,71.9,32,109.1,22.1c37.1-9.9,69-37.9,83.6-73.5c-62.7,33.9-135,49.7-206.1,45.2"/>
		<path class="st5" d="M221.1,347.8c6.4-38.9-29.7-77.2-18.5-115c24.6,22.6,49.1,45.1,73.7,67.7c11.2,10.3,24.5,18.2,31.7,32.1
			c5.2,10,0.9,33.1,5.1,39.2c-19.6-28.3-58.7-38.1-91-28.8"/>
		<path class="st5" d="M578,201c-21.6-28.7-49.9-51.4-77.9-73.9c21.6,1,44.3,5,61.2,18.5c16.9,13.5,25.9,39,15,57.7
			c3.1-1.1,6.2-2.3,9.2-3.4"/>
		<path class="st5" d="M429.1,293.1c-4.9,5.1-10.2,10.4-17.1,11.7c-6.9,1.4-15.4-3.3-15.1-10.4c0.3-6.8,7.8-10.6,14.2-12.9
			c5.6-2.1,11.6-4.1,17.3-2.7c5.8,1.5,10.6,8.1,7.8,13.4c-1.7,3.2-5.3,4.7-8.3,6.7c-3,1.9-5.9,5.5-4.6,8.8"/>
		<path class="st4" d="M124.6,512.6c-18.8,0.8-38.5,3.3-56.7,6.9c-18.6,2.2-37.1,4.8-55.4,8.3c16.2-28.5,37.5-53.8,63-74.5
			c15.2-12.3,31.9-22.7,49.4-31.3c8.8-4.3,17.7-8.2,26.8-11.7c9.6-3.7,17.9-5.6,28.2-7.2c-1.8-2.9-5.7-4-9-3.5
			c-3.6,0.5-6.9,2.4-10.4,3.3c-4.3,1.1-8.5,2.2-12.7,3.7c-9,3.1-17.8,6.9-26.3,11.2c-17,8.5-33,19-47.9,30.9
			c-27.8,22.2-51,49.9-67.9,81.1c-1,1.9,0.7,4,2.7,3.6c20.9-4.1,42-7,63.1-9.5c9.4-1.1,18.8-1.9,28.2-2.9c8-0.8,18.1-4.1,26-3.2
			c2.1,0.2,4.3,0.6,6.2-0.4c1.9-0.9,2.9-3.7,1.4-5.2C130.5,512.3,127.6,512.4,124.6,512.6z"/>
		<path class="st4" d="M635.3,655.5c-3.3-5.9-7.1-11.4-10.9-17c-2.3-3.4-5.6-9.9-10.3-10.3c-2.4-0.2-4.5,2-6.9,2
			c10,6.7,17.9,17.4,23.7,27.8c6.2,11.2,11.6,24.1,12.3,37.1c0.7,12.5-2.6,25.2-3.2,37.7c-0.5,10.9-0.3,21.8,0.1,32.7
			c-0.1-2.6-7.2-8.4-9-10.2c-3.3-3.4-6.9-6.5-10.5-9.6c-7.4-6.1-15.3-11.6-23.3-16.9c-14.9-9.8-30.4-18.8-44.6-29.7
			c-13.9-10.7-26.2-23.2-32.4-39.9c-1-2.6-1.6-11.1-4-12.4c-1-0.6-2.3,0.1-2.9,1.1c-0.6,1-0.5,2.2-0.4,3.4
			c1.3,14.3,11.8,27.8,21.5,37.8c9.5,9.8,20.6,17.8,31.9,25.3c26.5,17.5,56.8,33,74.4,60.5c1.3,2,4.7,1.3,4.6-1.3
			c-0.5-14.4-1.1-28.8-0.2-43.2c0.8-13.4,4.4-26.9,2.6-40.3C646.1,678,641.2,666.1,635.3,655.5z"/>
		<path class="st6" d="M769.1,244.3c-25.8-29-44-63.7-56.1-100.4c-5.7-17.5-12.1-33.8-24.6-47.7c-11.4-12.6-25.7-22.4-40.5-30.4
			c-26.1-14.2-67.5-30.1-94.5-9.9c-0.5,0-0.9,0.2-1.4,0.7c-1.5,1.7-3.4,3.1-5.1,4.6c-11.7-9-24.6-16.3-38.6-22.2
			c-12.3-5.2-25.6-11.3-38.7-14c-14.1-2.9-29,2.1-43.1,3.3c-51.7,4.6-112-2.1-148.7,42.6c-0.8,1-1.5,2-2.3,3
			C266,62.1,251,55.8,235.9,56.9c-8.4,0.6-15.3,3.7-22.5,8c-10.6,6.4-21.6,1.1-33.1,2.6c-19.1,2.5-34.1,16.8-45.9,31
			c-14.6,17.5-28,36.4-41.2,55c-12.4,17.4-23.3,36.8-22.8,58.8c0.3,10.9,3.1,21.6,7.3,31.7c1.9,4.5,4.1,8.9,6.6,13.1
			c2.9,4.8,8.1,10.2,8.3,16c0.4,12-17.3,13.8-25.5,17.1c-7,2.8-12.6,7.5-13.8,15.3c-2.8,17.8,12.7,35.9,25.5,46.1
			c25.9,20.6,61.3,27.5,88.9,45.2c4.2,1.3,7.7,4.1,10.8,7.2c0.4,0.4,0.7,0.9,0.8,1.3c4.6,4,8.9,8.4,12.7,13.5
			c-20,13.5-35.7,35.2-45.9,56.8c-4.9,10.4-9.7,21.4-13.4,32.6c0.9,4.5-2.1,9.1-3.4,13.3c-0.2,0.6-0.5,1-0.8,1.4
			c-1.8,7.8-2.9,15.7-2.9,23.6c-0.1,25.3,13.1,47,26.7,67.4c12.3,18.4,26.4,37.1,46.7,47.1c20,9.9,42.8,10.1,64.6,12
			c11.9,1.1,23.9,2.6,35.1,6.9c11.7,4.4,20.8,12.6,31,19.6c21.1,14.4,45.4,12.5,69.7,12.1c26.6-0.4,56.2,1.2,80.3-12.2
			c9-5,17.1-11.7,23.3-19.8c3-4,6.4-8.8,7.7-13.7c1.2-4.2,1.5-8.5,1.9-12.8c0.6-5.9,0.7-6,6.7-6.6c9.5-1,19-2.2,28.4-3.5
			c13-1.8,26-4,38.8-6.7c19.2-4.1,38.2-9.1,56.6-15.7c5.8-2,12.7-3.8,16.9-8.6c4.6-5.3,7.4-12.2,11.8-17.8
			c8.8-10.9,19.6-19.8,29.8-29.3c20.3-18.9,35-41.8,41.9-68.9c4.3-17.1,5-34.4,2.5-51.3c0.3-0.1,0.5-0.3,0.7-0.6
			c11.1-14.3,19.3-30.5,23.7-48.1c4.6-18.6,3.3-37.7,5.6-56.7c1.3-11,4.7-20.8,9.6-30.7c3.6-7.4,7.6-15.2,8.4-23.5
			C796.1,267.2,779.8,256.2,769.1,244.3z M275.9,80.4c0.5,0,1.1-0.2,1.5-0.6c1.6-1.5,3.2-3.1,4.8-4.6c1-1,0.8-2.1,0.1-2.8
			c4.6-5.4,9.7-10.5,15.5-14.7c10.1-7.3,21.7-12.3,33.6-15.7c25.4-7.2,52-7,78.2-8.2c13.6-0.7,26.9-2.1,40.3-4.2
			c7.9-1.2,15.1-1.5,22.9,0.8c6.5,1.9,12.9,4.5,19.2,6.9c24.3,9.2,47.1,20.5,65.7,39.1c39.3,39.4,54.2,94.5,66.3,147.4
			c-10.6-11.5-23.3-22.2-39.8-22.5c-0.9,0-1.4,0.4-1.8,0.9c-0.2,0-0.4,0.1-0.5,0.2c0,0,0,0,0,0c-0.6-0.6-1.4-0.7-2.1-0.3
			c-4-11-8.4-22-15-31.8c-6.6-9.7-15.2-16.9-25.3-22.8c-11.2-6.5-23.1-11.7-32.8-20.4c-8.9-8-16.7-15.7-28.5-19.2
			c-10.7-3.1-22.1-2.8-32.9-0.8c-26.8,5.1-49.3,21.9-75.1,30.2c-12.5,4-25.1,6.8-36.6,13.3c-10.6,6-20.1,13.8-28.6,22.5
			c-8.3,8.5-17.2,18-21,29.5c-2.1,6.3-0.5,12.6-1.8,18.9c-1.3,6-5.8,11.3-7.7,17.2c-3.7,11.4-3,23.9-0.4,35.5
			c2.5,11.1,6.8,23.5,14.9,31.9c1.9,1.9,4,3.1,6,4.7c-37-24.1-75-52-83.4-98c-4.6-25.4,4.2-48.4,18.4-69.2
			c6.5-9.4,13.7-18.3,20.6-27.4c7.2-9.4,13.7-19.2,20.4-28.9C272.7,84.8,274.3,82.6,275.9,80.4z M644,361.5
			c1,16.4-0.1,32.5-8.1,47.2c-7.3,13.3-17.6,24.8-27.1,36.6c-18.8,23.3-38.4,46.2-61.9,64.9c-7.4,5.9-15.4,12.1-24.5,15
			c-9.8,3.1-17.8,0.5-26.6-4c-15.1-7.7-35.1-20-29.9-40.1c0.1-0.4,0-0.8-0.1-1.1c16.3-5.5,32.1-14,45.7-24.1
			c13.6-10.1,27.7-24.6,30.2-42.1c0.1-0.7-0.2-1.2-0.6-1.5c2.8-2,5.5-4,8.1-6.2c23.5-19.5,35.7-50.2,24.7-79.7
			c0.2-0.7,0.3-1.5,0.5-2.2c0.4-0.3,0.7-0.6,0.9-1.1c5.8-14.1,12.3-28.1,17.5-42.5c2-5.4,1.3-9.6,0-15.1c-1.8-7.6-0.7-15.3-1.5-23
			c-1.3-12.4-5.4-24.2-9.6-35.8c0.8-0.1,1.5-0.4,2-1c0.2,0.1,0.4,0.1,0.7,0.1c15.2,0.2,26.9,10.6,36.7,21.1c1.7,1.8,3.4,3.7,5.1,5.6
			c0.2,0.7,0.3,1.5,0.5,2.2c0.3,1.5,1.6,1.8,2.8,1.5c7.3,8.5,13.9,17.8,16,28.8c3.1,16.1-2.1,32.4-3.5,48.4
			C640.4,329.5,643,345.5,644,361.5z M310.5,320.5c-1.9-1.2-3.8-2.4-5.7-3.7c-1.6-3-3.1-6.2-5.1-8.5c-1.5-1.7-4.5-2.6-6.2-4.2
			c-2.7-2.4-4.9-5.4-6.7-8.5c-6.4-10.8-9.7-24.5-10.2-37c-0.3-6.1,0.2-12.2,1.9-18c1.7-5.8,5.6-10.6,7.3-16.4
			c1.7-5.5,0.1-11.2,1-16.9c1.2-7.3,5.6-13.7,10.1-19.4c15.4-19.3,35.1-35.5,59-42.7c11.8-3.5,23.3-6.9,34.6-12
			c12-5.4,23.5-11.8,35.8-16.6c21.8-8.6,48.7-12,67.8,4.3c8.5,7.3,15.8,14.9,25.6,20.7c10.2,5.9,21.3,10.7,30.3,18.6
			c10.4,9.1,16.9,21.6,22,34.3c5.1,12.8,10.2,26.1,13.1,39.6c1.7,7.8,1.5,15.4,1.8,23.3c0.2,7,3.9,14,1.7,20.8
			c-4.5,14.2-11.4,28-17.1,41.7c-0.3,0.3-0.5,0.6-0.6,1.1c-0.2,1.1-0.5,2.2-0.7,3.3c0,0,0,0.1,0,0.1c-6.4,28.7-21,64.7-50.2,75.6
			c-14.8,5.6-31.4,5.6-47,4.9c-12-0.5-24-1.9-36-3.5c-0.1-0.1-0.2-0.2-0.3-0.3c-15.2-11.3-31.3-21-48.2-29.4c0-0.2,0-0.4-0.1-0.6
			c-0.1-0.2-0.1-0.3-0.2-0.5c0.9-0.4,1.5-1.4,0.8-2.3c-1-1.4-2.1-2.8-3.2-4.2c-2.4-6.7-5-13.4-7.5-20c1.7,2.3,4,4.2,6.9,5.3
			c4.5,4.8,11.5,7.2,17.2,10c9.7,4.7,19.9,8.9,28.9,14.8c7.8,5,14,11.7,22.6,15.4c7.1,3.1,14.8,4.5,22.5,4.4
			c15.2-0.1,30.1-6,40.9-16.7c3.5-3.4,6.2-7.4,9.7-10.8c4-4,8.8-6.6,13.4-9.8c6-4.2,11-9.6,14.6-16c8.2-14.7,9.1-32.8,2.1-48.1
			c0,0,0-0.1,0.1-0.1c3.2-9.2,2.3-17.8-0.8-26.9c-3.4-9.9-7.7-19.5-12.3-28.8c-4.2-8.3-8-14.2-16.7-18.1c-10.5-4.6-21.7-7.8-32.8-11
			c-7.6-2.2-16.4-5.6-24.2-3.1c-0.3,0-0.6,0-0.9,0.2c-0.6,0.3-1.2,0.6-1.8,0.9c-3.6-1.8-6.7-3.1-8.8-3.9
			c-20.5-7.8-43.3-3.7-64.2,0.1c-9.5,1.7-17,4.9-23,12.7c-6.5,8.6-11.8,18.3-16.1,28.1c-8.6,19.4-13.9,40.7-13.6,62
			c0,0.6,0.3,0.9,0.7,1.1c-0.1,2.9,0.3,5.9,1.3,8.8c0.1,0.3,0.2,0.6,0.3,0.9c0.4,6.3,1.2,12.8,2.3,19.1c-2-3.7-5.1-7-7.8-10.1
			c-6.6-7.7-9.4-16.8-12.3-26.3c-3.2-10.2-4.4-20.3-5.7-30.9c-0.5-4.5-1.3-9-2.8-13.3c-1.9-5.4-4.1-10.3-3.7-16.2
			c0.1-2-2.8-2.3-3.4-0.5c-2.6,9.2,3.7,17.3,5.3,26.2c2,10.5,2.1,20.9,5,31.2c2.5,8.8,5,18.8,10,26.5c3,4.6,6.9,8.5,10.2,12.9
			c2.6,3.5,4.9,7.4,7,11.1c1.4,2.4,2.8,9.7,5.4,10.9c-17-7.9-32.7-17.4-44.4-32.8C310.8,324.1,312.2,321.6,310.5,320.5z
			 M391.8,292.3c1.9-2.8,1.8-6.4,1.8-9.8c0-1.5,0.1-2.9,0.3-4.3c1.8-10.9,11.7-20.7,22.3-23.5c13.4-3.5,23.5,5.9,24.1,19.1
			c0,0.9-0.7,7.9-0.3,8.3c-3.9-4-10.8-8.4-16.6-8.1c-6.6,0.3-13.2,3.4-18.3,7.6c-2.7,2.2-5.3,4.9-7.1,7.9c-1,1.6-1.9,3.4-2.2,5.3
			c-0.1,0.6,0,1.5-0.1,2.2c-0.4,0.4-0.7,0.9-0.9,1.4c0.3,0,0.5-0.1,0.6-0.3l-0.8,2.7c-1.1-0.9-4.5-3.3-4.9-3.7
			c-1.4-1.4-2.5-3-3.3-4.8c-1.8-3.9-2.8-8.3-2-12.6c2.2-2.8,3.6-6,6.1-8.7c0.8-0.9,1.7-1.6,2.6-2.4c-2.5,2.1-2.2,8-2.3,10.8
			C390.7,283.7,391,288,391.8,292.3z M414.9,298.8c1.4-4,4.1-4.6,7.2-7c1.4-1,2.2-2.1,2.6-3.7c0.3-1-0.1-1.9,0.1-2.9
			c0.4-2.6,2.1-6.8,5.3-6.9c2.4-0.1,4.7,2.4,6.1,4.1c2,2.3,2.8,3.8,1.6,6.6c-2.3,5.3-6.1,9.6-11.2,12.4c-3.9,2.2-8.5,3.4-13.2,3.7
			C413.9,303,414.2,300.8,414.9,298.8z M410.8,305.2c0-0.3-9.3-0.6-10.3-1c-0.9-0.4-1.4-1-1.6-1.7c-0.6-1.8,0.7-4.4,1.1-6.2
			c0.4-2,1.3-3.9,2.4-5.7c2.2-3.5,5.4-6.2,8.9-8.3c3.4-2.1,7.1-2.6,10.8-3.3c-0.4,0.8-0.8,1.6-1,2.6c-0.2,0.7-0.1,1.4-0.2,2.1
			c-0.6,2.9-0.9,4.5-3.2,6.6c-1.3,1.1-2.7,1.7-3.8,3.1C411.1,296.8,410.8,301,410.8,305.2z M393.9,305.3c11.6,6.3,26.9,5.3,37.6-2.4
			c10.8-7.8,13.9-22.9,11.1-35.4c-1.5-6.8-7.4-14.5-14.3-16.7c1.3-0.3,2.5-0.6,3.8-0.8c4.8-1,9.9-1.9,14.6-0.1
			c4.8,1.9,7.9,6.2,10.3,10.6c3.9,7.1,5.8,15.6,5.1,23.7c-1.5,16.7-13.7,31.1-24,43.5c-5.1,6.2-10.9,12-17.7,16.3
			c-8,5-15.9,6.6-25.2,7.3c-0.3,0-0.5,0.1-0.7,0.3c-3.9-2.1-7.5-4.6-10.2-7.8c-0.5-0.6-1.2-0.6-1.7-0.2c-2-2.4-3.6-4.9-4.6-8.2
			c-1.6-5.3-1.2-11.4-0.9-16.9c0.4-6.8,1.7-13.3,4.4-19.6c0.6-1.3,1.3-2.6,2-3.9C385.9,299.2,389.6,302.9,393.9,305.3z M443.8,327.2
			c12.1-15.2,23.9-30.6,21.5-51.1c-1-8.7-4.4-17.5-10.2-24.2c-5.9-6.8-13.5-7.5-22-6c-13,2.3-27.4,7.1-36,17.1
			c-0.3,0.4-2.1,0.7-2.6,1c-0.9,0.5-1.7,1.2-2.5,1.8c-1.5,1.3-2.7,2.8-4,4.1c-3.1,3-5.9,5.6-6.9,10.1c-0.4,1.7-0.5,3.5-0.4,5.3
			c0,0.7,1,3.9,0.7,4.3c-6.3,9.4-8.2,22.9-8.4,33.4c-0.1,3,0.1,6.2,0.6,9.4c0-0.1,0-0.1-0.1-0.2c-2.1-5.4-4.2-10.9-5.3-16.6
			c-1.5-7.5-0.5-15,1-22.4c1.1-5.4,2.3-10.8,2.9-16.4c0.7-7.2,1-14,4.5-20.6c5.8-10.7,16.4-20.6,26.6-27.2
			c21.4-13.7,50-9.6,72.6-0.4c5.2,2.1,9.9,4.9,13.7,8.4c0.2,0.6,0.7,1,1.3,1.1c4.1,4.1,7.2,9.2,8.9,15.3c3.4,12.6,4.5,27.1,4.4,40.2
			c0,16.6-5.5,31.4-12.5,46.3c-5.6,11.8-11.2,23-22,30.8c-8.6,1.4-17.4,2.5-25.4,5.3c-0.6,0.2-0.8,0.8-0.7,1.3
			c-0.4-0.3-0.8-0.6-1.2-0.9c-8.8-6.9-18.2-11.8-28.4-16.5c-3.8-1.8-8.2-3.5-12.5-5.4C418.4,354.5,433.9,339.6,443.8,327.2z
			 M475.1,374.4c9.3-1.6,18.1-4.4,25.7-10.2c16.6-12.6,32.2-27.9,43.2-45.7c4.1-6.6,7.8-13.6,10.7-20.8c6.6,16.9,2.6,36.9-10.1,50
			c-7.1,7.4-16.7,11.4-23.5,19.2c-7,8-14.3,14.3-24.3,18.2c-18.4,7-36.8,4.3-52.4-6.9C454.4,379.1,465.3,376.1,475.1,374.4z
			 M550.7,298c-10.1,20.8-23.9,37.7-41.3,52.8c-9.8,8.5-18.3,15.2-31.1,18.3c-0.2,0-0.4,0.1-0.6,0.1c6.3-5.7,10.5-13.9,14.1-21.4
			c6.4-13.2,12.9-26.8,15-41.4c2.1-14.9,0.2-30.5-2-45.3c-1.4-9.9-4.6-18.6-11.4-25.4c4.5-9.9-8.3-20.1-20.2-26.9
			c4.6-0.8,9.4,0.8,14,2c5.3,1.5,10.7,2.9,16,4.5c10.8,3.2,26.6,5.9,33,16c5.8,9.2,10.1,19.9,14.1,30
			C555.2,274.2,556.9,285.2,550.7,298z M483.6,222.1c3.3,3.1,4.7,6.1,5.2,9.7c0,0-0.1-0.1-0.1-0.1c-9.8-6.9-21.9-10.1-33.5-12.4
			c-13.7-2.8-28.3-4-41.7,0.9c-7.5,2.7-14.3,7-20.4,12c-0.4-0.2-0.8-0.2-1.3-0.1c-26.4,8.2-38,32.4-45.7,56.8
			c1.9-12.5,4.8-24.8,9.3-36.8c3.3-8.7,7.3-17,12-25c5.4-9.4,10.7-17.8,21.8-20.8c17.4-4.7,38.6-7,56.4-3.8c4.6,0.8,9,2.2,13.3,4
			c4.2,1.8,8.9,4.4,12.7,6.8C475.7,216,480.1,218.8,483.6,222.1z M347.9,297.7c6-23.2,15.8-47.8,37.8-58.8c-0.9,0.9-1.9,1.9-2.8,2.8
			c-4.1,4.3-8.1,9-10.7,14.5c-3.1,6.3-3.4,12.8-4.1,19.6c-0.9,8.4-3.3,16.5-4.3,24.8c-1,7.7-0.1,15,2.2,22.4
			c3.2,10.3,7.2,20.6,11.4,30.7c-4.5-5.6-9.2-11.1-13.6-16.8c-4.2-5.5-8.7-11-12.4-16.8C346.8,312.8,345.7,306,347.9,297.7z
			 M354.4,331.9c9.1,12.1,18.2,24.7,28.8,35.6c0.3,0.8,0.7,1.6,1,2.3c-5.2-2.5-10.4-4.9-15.7-7.1c-3.3-1.4-6.6-2.8-9.9-4.3
			c-2.3-6.6-6.6-12.1-7.9-19.3c-0.9-4.9-1.4-10-1.9-15C350.6,326.8,352.5,329.4,354.4,331.9z M314.1,335.6
			c10.2,10.3,22.7,17.6,35.9,23.6c14.1,6.4,28.5,12,42.2,19.1c12.7,6.6,25,14,36.9,22.1c-4.1-0.6-8.2-1.2-12.3-1.8
			c-29.7-4.5-60.3-9.1-87.7-22.3c-3.1-1.5-6-3.1-8.9-4.9c0.7-0.8,0.8-2-0.1-3.1c-0.1-0.1-0.2-0.2-0.3-0.2c0.1-0.8-0.2-2.6-0.3-3.4
			c-0.9-5.2-1.8-10.5-2.8-15.7c-0.6-3.1-1.5-5.8-2.8-8.7c-1.3-2.8-2.3-5.5-3.1-8.3C311.9,333.3,313,334.5,314.1,335.6z M348.9,388.9
			c27.8,9.1,57.4,12.8,86.2,16.8c17.3,2.4,34.7,4.2,52.1,3.9c14.8-0.3,30.3-2.2,43.3-9.9c11.9-7.1,20.2-18.6,26.9-30.4
			c6.4-11.4,11.2-23.5,14.6-36.1c5.9,26.7-4.5,52.2-25.9,69.9c-10.3,8.6-22.3,15.1-34.3,21c-14.3,7-29.1,13.2-44.3,18
			c-58,18.2-127.4,16.4-181.6-13c-24.8-13.5-46.3-34.7-54.9-62.1c-2.2-6.9-4.9-15.7-3-22.8c1.9-7.4,9.6-10.5,16.6-10.9
			c13.3-0.8,25.9,6.8,36.3,14.4c10.7,7.8,20.3,16.9,31.4,24.2C323.6,379.2,336.1,384.7,348.9,388.9z M362.9,456.8
			c32.4,3.7,65.6,1.2,97-7.5c17.4-4.8,34.1-11.6,50.3-19.4c9.7-4.6,19.1-9.7,28-15.7c-6.5,16.7-16.8,29.2-31.6,39.5
			c-14.9,10.5-32,19.2-49.6,24.1c-19.8,5.5-39.6,3.8-59.6-0.3c-8.7-1.8-17.5-4.1-25.6-7.8c-8.1-3.7-14.5-9-21.3-14.6
			C354.7,455.7,358.8,456.3,362.9,456.8z M106.2,362.8c-16.5-8.2-33-19-42.4-35.4c-5.2-9.1-10.5-23.5,0.3-30.8
			c7.2-4.8,16.5-4.9,23.9-9.4c5.3-3.3,9.9-8.5,9.4-15.1c-0.3-3.8-2.4-7.1-4.4-10.2c-2.9-4.5-5.7-9-8.1-13.8
			c-10.7-21.3-13-44.5-3.1-66.4c8.9-20,23.9-37.3,36.9-54.8c12-16.2,23.7-34.1,40.5-45.8c9-6.2,19.2-10,30.2-9.3
			c5.8,0.4,11.5,1.8,17.3,0.8c5-0.9,8.9-3.9,13.3-6.3c17.4-9.8,40.7-4.3,52.6,11.5c-5.7,7.8-10.9,16-16.5,23.9
			c-7.2,10.2-15.1,19.8-22.6,29.7c-14.5,19.4-27.3,40.8-27.4,65.8c-0.3,57.1,49.7,94.9,94.7,121.4c0.2,0.4,0.4,0.7,0.6,1.1
			c1.6,2.5,3.3,4.8,5.1,7.2c0,8.2,4.7,14.4,6,22.5c0.8,5.2,1.4,10.4,2.2,15.5c0.1,1,0.2,2.2,0.3,3.3c-8.2-5.4-15.9-11.6-23.7-17.8
			c-9.8-7.8-20.1-15.5-32.2-19.2c-9.6-3-21.9-3.7-30.1,3.4c-9.5,8.3-5.8,23.2-2.5,33.7c4.6,14.6,12.6,27.6,22.8,38.7
			c-20.1-4.4-38.3,0.1-53.9,9.8C175.2,386.5,136.9,378.1,106.2,362.8z M478.3,694.9c-21.3,11.1-46.2,11.3-69.6,11.5
			c-22.5,0.2-48.5,4.2-69.1-6.9c-9.8-5.2-17.8-13.1-27.3-18.7c-8.4-5-17.7-8.1-27.2-10c-20.3-4.1-41.3-3.1-61.6-7.1
			c-21.9-4.3-38.9-16.1-53-33.3c-14-17.1-28.1-37.5-35.4-58.4c-8.4-24.2-2.8-48.6,6.1-71.7c9-23.7,20.4-47.6,38.7-65.6
			c17.8-17.4,43.2-28.3,68.2-22.8c2,0.4,3.3-1.4,3.1-2.9c7.7,8,16.5,14.9,25.9,20.6c21.8,13.3,46.8,21.1,72.1,25.3
			c-0.4,0.3-0.7,0.8-0.3,1.4c8.6,15.4,29.6,21.7,45.6,25.3c8.5,1.9,17,3.3,25.6,4c-0.1,0.1-0.2,0.3-0.3,0.4
			c-5.9,15.3-11.6,31.3-22.3,44c-9.9,11.7-23.3,19.6-33.4,31c-8,9.1-14.4,21.1-12.9,33.6c1.4,11.7,9.6,20.4,19.1,26.7
			c11.9,7.9,25.6,13.8,38.7,19.3c13.6,5.7,27.7,10.1,42.5,11c16.4,1,33-1.6,49.2-3.2c3.2-0.3,6.3-0.6,9.5-1
			C510.1,668.1,496.2,685.5,478.3,694.9z M740.9,491.1c-5.4,25.8-18.7,48.4-37.6,66.6c-9.1,8.8-19,16.7-27.7,26
			c-3.7,3.9-7.3,8.1-10.4,12.6c-4,5.9-6.3,13.3-12.9,16.7c-13.2,6.8-29.1,10.4-43.5,13.8c-14.4,3.5-29,6.3-43.6,8.6
			c-29.9,4.7-60.2,7.9-90.4,10.5c-15.3,1.3-30.1,1.1-45-3.1c-14.3-4-27.8-10.4-41.2-16.8c-11.6-5.6-25.2-12.1-30.8-24.4
			c-7.2-15.6,3.5-32.1,14.6-42.6c10.7-10.2,23.1-18.3,31.9-30.4c9-12.4,14.4-27.1,19.4-41.5c0.2-0.5,0.1-0.9,0-1.3
			c11.2,0.6,22.5-0.2,33.6-3.2c1.7-0.5,3.4-1,5-1.5c-3.8,13.8,4.4,26.6,15.3,34.6c11.4,8.4,27.2,17.9,41.9,14.9
			c15.5-3.1,29-15.5,40.6-25.6c13.7-12.1,26.1-25.5,37.9-39.5c10.9-12.9,21.6-26.1,31.8-39.5c10-13.3,17.1-27.3,18.7-44.1
			c1.7-19-2.4-38-2.6-57c-0.1-8.6,1.3-17.2,2.6-25.7c0.8,1.3,2.9,1.8,4.2,0c6.3-8.1,19.5-7.7,26.7-1c5,4.6,4.9,11,5,17.3
			c0.1,6.3,1,11.9,3.7,17.6c5.9,12.7,15.3,24,22.4,36.1c7.5,12.7,14.7,25.8,20.5,39.4C742.2,434.7,746.7,463,740.9,491.1z
			 M773.9,325.7c-5,19.4-2.7,39.8-5.9,59.5c-3.2,19.3-11.1,37.4-22.6,53.2c-1.7-8.5-4.1-17-7.3-25.3c-6.5-16.9-15.2-32.9-24.5-48.5
			c-4.4-7.4-9.2-14.6-14-21.8c-5.2-7.8-9.8-15.4-10.3-25.1c-0.3-6.8,0.4-13.7-3.5-19.7c-2.5-3.8-6.4-6.6-10.7-8.2
			c-9-3.4-20-1.8-26.2,6c1.3-8.6,2.3-17.2,1.5-25.9c-1.4-15.7-10.2-28-20.2-39.5c-11.8-51.8-24.8-105.5-59.7-147.1
			c-6.2-7.4-13-14-20.3-19.9c1.5-1.2,3-2.5,4.7-3.5c0.2-0.1,0.4-0.3,0.5-0.5c27.6-15.9,60-5.8,86.8,8.3c15,7.8,29.4,17.2,41,29.5
			c12.8,13.4,19.2,29.3,24.9,46.7c10.6,32.2,25.3,62.8,46.1,89.8c5.2,6.7,10.7,13.2,16.5,19.4c5.8,6.1,13.2,11.9,16.8,19.6
			C795.7,290.3,778.1,309.3,773.9,325.7z"/>
	</g>
</g>
<g id="Layer_3" class="st0">
	<g class="st1">
		<path class="st7" d="M411.4,30.1l112.5,227.9c1.9,3.7,5.4,6.3,9.6,6.9l251.5,36.5c10.4,1.5,14.6,14.3,7,21.7L610,500.5
			c-3,2.9-4.4,7.1-3.7,11.2l43,250.5c1.8,10.4-9.1,18.3-18.4,13.4L405.9,657.3c-3.7-1.9-8.1-1.9-11.8,0L169.2,775.5
			c-9.3,4.9-20.2-3-18.4-13.4l43-250.5c0.7-4.1-0.7-8.3-3.7-11.2L8.1,323.1c-7.5-7.3-3.4-20.2,7-21.7l251.5-36.5
			c4.1-0.6,7.7-3.2,9.6-6.9L388.6,30.1C393.3,20.6,406.7,20.6,411.4,30.1z"/>
		<g>
			<path class="st8" d="M400,82.7L299.8,276.8c-5.3,10.2-15.3,17-26.8,18L55.4,314.7l229.9,10.8c14.6,0.7,28-8.2,33-21.9L400,82.7z"
				/>
		</g>
		<path class="st9" d="M155.7,733.3l-4.9,28.8c-1.8,10.4,9.1,18.3,18.4,13.4l224.9-118.2c3.7-1.9,8.1-1.9,11.8,0l224.9,118.2
			c9.3,4.9,20.2-3,18.4-13.4l-43-250.5c-0.7-4.1,0.7-8.3,3.7-11.2l182-177.4c7.5-7.3,3.4-20.2-7-21.7l-84.2-12.2
			C564.4,533.7,355.8,662.4,155.7,733.3z"/>
	</g>
</g>
<g id="Layer_4" class="st0">
	<g class="st1">
		<g>
			<path class="st10" d="M788.6,400.7c0,213.8-173.3,387.1-387.1,387.1c-213.8,0-387.1-173.3-387.1-387.1
				c0-213.8,173.3-387.1,387.1-387.1C615.2,13.5,788.6,186.9,788.6,400.7z"/>
			<path class="st11" d="M789.2,400.7c0,0,0,2.4-0.1,7c-0.2,4.6,0,11.4-0.8,20.3c-1.1,17.8-3.8,44-12.6,76.3
				c-8.9,32-22.9,70.7-48.1,110c-25,39.2-60.4,79.8-108.3,112.5c-23.9,16.2-50.6,30.4-79.7,41.7c-29.1,11.4-60.8,18.5-93.7,22.3
				c-65.9,7.5-137.3-2.9-202.7-33c-65.3-29.9-124.4-79-165.9-141.9c-41.9-62.4-65.7-138.4-66.5-215.2c0-19,1-38.4,3.6-57.4
				c2.8-19,6.5-37.9,11.9-56.2c10.9-36.8,27.1-71.8,47.9-103.6c41.6-63.6,101.5-113.3,167.7-142.8c33-15.1,67.8-24.5,102.2-29.7
				c8.7-1.1,17.2-2.3,25.9-2.8c4.3-0.3,8.6-0.7,12.9-0.9c4.3-0.1,8.6-0.2,12.8-0.3c8.9-0.3,16.8,0.3,25.2,0.4
				c8.4,0.7,16.9,1.1,25.1,2.1c32.9,4,64.7,11.4,93.8,22.8c29.1,11.4,55.8,25.7,79.7,41.9c47.8,32.8,83.2,73.4,108.2,112.7
				c25.2,39.4,39.2,78,48.1,110.1c8.8,32.2,11.5,58.5,12.5,76.3c0.8,8.9,0.6,15.8,0.8,20.4C789.2,398.3,789.2,400.7,789.2,400.7z
				 M787.9,400.7c0,0-0.1-2.4-0.2-7c-0.2-4.6-0.1-11.4-1-20.3c-1.3-17.7-4.3-43.8-13.4-75.7c-4.2-16-10.7-33.3-18.9-51.4
				c-8.2-18.2-18.7-37.1-31.6-56.1c-25.7-38-62.2-76.2-109.3-107c-47-30.7-105.1-53.5-169-60.6c-8-1-15.9-1.3-24-2
				c-4.1-0.1-8.3-0.2-12.4-0.3l-6.3-0.1l-6,0.1c-4.1,0.1-8.2,0.2-12.4,0.3c-4.1,0.2-8.3,0.6-12.4,0.9c-8.3,0.5-16.6,1.7-25,2.8
				c-16.6,2.6-33.4,5.9-49.9,10.9c-8.3,2.2-16.4,5.2-24.7,7.9c-8.1,3.2-16.3,6-24.3,9.7C183,80.7,124.7,128.4,83.6,189.7
				c-41.4,61-65,135.6-65.8,211c0.1,18.8,1,37.7,3.6,56.4c2.8,18.6,6.4,37.2,11.8,55.2c10.8,36,26.9,70.3,47.4,101.4
				c41.2,62.1,100.4,110.3,165.4,137.8c8,3.7,16.4,6.5,24.5,9.6c8.3,2.6,16.5,5.6,24.9,7.7c16.6,4.8,33.6,7.9,50.3,10.3
				c8.4,0.9,16.8,2.1,25.1,2.5c4.2,0.2,8.2,0.6,12.4,0.7c4.2,0.1,8.4,0.1,12.6,0.2c8.2,0.3,16.4-0.3,24.6-0.4
				c8.1-0.7,16.2-1.1,24.2-2.1c64-7.6,122.1-30.5,169.1-61.4c47.1-31,83.5-69.1,109.2-107.2c12.9-19,23.4-38,31.6-56.2
				c8.2-18.2,14.7-35.4,18.9-51.5c9.1-31.9,12.1-58,13.3-75.7c0.9-8.8,0.8-15.7,1-20.3C787.9,403,787.9,400.7,787.9,400.7z"/>
		</g>
		<path class="st12" d="M68.9,418.4c36.3,7.4,72.9,16.4,109.9,19.3c39.3,3.1,73.9-6.8,110.2-21.5c41.2-16.6,81.1-33.6,125.4-39.9
			c44.3-6.3,89.2-7.5,133.9-5.1c80.7,4.3,160.4,17.6,240.3,29.1c0-5.3-0.2-10.6-0.4-15.8c-59.5-0.5-118.5-14.4-178.2-15.9
			c-73.1-1.8-146.8,5.6-219.1-9.1c-78.3-15.9-151.2-54.2-232.9-32.5c-47.3,12.6-93.8,38.1-142.4,44.3c-0.7,9.7-1.2,19.5-1.2,29.4
			c0,2.3,0.1,4.6,0.2,6.9C33.7,410.7,52.4,415,68.9,418.4z"/>
		<path class="st13" d="M190.6,473c40.3-5.2,80.6-13.3,119.3-25.9c37-12,71.6-29.8,107.9-43.5c69.1-26,136.1-12.6,206.6-1.3
			c43.2,6.9,105.7,18.7,154.6,5.2c-82.5-12.1-165.2-26.2-248.7-28.6c-46.2-1.3-94.2-0.8-139.5,9.4c-40.5,9-77.4,27.3-116.1,41.6
			c-32.7,12-62.9,19.4-97.7,16.1c-29.6-2.8-58.7-8.6-87.7-14.5c-21.7-4.5-47.9-11.5-74.6-16c0.7,17.8,2.6,35.2,5.6,52.3
			C74.9,483,137.1,479.9,190.6,473z"/>
		<path class="st14" d="M654.1,415.4c-81.9-11.1-161.3-34.2-241.5-1.6c-39.1,15.9-77,34.5-117.8,46c-38.7,11-78.5,18.9-118.5,23
			c-49,5-104.2,6.9-154.2-5.6c14.5,72.2,49.1,137.2,97.8,188.8c24.8-0.8,49.6-1,74.6-1.3c38-0.5,74.6-2.8,111.9-10.4
			c29.6-6,59-13.1,88.9-17.2c58.6-8.1,114.5,2.6,172,13.4c37.3,7,76.9,15.5,115.7,15.6c63-66.7,102.5-155.7,105.3-253.9
			C746.4,426.4,694.6,420.9,654.1,415.4z"/>
		<path class="st15" d="M694.4,265.2c-37.3,7.4-74,17.1-112.2,18.1c-86.7,2.3-164.7-23.6-246.2-49.1
			c-45.7-14.3-93.1-27.3-141.5-24.2c-40.9,2.7-70.8,16-104.5,38.1c-17.1,11.2-37.5,27.7-59.4,41.5c-7.1,23.7-12,48.3-14.4,73.6
			c56.3-7,109.3-41.8,166.2-49.1c73-9.4,134.2,21.4,203.8,35.5c77.8,15.8,154.9,6.3,233.2,10.9c56.1,3.3,112.2,15.1,168.4,15.7
			C785.3,337.3,777.1,300,764,265C741.4,259.6,717,260.7,694.4,265.2z"/>
		<path class="st16" d="M332.4,50.1c64.7,8.1,131.7,5.9,192.4-16.4c-38.7-13-80.2-20.1-123.3-20.1c-49.1,0-96.1,9.2-139.3,25.9
			C285.6,42.5,308.8,47.1,332.4,50.1z"/>
		<path class="st15" d="M535.7,37.6c-53,21.6-110.6,26.9-169.1,24.1c-38.1-1.9-75-10.9-112.9-14.9c-2.6-0.3-5.1-0.5-7.6-0.7
			c-19.1,8.4-37.5,18.2-54.8,29.5c1.5-0.2,3-0.5,4.4-0.7c50.3-6.8,101.9-5.6,152.2,0.8c74.5,9.5,144.9,17.8,219.1-1
			c8.5-2.2,17.2-5.9,26-10.3C574.9,53.9,555.7,45,535.7,37.6z"/>
		<path class="st17" d="M600.9,68.9c-15.9,7.8-31.8,14-50.3,17.6c-63.1,12.2-123.9,9.6-187,0c-48.3-7.3-98.3-10.4-147.1-5.8
			c-12.9,1.2-26.8,2.8-40.7,5.5C128,120.5,88.3,165.5,60.3,217.7c20.5-1.6,40.8-4.6,60.4-11.9c66.3-24.4,130-34.5,199.4-16.5
			c76.4,19.7,148.9,47,228.4,52.3c67.7,4.5,135.2,0.1,202.6-6.8C718.4,165.8,665.8,108.1,600.9,68.9z"/>
		<path class="st18" d="M546.8,250c-72.4-5.7-139-26.9-208.4-46.6c-35.9-10.2-73.3-18.9-110.8-15.8c-37.3,3.1-71.7,13.8-106.7,26.3
			c-20.9,7.5-42.7,10.2-64.7,11.7c-8.2,16.2-15.4,33.1-21.3,50.5c27.4-17.5,53.5-37.4,82.1-53c66.8-36.4,145.9-21,215,0.6
			c82.6,25.8,163.7,55.3,251.9,51.2c40.5-1.9,78.6-13.4,118.4-19.2c17.4-2.5,36.1-4.3,53.6-1.4c1.4,0.2,2.9,0.5,4.3,0.8
			c-1.7-4.2-3.5-8.4-5.3-12.5C685.8,250,616,255.5,546.8,250z"/>
		<path class="st17" d="M409.8,643.3c-70.7,8.5-137.3,28.7-209,29.6c-24.5,0.3-49,0.4-73.3,1c5.2,5.2,10.5,10.3,16,15.2
			c78.6-16.7,160.7-19.2,239.8-29.3c94.8-12.1,187.9,21.5,281.9,24c3.1-2.9,6-5.8,9-8.8C586.4,673.9,497.8,632.7,409.8,643.3z"/>
		<path class="st14" d="M388,667.4c-78.1,10-159.2,12.6-237,28.3c14.5,12.3,29.9,23.6,46.1,33.7c34.9-2.1,69.5-7,104.4-14.1
			c52.1-10.7,101.8-24.6,155.4-20.7c52.6,3.8,104.4,14.5,156.8,20c4.1,0.4,8.2,0.8,12.4,1.2c10.7-7.6,20.9-15.8,30.7-24.4
			C567.1,687,478.5,655.8,388,667.4z"/>
		<path class="st15" d="M461.1,703.4C400.9,699,346,715,287.4,726.1c-26,4.9-52,8.5-77.9,10.6c22.1,12.6,45.5,23.2,70.1,31.3
			c59.7-23.9,129.2-31.6,191.4-35.3c33.7-2,61.5,0.6,94,10.1c3.5,1,7.1,2.2,10.9,3.3c13.7-6.9,26.9-14.6,39.5-23.1
			C563.8,717.6,512.8,707.1,461.1,703.4z"/>
		<path class="st17" d="M491.9,740.2c-64.6,2.2-137.6,8.4-200.7,31.6c35,10.4,72,16,110.3,16c58.1,0,113.2-12.9,162.7-35.8
			C540.5,745.3,517,739.3,491.9,740.2z"/>
		<path class="st19" d="M789.2,400.7c0,0,0,2.4-0.1,7c-0.2,4.6,0,11.4-0.8,20.3c-1.1,17.8-3.8,44-12.6,76.3
			c-8.9,32-22.9,70.7-48.1,110c-25,39.2-60.4,79.8-108.3,112.5c-23.9,16.2-50.6,30.4-79.7,41.7c-29.1,11.4-60.8,18.5-93.7,22.3
			c-65.9,7.5-137.3-2.9-202.7-33c-65.3-29.9-124.4-79-165.9-141.9c-41.9-62.4-65.7-138.4-66.5-215.2c0-19,1-38.4,3.6-57.4
			c2.8-19,6.5-37.9,11.9-56.2c10.9-36.8,27.1-71.8,47.9-103.6c41.6-63.6,101.5-113.3,167.7-142.8c33-15.1,67.8-24.5,102.2-29.7
			c8.7-1.1,17.2-2.3,25.9-2.8c4.3-0.3,8.6-0.7,12.9-0.9c4.3-0.1,8.6-0.2,12.8-0.3c8.9-0.3,16.8,0.3,25.2,0.4
			c8.4,0.7,16.9,1.1,25.1,2.1c32.9,4,64.7,11.4,93.8,22.8c29.1,11.4,55.8,25.7,79.7,41.9c47.8,32.8,83.2,73.4,108.2,112.7
			c25.2,39.4,39.2,78,48.1,110.1c8.8,32.2,11.5,58.5,12.5,76.3c0.8,8.9,0.6,15.8,0.8,20.4C789.2,398.3,789.2,400.7,789.2,400.7z
			 M787.9,400.7c0,0-0.1-2.4-0.2-7c-0.2-4.6-0.1-11.4-1-20.3c-1.3-17.7-4.3-43.8-13.4-75.7c-4.2-16-10.7-33.3-18.9-51.4
			c-8.2-18.2-18.7-37.1-31.6-56.1c-25.7-38-62.2-76.2-109.3-107c-47-30.7-105.1-53.5-169-60.6c-8-1-15.9-1.3-24-2
			c-4.1-0.1-8.3-0.2-12.4-0.3l-6.3-0.1l-6,0.1c-4.1,0.1-8.2,0.2-12.4,0.3c-4.1,0.2-8.3,0.6-12.4,0.9c-8.3,0.5-16.6,1.7-25,2.8
			c-16.6,2.6-33.4,5.9-49.9,10.9c-8.3,2.2-16.4,5.2-24.7,7.9c-8.1,3.2-16.3,6-24.3,9.7C183,80.7,124.7,128.4,83.6,189.7
			c-41.4,61-65,135.6-65.8,211c0.1,18.8,1,37.7,3.6,56.4c2.8,18.6,6.4,37.2,11.8,55.2c10.8,36,26.9,70.3,47.4,101.4
			c41.2,62.1,100.4,110.3,165.4,137.8c8,3.7,16.4,6.5,24.5,9.6c8.3,2.6,16.5,5.6,24.9,7.7c16.6,4.8,33.6,7.9,50.3,10.3
			c8.4,0.9,16.8,2.1,25.1,2.5c4.2,0.2,8.2,0.6,12.4,0.7c4.2,0.1,8.4,0.1,12.6,0.2c8.2,0.3,16.4-0.3,24.6-0.4
			c8.1-0.7,16.2-1.1,24.2-2.1c64-7.6,122.1-30.5,169.1-61.4c47.1-31,83.5-69.1,109.2-107.2c12.9-19,23.4-38,31.6-56.2
			c8.2-18.2,14.7-35.4,18.9-51.5c9.1-31.9,12.1-58,13.3-75.7c0.9-8.8,0.8-15.7,1-20.3C787.9,403,787.9,400.7,787.9,400.7z"/>
		<g>
			<defs>
				<filter id="Adobe_OpacityMaskFilter" filterUnits="userSpaceOnUse" x="29.5" y="25.4" width="490.1" height="710.3">
					<feFlood  style="flood-color:white;flood-opacity:1" result="back"/>
					<feBlend  in="SourceGraphic" in2="back" mode="normal"/>
				</filter>
			</defs>
			<mask maskUnits="userSpaceOnUse" x="29.5" y="25.4" width="490.1" height="710.3" id="SVGID_1_">
				<g class="st20">
					<defs>
						
							<filter id="Adobe_OpacityMaskFilter_00000124840950393429102650000004520845802008273308_" filterUnits="userSpaceOnUse" x="29.5" y="25.4" width="490.1" height="710.3">
							<feFlood  style="flood-color:white;flood-opacity:1" result="back"/>
							<feBlend  in="SourceGraphic" in2="back" mode="normal"/>
						</filter>
					</defs>
					<mask maskUnits="userSpaceOnUse" x="29.5" y="25.4" width="490.1" height="710.3" id="SVGID_1_">
						<g style="filter:url(#Adobe_OpacityMaskFilter_00000124840950393429102650000004520845802008273308_);">
						</g>
					</mask>
					
						<radialGradient id="SVGID_00000066504732371766981670000009040119470743645369_" cx="813.1125" cy="828.1014" r="983.9091" gradientUnits="userSpaceOnUse">
						<stop  offset="0" style="stop-color:#000000"/>
						<stop  offset="0.2411" style="stop-color:#020202"/>
						<stop  offset="0.3779" style="stop-color:#0B0B0B"/>
						<stop  offset="0.4888" style="stop-color:#191919"/>
						<stop  offset="0.5857" style="stop-color:#2C2C2C"/>
						<stop  offset="0.6734" style="stop-color:#464646"/>
						<stop  offset="0.7547" style="stop-color:#666666"/>
						<stop  offset="0.8308" style="stop-color:#8B8B8B"/>
						<stop  offset="0.903" style="stop-color:#B7B7B7"/>
						<stop  offset="0.9696" style="stop-color:#E7E7E7"/>
						<stop  offset="1" style="stop-color:#FFFFFF"/>
					</radialGradient>
					<path style="mask:url(#SVGID_1_);fill:url(#SVGID_00000066504732371766981670000009040119470743645369_);" d="M135.9,529.1
						c-8.3-3.8-15.6-9.4-24-13.2c-3.1-1.4-2.2-5-0.2-7c51.1-52,148.2-17.4,193-75.7c-64.1,3.8-131.6,20.1-192.1-8.9
						c-35.5-17.1-11.3-39.7,13.3-50.7c33.5-15,68.6-16.1,102.6-27.7c3.8-1.3,21.6-6.4,14.9-15.2c-3.9-5.2-8.5-9.3-15-11.1
						c-11.9-3.3-24.1-3.4-36.3-2.2c-20.6,2.1-41.4,7.6-62.1,6.7c-4.3-0.2-3-5-1.1-7.1c36.4-40.6,90.1-40.1,138.3-56.7
						c8.2-2.8,44-13.7,29.3-23.6c-11.9-8.1-26.1-10.1-40.3-10.1c-21.3,0-43,3.9-64.3,1.6c-3.4-0.4-3.5-3.8-1.9-6.2
						c61.6-90.5,182.4-72,267.5-124.2c-7.2-8.5-16.1-15.3-22.7-24.3c-1.3-1.8-0.2-4.6,1.3-5.9C460.3,46,489.6,44,519.6,45
						c-37.3-12.6-77.2-19.5-118.8-19.5c-205.1,0-371.3,166.2-371.3,371.3c0,151.1,90.3,281,219.7,339
						C170.2,690.1,82.7,612.6,135.9,529.1z"/>
				</g>
			</mask>
			
				<radialGradient id="SVGID_00000126321610474259504000000003875984860797863071_" cx="813.1125" cy="828.1014" r="983.9091" gradientUnits="userSpaceOnUse">
				<stop  offset="0" style="stop-color:#2B2B2B"/>
				<stop  offset="0.2551" style="stop-color:#2D2D2D"/>
				<stop  offset="0.3999" style="stop-color:#363636"/>
				<stop  offset="0.5171" style="stop-color:#444444"/>
				<stop  offset="0.6196" style="stop-color:#575757"/>
				<stop  offset="0.7124" style="stop-color:#717171"/>
				<stop  offset="0.7983" style="stop-color:#909090"/>
				<stop  offset="0.8789" style="stop-color:#B6B6B6"/>
				<stop  offset="0.9531" style="stop-color:#E0E0E0"/>
				<stop  offset="1" style="stop-color:#FFFFFF"/>
			</radialGradient>
			<path style="fill:url(#SVGID_00000126321610474259504000000003875984860797863071_);" d="M135.9,529.1c-8.3-3.8-15.6-9.4-24-13.2
				c-3.1-1.4-2.2-5-0.2-7c51.1-52,148.2-17.4,193-75.7c-64.1,3.8-131.6,20.1-192.1-8.9c-35.5-17.1-11.3-39.7,13.3-50.7
				c33.5-15,68.6-16.1,102.6-27.7c3.8-1.3,21.6-6.4,14.9-15.2c-3.9-5.2-8.5-9.3-15-11.1c-11.9-3.3-24.1-3.4-36.3-2.2
				c-20.6,2.1-41.4,7.6-62.1,6.7c-4.3-0.2-3-5-1.1-7.1c36.4-40.6,90.1-40.1,138.3-56.7c8.2-2.8,44-13.7,29.3-23.6
				c-11.9-8.1-26.1-10.1-40.3-10.1c-21.3,0-43,3.9-64.3,1.6c-3.4-0.4-3.5-3.8-1.9-6.2c61.6-90.5,182.4-72,267.5-124.2
				c-7.2-8.5-16.1-15.3-22.7-24.3c-1.3-1.8-0.2-4.6,1.3-5.9C460.3,46,489.6,44,519.6,45c-37.3-12.6-77.2-19.5-118.8-19.5
				c-205.1,0-371.3,166.2-371.3,371.3c0,151.1,90.3,281,219.7,339C170.2,690.1,82.7,612.6,135.9,529.1z"/>
			<g>
				<g>
					<path class="st24" d="M741,234.4c0,0,73.6,277.5-94.4,443.4C646.6,677.7,847.5,541,741,234.4z"/>
					<path class="st25" d="M163.7,103.6c0,0-242.4,203.7-90.4,474.9C73.3,578.5-43.7,316.2,163.7,103.6z"/>
				</g>
			</g>
			
				<radialGradient id="SVGID_00000127022778334183424600000014113818512504109752_" cx="165.5951" cy="303.2388" r="549.2055" gradientUnits="userSpaceOnUse">
				<stop  offset="0.5493" style="stop-color:#FFFFFF"/>
				<stop  offset="0.6356" style="stop-color:#FCFEFE"/>
				<stop  offset="0.6949" style="stop-color:#F3F9FC"/>
				<stop  offset="0.7461" style="stop-color:#E4F1F8"/>
				<stop  offset="0.7926" style="stop-color:#CEE6F3"/>
				<stop  offset="0.8361" style="stop-color:#B2D8ED"/>
				<stop  offset="0.8772" style="stop-color:#90C6E4"/>
				<stop  offset="0.9166" style="stop-color:#67B1DB"/>
				<stop  offset="0.9541" style="stop-color:#3799CF"/>
				<stop  offset="0.9897" style="stop-color:#037FC3"/>
				<stop  offset="0.9917" style="stop-color:#007DC2"/>
			</radialGradient>
			<circle style="fill:url(#SVGID_00000127022778334183424600000014113818512504109752_);" cx="401.4" cy="400.7" r="387.1"/>
		</g>
		<path class="st27" d="M131.3,370.7c3.7-0.7,12.6,4.7,15.6,5.1c13.8,2.2,27.7,1.6,41.5,0.5c29.4-2.4,56.8-6.7,84.3-15.9
			c0.2-0.5,0.5-0.9,0.6-1.4c-3.1-2.9-6.9-5-11.2-6.6c-4.5-1.3-9-2.4-13.7-3.2c-11.9-1.5-24.8-0.7-34.2-0.1
			c-23.1,1.6-47.5,4.7-69,13.7c-1.7,0.7-3.5,1.5-5.3,2.3c-2.2,1.3-4.4,2.5-6.5,3.9C132.6,369.6,131.9,370.1,131.3,370.7z"/>
		<path class="st27" d="M374.6,362.5c-62.5-8.8-118.9-37.5-183.1-33.2c-57.7,3.8-110.8,34.2-164.5,53.4c-1.6,0.6-2.3,4.2,0,4.1
			c20.9-1,40.1-9.9,59.6-17.3c-2.4,2.4-4.5,5.3-5.9,8.8c-1.5,3.7-2,8.8,1.7,11.5c21.7,15.7,59.3,9.8,84.8,9.8
			c36.3,0,69.7-8.8,102.8-23.3c1.5-0.6,2.1-2,2.1-3.2c-35,13.2-76.8,21.7-113.2,19.2c-7.7-0.5-50.6-3.8-37.8-21.5
			c0.9-1.3,2.1-2.4,3.2-3.5c0.1-0.1,0.1-0.2,0.2-0.3c0,0,0.1-0.1,0.1-0.1c1.1-1.1,2.3-2.2,3.6-3.2c0.1-0.1,0.2-0.1,0.3-0.2
			c1.5-1.2,3-2.3,4.6-3.3c9.7-6.4,21.7-10.4,34-13.2c2.9-0.7,5.6-1.3,8.2-1.9c24.5-5.1,48-7.7,71.1-4.8c5.8,0.5,11.4,1.5,16.6,3.1
			c8.6,2.2,17.2,5.3,25.8,9.5c28,6.5,55.9,13.7,84.4,15.5C376.5,368.5,378.4,363,374.6,362.5z"/>
		<path class="st27" d="M328.3,372.6c-45.5,10.7-83.3,34.7-131.5,37.7c-49.3,3.1-102.5-4.1-151.1-12c-2.2-0.4-4.2,3.8-1.6,4.6
			c47.9,13.5,99.2,23.6,149.1,22.9c20.7-0.3,41.3-3.8,61-10.2c27-8.7,46.9-28.3,74.2-36.6C331.8,378,332.7,371.5,328.3,372.6z"/>
		<path class="st27" d="M757.7,457.6c-16.7-8.4-32.6-10.9-51.2-12.6c-25.4-2.3-49.1-6.9-73.8-13.5c-46.2-12.3-91.6-18.6-139.4-15.4
			c-40.3,2.8-76.7,21.1-113.5,36.1c-50.7,20.7-99.9,41.1-155.7,39.6c-2.4-0.1-3.8,4.1-1,4.3c85.7,4.8,163-39.7,245.4-55.7
			c48.5-9.4,99.5-6.1,147.9,2.4c22.2,3.9,44,9.5,66.5,11.8c24.5,2.5,47.9,2.5,72,8.7C758.2,464.4,761.2,459.4,757.7,457.6z"/>
		<path class="st27" d="M624,621.1c-34.7-10.7-72-11.9-107.6-19.3c-37.6-7.9-77.1-7.7-114.7,0c-43,8.8-85.7,19.4-128.6,28.3
			c-39.2,8.1-90.7,18.4-130.7,11.4c-1.4-0.2-2.6,2.4-1,2.9c28.7,9.4,65.3,5.8,95.2,4.8c39.5-1.3,80.1-12.1,118.8-19.6
			c46.2-8.9,87.5-18.3,135.2-15.5c43.7,2.6,86.8,12.4,130.4,15.7C625.1,630.2,628.9,622.6,624,621.1z"/>
		<path class="st27" d="M534.6,209.7c-119.8-25.5-239.8-78.8-362.2-40.6c-2,0.6-2.7,4.4,0,3.8c68.3-12.8,128.4-6.6,195.8,8.8
			c54.6,12.5,108.8,30.8,165,33.7C536.5,215.7,538.3,210.5,534.6,209.7z"/>
		<path class="st27" d="M618,94.7c-91.7,66.6-205,32.6-306,17.1c-1.9-0.3-2.9,3-0.8,3.4c97.8,17.3,225.5,64.6,308.6-18.4
			C621,95.4,619.4,93.7,618,94.7z"/>
		<path class="st27" d="M569.8,278.3c-56.4-4.6-112.6-6.6-165.7-28c-49-19.7-94.1-33.3-146.4-38.6c-2.3-0.2-4.3,3.8-1.7,4.7
			c23.9,8.3,47.9,13.7,70.6,25.3c28.9,14.7,59.5,26.9,90,37.9c50.4,18.1,100.7,8.9,152.5,4.7C572.2,284.2,573.4,278.6,569.8,278.3z"
			/>
		<path class="st27" d="M325.1,518.3c-72.5,2.9-149.3,44.6-222,16.8c-2.3-0.9-4.8,2.7-2.8,4.3c24.1,20,54.6,27.1,85.6,22.3
			c20-3.1,40.2-6.3,59.2-13.5c27.2-10.2,48.5-22.7,78.4-23.8C327.1,524.3,329,518.1,325.1,518.3z"/>
		<path class="st27" d="M659.5,521.3c-41-12-84.7-10.1-126.8-8c-1.8,0.1-3,3.3-0.8,3.4c21.3,0.2,41.7,1.6,62.8,5.6
			c19,3.6,43.2,14.9,62.5,9C660.7,530.1,665.1,522.9,659.5,521.3z"/>
	</g>
</g>
<g id="Layer_5" class="st0">
	<g class="st1">
		<g>
			<g>
				<g>
					<path class="st28" d="M133.3,282.2l-6.7,2.5l-6.7-2.5h-10.3l7.1,210.4c0,0,0.1,9.7,2.4,16.7c2.6,1,5.5,1.3,8,1.4
						c2,0,4.4-0.1,6.7-0.6c2.5-6.9,2.6-17.4,2.6-17.4l7.1-210.4H133.3z"/>
					<path class="st29" d="M127.8,511.2c-0.2,0-0.5,0-0.7,0c-2.1,0-5.3-0.3-8.2-1.4c-0.2-0.1-0.3-0.2-0.3-0.4
						c-2.3-6.9-2.4-16.4-2.4-16.8l-7.1-210.4c0-0.2,0.1-0.3,0.2-0.4c0.1-0.1,0.3-0.2,0.4-0.2h10.3c0.1,0,0.1,0,0.2,0l6.5,2.4
						l6.5-2.4c0.1,0,0.1,0,0.2,0h10.3c0.2,0,0.3,0.1,0.4,0.2c0.1,0.1,0.2,0.3,0.2,0.4L137,492.6c0,0.4-0.1,10.6-2.7,17.6
						c-0.1,0.2-0.2,0.3-0.4,0.4C132.2,510.9,130.1,511.2,127.8,511.2z M119.6,508.8c2.7,0.9,5.6,1.2,7.6,1.2
						c2.3,0.1,4.4-0.1,6.2-0.6c2.4-6.8,2.5-16.8,2.5-16.9l7.1-209.8h-9.6l-6.6,2.4c-0.1,0-0.3,0-0.4,0l-6.6-2.4h-9.6l7.1,209.8
						C117.3,492.6,117.4,502,119.6,508.8z"/>
				</g>
				<path class="st30" d="M133.3,282.2l-6.7,2.5l-6.7-2.5h-10.3l1.3,38.3c8.8,1.8,18.1,1.5,26.9,0.3c1.5-0.2,3-0.4,4.4-0.7l1.3-37.8
					H133.3z"/>
				<path class="st30" d="M118,369.2c-0.7-17.4-1.3-34.8-1.4-52.2c0-11.6,0.2-23.2-0.2-34.8h-6.7l7.1,210.4c0,0,0.1,9.7,2.4,16.7
					c1.2,0.4,2.4,0.7,3.6,0.9c-0.4-11.9-0.8-23.8-1.1-35.7C120.6,439.3,119.3,404.2,118,369.2z"/>
				<path class="st30" d="M133.3,282.2l-6.7,2.5l-6.7-2.5h-10.3l0.7,21.9c3.3,2,7,3.5,10,5.9c6,4.6,7.9,11.9,8.1,19.2
					c0.3,8.1,2,83.5,2.2,100.5c0.2,26.9,0.1,53.8,0.2,80.7c1-0.1,1.9-0.2,2.9-0.5c2.5-6.9,2.6-17.4,2.6-17.4l7.1-210.4H133.3z"/>
			</g>
			<g>
				<g>
					<path class="st28" d="M670,280.2l-12.1,4.5l-12.1-4.5h-4.9l7.2,212.4c0,0,0.1,9.7,2.4,16.7c2.6,1,5.5,1.3,8,1.4
						c2,0,4.4-0.1,6.7-0.6c2.5-6.9,2.6-17.4,2.6-17.4l7.2-212.4H670z"/>
					<path class="st29" d="M659.2,511.2c-0.2,0-0.5,0-0.7,0c-2.1,0-5.3-0.3-8.2-1.4c-0.2-0.1-0.3-0.2-0.3-0.4
						c-2.3-6.9-2.4-16.4-2.4-16.8l-7.2-212.4c0-0.2,0.1-0.3,0.2-0.4c0.1-0.1,0.3-0.2,0.4-0.2h4.9c0.1,0,0.1,0,0.2,0l11.9,4.4
						l11.9-4.4c0.1,0,0.1,0,0.2,0h4.9c0.2,0,0.3,0.1,0.4,0.2c0.1,0.1,0.2,0.3,0.2,0.4l-7.2,212.4c0,0.4-0.1,10.6-2.7,17.6
						c-0.1,0.2-0.2,0.3-0.4,0.4C663.5,510.9,661.4,511.2,659.2,511.2z M650.9,508.8c2.7,0.9,5.6,1.2,7.6,1.2
						c2.3,0.1,4.4-0.1,6.2-0.6c2.4-6.8,2.5-16.8,2.5-16.9l7.1-211.8h-4.2l-12,4.4c-0.1,0-0.3,0-0.4,0l-12-4.4h-4.2l7.1,211.8
						C648.6,492.6,648.8,502,650.9,508.8z"/>
				</g>
				<path class="st30" d="M670,280.2l-12.1,4.5l-12.1-4.5h-4.9l1.4,40.3c8.8,1.8,18.1,1.5,26.9,0.3c1.5-0.2,3-0.4,4.4-0.7l1.3-39.9
					H670z"/>
				<path class="st30" d="M649.3,369.2c-0.7-17.4-1.3-34.8-1.4-52.2c0-12.1,0.2-24.1-0.3-36.2l-1.9-0.7h-4.9l7.2,212.4
					c0,0,0.1,9.7,2.4,16.7c1.2,0.4,2.4,0.7,3.6,0.9c-0.4-11.9-0.8-23.8-1.1-35.7C651.9,439.3,650.6,404.2,649.3,369.2z"/>
				<path class="st30" d="M670,280.2l-12.1,4.5l-12.1-4.5h-4.9l0.8,23.9c3.3,2,7,3.5,10,5.9c6,4.6,7.9,11.9,8.1,19.2
					c0.3,8.1,2,83.5,2.2,100.5c0.2,26.9,0.1,53.8,0.2,80.7c1-0.1,1.9-0.2,2.9-0.5c2.5-6.9,2.6-17.4,2.6-17.4l7.2-212.4H670z"/>
			</g>
		</g>
		<g>
			<g>
				<g>
					<path class="st28" d="M97.9,565.5c2.6,1,5.5,1.3,8,1.4c2,0,4.4-0.1,6.7-0.6c2.5-6.9,2.6-17.4,2.6-17.4l7.2-214.2l-17.1,6.3
						l-17.1-6.3l7.2,214.2C95.5,548.8,95.6,558.6,97.9,565.5z"/>
					<path class="st29" d="M106.6,567.4c-0.2,0-0.5,0-0.7,0c-2.1,0-5.3-0.3-8.2-1.4c-0.2-0.1-0.3-0.2-0.3-0.4
						c-2.3-6.9-2.4-16.4-2.4-16.8l-7.2-214.2c0-0.2,0.1-0.4,0.2-0.5c0.2-0.1,0.4-0.1,0.5-0.1l16.9,6.2l16.9-6.2
						c0.2-0.1,0.4,0,0.5,0.1c0.2,0.1,0.2,0.3,0.2,0.5l-7.2,214.2c0,0.4-0.1,10.6-2.7,17.6c-0.1,0.2-0.2,0.3-0.4,0.4
						C110.9,567.2,108.8,567.4,106.6,567.4z M98.3,565c2.7,0.9,5.6,1.2,7.6,1.2c2.3,0,4.4-0.1,6.2-0.6c2.4-6.8,2.5-16.8,2.5-16.9
						l7.2-213.4l-16.3,6c-0.1,0-0.3,0-0.4,0l-16.3-6l7.2,213.4C96.1,548.9,96.2,558.3,98.3,565z"/>
				</g>
				<path class="st30" d="M116.6,377c1.5-0.2,3-0.4,4.4-0.7l1.4-41.7l-17.1,6.3l-17.1-6.3l1.4,42.1
					C98.5,378.6,107.8,378.2,116.6,377z"/>
				<path class="st30" d="M100.4,530.7c-1-35.1-2.3-70.2-3.7-105.3c-0.7-17.4-1.3-34.8-1.4-52.2c0-12.1,0.2-24.1-0.3-36.2l-6.8-2.5
					l7.2,214.2c0,0,0.1,9.7,2.4,16.7c1.2,0.4,2.4,0.7,3.6,0.9C101.1,554.5,100.7,542.6,100.4,530.7z"/>
				<path class="st30" d="M105.3,340.9l-17.1-6.3l0.9,25.8c3.3,2,7,3.5,10,5.9c6,4.6,7.9,11.9,8.1,19.2c0.3,8.1,2,83.5,2.2,100.5
					c0.2,26.9,0.1,53.8,0.2,80.7c1-0.1,1.9-0.2,2.9-0.5c2.5-6.9,2.6-17.4,2.6-17.4l7.2-214.2L105.3,340.9z"/>
			</g>
			<g>
				<g>
					<path class="st28" d="M671.7,565.5c2.6,1,5.5,1.3,8,1.4c2,0,4.4-0.1,6.7-0.6c2.5-6.9,2.6-17.4,2.6-17.4l7.2-214.2l-17.1,6.3
						l-17.1-6.3l7.2,214.2C669.3,548.8,669.4,558.6,671.7,565.5z"/>
					<path class="st29" d="M680.4,567.4c-0.2,0-0.5,0-0.7,0c-2.1,0-5.3-0.3-8.2-1.4c-0.2-0.1-0.3-0.2-0.3-0.4
						c-2.3-6.9-2.4-16.4-2.4-16.8l-7.2-214.2c0-0.2,0.1-0.4,0.2-0.5c0.2-0.1,0.4-0.1,0.5-0.1l16.9,6.2l16.9-6.2
						c0.2-0.1,0.4,0,0.5,0.1c0.2,0.1,0.2,0.3,0.2,0.5l-7.2,214.2c0,0.4-0.1,10.6-2.7,17.6c-0.1,0.2-0.2,0.3-0.4,0.4
						C684.7,567.2,682.6,567.4,680.4,567.4z M672.1,565c2.7,0.9,5.6,1.2,7.6,1.2c2.3,0,4.4-0.1,6.2-0.6c2.4-6.8,2.5-16.8,2.5-16.9
						l7.2-213.4l-16.3,6c-0.1,0-0.3,0-0.4,0l-16.3-6l7.2,213.4C669.9,548.9,670,558.3,672.1,565z"/>
				</g>
				<path class="st30" d="M690.4,377c1.5-0.2,3-0.4,4.4-0.7l1.4-41.7l-17.1,6.3l-17.1-6.3l1.4,42.1
					C672.3,378.6,681.6,378.2,690.4,377z"/>
				<path class="st30" d="M674.2,530.7c-1-35.1-2.3-70.2-3.7-105.3c-0.7-17.4-1.3-34.8-1.4-52.2c0-12.1,0.2-24.1-0.3-36.2l-6.8-2.5
					l7.2,214.2c0,0,0.1,9.7,2.4,16.7c1.2,0.4,2.4,0.7,3.6,0.9C674.9,554.5,674.5,542.6,674.2,530.7z"/>
				<path class="st30" d="M679.1,340.9l-17.1-6.3l0.9,25.8c3.3,2,7,3.5,10,5.9c6,4.6,7.9,11.9,8.1,19.2c0.3,8.1,2,83.5,2.2,100.5
					c0.2,26.9,0.1,53.8,0.2,80.7c1-0.1,1.9-0.2,2.9-0.5c2.5-6.9,2.6-17.4,2.6-17.4l7.2-214.2L679.1,340.9z"/>
			</g>
		</g>
		<g>
			<g>
				<g>
					<path class="st28" d="M780.8,331.4c0.1-0.5,0.1-0.9,0.1-1.4c0-0.5,0-0.9-0.1-1.4v-12.5h-14c-45.6-21.8-196-37.8-374.5-37.8
						c-178.5,0-328.9,16-374.5,37.8H3.6V330c0,28.6,174,51.7,388.6,51.7C603.4,381.8,775.2,359.3,780.8,331.4L780.8,331.4
						L780.8,331.4z"/>
					<path class="st29" d="M392.2,382.3c-103.8,0-201.5-5.4-274.9-15.2C74.7,361.5,3,349.1,3,330v-13.9c0-0.3,0.3-0.6,0.6-0.6h14
						c46.7-22.3,200.7-37.8,374.6-37.8c173.9,0,327.9,15.6,374.6,37.8h13.9c0.3,0,0.6,0.3,0.6,0.6v12.5c0.1,0.4,0.1,0.9,0.1,1.4
						c0,0.5,0,1-0.1,1.4c0,0,0,0.1,0,0.1C775.4,360,604.6,382.3,392.2,382.3z M4.2,316.7V330c0,13.3,41.3,26.4,113.3,36
						c73.4,9.8,171,15.1,274.7,15.1c208.5,0,382.5-22.4,387.9-49.9c0,0,0,0,0,0c0.1-0.4,0.1-0.8,0.1-1.2c0-0.4,0-0.8-0.1-1.3l0-12
						h-13.5c-0.1,0-0.2,0-0.2-0.1c-46.5-22.2-200.3-37.8-374.2-37.8c-173.9,0-327.8,15.5-374.2,37.8c-0.1,0-0.2,0.1-0.2,0.1H4.2z
						 M780.8,331.4L780.8,331.4L780.8,331.4z"/>
				</g>
				<path class="st31" d="M124.5,292.6c-50.2,6.4-87.7,14.5-106.8,23.6H3.6V330c0,14.8,46.4,28.1,120.9,37.5V292.6z"/>
				<path class="st31" d="M780.8,328.7v-12.5h-14c-26.1-12.5-86.4-23.1-166.6-29.8v87.4c105.9-8.9,177.1-24.5,180.7-42.3l0,0v0
					c0.1-0.5,0.1-0.9,0.1-1.4C780.9,329.6,780.8,329.1,780.8,328.7z"/>
				<g>
					<ellipse class="st30" cx="392.2" cy="315.6" rx="388.6" ry="51.7"/>
					<path class="st29" d="M392.2,367.9c-103.8,0-201.5-5.4-274.9-15.2C74.7,347.1,3,334.7,3,315.6c0-19.1,71.6-31.5,114.3-37.1
						c73.4-9.8,171.1-15.2,274.9-15.2c103.8,0,201.5,5.4,274.9,15.2c42.7,5.7,114.3,18.1,114.3,37.1c0,19.1-71.6,31.5-114.3,37.1
						C593.7,362.6,496.1,367.9,392.2,367.9z M392.2,264.5c-103.8,0-201.4,5.4-274.7,15.1c-72,9.6-113.3,22.7-113.3,36
						s41.3,26.4,113.3,36c73.4,9.8,171,15.1,274.7,15.1c103.8,0,201.4-5.4,274.7-15.1c72-9.6,113.3-22.7,113.3-36
						s-41.3-26.4-113.3-36C593.6,269.9,496,264.5,392.2,264.5z"/>
				</g>
				<g>
					<ellipse class="st28" cx="392.2" cy="315.6" rx="388.6" ry="51.7"/>
					<path class="st29" d="M392.2,367.9c-103.8,0-201.5-5.4-274.9-15.2C74.7,347.1,3,334.7,3,315.6c0-19.1,71.6-31.5,114.3-37.1
						c73.4-9.8,171.1-15.2,274.9-15.2c103.8,0,201.5,5.4,274.9,15.2c42.7,5.7,114.3,18.1,114.3,37.1c0,19.1-71.6,31.5-114.3,37.1
						C593.7,362.6,496.1,367.9,392.2,367.9z M392.2,264.5c-103.8,0-201.4,5.4-274.7,15.1c-72,9.6-113.3,22.7-113.3,36
						s41.3,26.4,113.3,36c73.4,9.8,171,15.1,274.7,15.1c103.8,0,201.4-5.4,274.7-15.1c72-9.6,113.3-22.7,113.3-36
						s-41.3-26.4-113.3-36C593.6,269.9,496,264.5,392.2,264.5z"/>
				</g>
			</g>
			<g>
				<path class="st30" d="M392.2,362.7c-208.7,0-379-21.9-388.2-49.4c-0.3,0.8-0.4,1.6-0.4,2.4c0,28.6,174,51.7,388.6,51.7
					s388.6-23.2,388.6-51.7c0-0.8-0.2-1.6-0.4-2.4C771.2,340.8,601,362.7,392.2,362.7z"/>
			</g>
		</g>
	</g>
</g>
<g id="Layer_6" class="st0">
	
		<image style="display:inline;overflow:visible;" width="1600" height="2436" xlink:href="AB1C1102.jpg"  transform="matrix(1.9484 0 0 1.9484 -826.9062 -2277.2036)">
	</image>
</g>
<g id="Layer_8">
</g>
<g id="Layer_7">
	<g>
		<g>
			<circle class="st32" cx="402.4" cy="400.1" r="385.6"/>
		</g>
		<g>
			<path d="M400,793c-53.1,0-104.5-10.4-153-30.9c-46.8-19.8-88.8-48.1-124.9-84.2C86,641.8,57.6,599.8,37.9,553
				C17.4,504.5,7,453.1,7,400c0-53.1,10.4-104.5,30.9-153c19.8-46.8,48.1-88.8,84.2-124.9C158.2,86,200.2,57.6,247,37.9
				C295.5,17.4,346.9,7,400,7c53.1,0,104.5,10.4,153,30.9c46.8,19.8,88.8,48.1,124.9,84.2c36.1,36.1,64.4,78.1,84.2,124.9
				c20.5,48.5,30.9,99.9,30.9,153c0,53.1-10.4,104.5-30.9,153c-19.8,46.8-48.1,88.8-84.2,124.9c-36.1,36.1-78.1,64.4-124.9,84.2
				C504.5,782.6,453.1,793,400,793z M400,21.7C191.4,21.7,21.7,191.4,21.7,400c0,208.6,169.7,378.3,378.3,378.3
				c208.6,0,378.3-169.7,378.3-378.3C778.3,191.4,608.6,21.7,400,21.7z"/>
		</g>
		<g>
			<rect x="393.9" y="14.3" width="14.7" height="771.3"/>
		</g>
		<g>
			<rect x="14.3" y="392.6" width="771.3" height="14.7"/>
		</g>
		<g>
			<path d="M135.2,683.8l-6.6-13.2c104.5-52.3,169.5-157.3,169.5-274.1c0-114.6-63.2-218.7-164.9-271.7l6.8-13.1
				c51.2,26.7,94.4,66.8,124.9,116c31.3,50.6,47.9,108.9,47.9,168.8c0,60.8-17.1,119.9-49.3,171
				C232.1,617.4,187.7,657.5,135.2,683.8z"/>
		</g>
		<g>
			<path d="M666,682.6c-51.9-26.5-95.7-66.6-126.6-116.1c-31.8-50.9-48.6-109.6-48.6-169.9c0-119,65.3-227.6,170.5-283.6l6.9,13
				c-100.3,53.4-162.7,157-162.7,270.5c0,115.7,64.1,220.3,167.2,272.9L666,682.6z"/>
		</g>
	</g>
</g>
</svg>
