<?xml version="1.0" encoding="utf-8"?>
<!-- Generator: Adobe Illustrator 26.3.0, SVG Export Plug-In . SVG Version: 6.00 Build 0)  -->
<svg version="1.1" xmlns="http://www.w3.org/2000/svg" xmlns:xlink="http://www.w3.org/1999/xlink" x="0px" y="0px"
	 viewBox="0 0 800 182" style="enable-background:new 0 0 800 182;" xml:space="preserve">
<style type="text/css">
	.st0{fill:url(#SVGID_1_);}
	.st1{clip-path:url(#SVGID_00000052106262565523865000000006228458769586969786_);}
	.st2{opacity:0.2;}
	.st3{fill:#6B3710;}
	.st4{fill:url(#SVGID_00000143590732266470758670000013339517837172142477_);}
	.st5{opacity:0.5;fill:#C4580E;}
	.st6{fill:url(#SVGID_00000039836999248484308490000001987475646620797871_);}
	.st7{fill:url(#SVGID_00000091720196020418311690000013121004391271743893_);}
	.st8{fill:url(#SVGID_00000068647911132154230580000009161351635584790454_);}
	.st9{fill:#F2D9C7;stroke:#9B450B;stroke-width:3;stroke-linecap:round;stroke-linejoin:round;stroke-miterlimit:10;}
</style>
<g id="Layer_2">
</g>
<g id="Layer_3">
</g>
<g id="Layer_1">
</g>
<g id="Layer_4">
	<g>
		<linearGradient id="SVGID_1_" gradientUnits="userSpaceOnUse" x1="400.6875" y1="162.5" x2="400.6875" y2="25.25">
			<stop  offset="0" style="stop-color:#A66017"/>
			<stop  offset="1" style="stop-color:#F7A537"/>
		</linearGradient>
		<path class="st0" d="M747,162.5H54.4c-6.6,0-12-5.4-12-12V37.2c0-6.6,5.4-12,12-12H747c6.6,0,12,5.4,12,12v113.2
			C759,157.1,753.6,162.5,747,162.5z"/>
		<g>
			<defs>
				<ellipse id="SVGID_00000134232703754229523090000006640227857129215880_" cx="409.2" cy="100" rx="441.3" ry="128.2"/>
			</defs>
			<clipPath id="SVGID_00000047032812126978310970000004496966957918629789_">
				<use xlink:href="#SVGID_00000134232703754229523090000006640227857129215880_"  style="overflow:visible;"/>
			</clipPath>
			<g style="clip-path:url(#SVGID_00000047032812126978310970000004496966957918629789_);">
				<g class="st2">
					<path class="st3" d="M-128.6,215.2V197C-157.3,199.8-153.5,212-128.6,215.2z"/>
					<path class="st3" d="M-350.7,89c7.5,0.2,14.9,0.3,22.4,0.4c-3.5,0.4-7,0.9-10.4,1.3c-23.8,3.2-20,13.4,0,16.9
						c40.9,7.2,89.5,8.4,136.3,8.5c36.7,0,73.2-0.5,109.8-0.7V64.9c-25.5,0.3-51,0.5-76.4,0.4c-64.1-0.3-128.4-0.8-190.6,4.4
						C-397.6,72.9-387.9,88.2-350.7,89z"/>
					<path class="st3" d="M-249.7,149c52.4,1.2,104.7,1.5,157.1,1.4v-28.8c-55.7,2.1-111.3,4.7-166.5,8.2
						C-298.4,132.2-285.7,148.2-249.7,149z"/>
					<path class="st3" d="M761.5,81.2V49.4c-106.8,2.8-213.6,5.5-320.5,7.8C307.7,60.1,173.7,61,40.1,62.8v53.1
						c23.2,0.1,46.4,0.1,69.6,0.1c-23.2,0.5-46.4,0.9-69.6,1.5V157c2,0.5,3.8,1.6,5.4,3c0.7,0.6,1.3,1.2,1.9,1.8
						c0.3,0.3,0.6,0.6,0.9,0.9c0.2,0.2,1.2,1,0.3,0.3c1,0.8,1.8,1.7,2.2,2.8h695.7c1.2-0.5,2.6-0.6,3.8-0.1c3.2-2.1,6.6-3.9,9.5-6.4
						c0.5-0.4,1.1-0.7,1.7-0.9v-3.9c-15.2,0-30.3,0-45.5,0.1c-44.9,0.1-89.7,0.4-134.6,0.7c60-1,120-1.8,180.1-2.8V92.9
						c-115.3,0.4-230.6,1.1-345.8,2.2c-123.1,1.1-246.3,1.7-369.5,1.3c105.1-2.8,208.4-5,314.2-7.5C494.2,85.6,628,82.9,761.5,81.2z
						"/>
					<path class="st3" d="M-92.6,151.8c-50.9,1.4-101.8,2.8-152.9,3c-58.7,0.2-118.8,0.4-175,6c-31,3-33.3,16.1,0,18.9
						c52.2,4.3,106.2,4.3,160,3.8c44-0.4,88-0.5,132-0.7v-16.9h36V151.8z"/>
					<path class="st3" d="M-128.6,216.1c-22.8,0.7-45.6,1.4-68.3,2.2c-0.1,0-0.2,0-0.4,0c-0.6,0-1.3,0-1.9,0v0.1
						c-39.1,2.1-41.5,18.5,0,19.4v0c0.2,0,0.5,0,0.7,0c0.5,0,1,0,1.6,0c22.7,0.2,45.5,0.1,68.3-0.1V216.1z"/>
					<path class="st3" d="M1120.8,211.7c-36.6-1.8-73.5-3.3-110.5-4.4c16-1.3,31.5-3.1,45.9-5.6c25.6-4.6,19.6-15.2-8-17.9
						c-37.9-3.7-77.9-3.9-117.5-3.6c-3,0-6.1,0-9.1,0c40.6-0.7,81.2-1.7,120.8-4.5c33-2.4,31.4-16.3,0-18.9
						c-47.8-3.9-97.4-3.4-146.5-2.7c-0.6,0-1.3,0-1.9,0v70.2c69.9,1.1,139.7,3,208.8,6.4C1145.3,232.7,1163.6,213.8,1120.8,211.7z"
						/>
					<path class="st3" d="M-119.6,23V-1.5c-3,0-5.9,0-8.9,0c-63.1,0.1-126.7,1.3-187.8,6.3c-25.8,2.1-35.9,14.3-8,17.9
						c47.8,6.2,98.6,7.8,150.4,8.5c27.1,0.4,54.2,0.9,81.2,1.4V23H-119.6z"/>
					<path class="st3" d="M757.6,26.4C666.7,25,575.7,24,484.8,23H40.1v12.5c127,2.9,254.3,4.9,381.6,6.4
						C535,43.2,648.3,44.4,761.5,46V30.5C760.1,29.2,758.7,27.8,757.6,26.4z"/>
					<path class="st3" d="M1239.7-19.2c-103.9-11.3-224.3-7.7-333.2-9.6c-23.3-0.4-46.6-0.8-69.9-1.1v16H894V9.4
						c56-1.3,111.6-2.6,167.9-2.8c59.9-0.3,120.8-1.2,177.9-6.9C1272.4-3.6,1271.1-15.8,1239.7-19.2z"/>
					<path class="st3" d="M-119.6-50.3c-33.1-0.3-66.3-0.1-97.9,2.1c-42.3,2.9-24.3,21.8,17.9,18.9c25.2-1.7,52.5-2,79.9-1.7V-50.3z
						"/>
					<path class="st3" d="M1193.3,93.8c-55.7-3.8-112.4-2.9-169-1.9c-43.3,0.7-86.8,0.8-130.3,0.8v57.7
						c85.1-1.6,170.2-3.5,254.9-6.3c35.1-1.2,49.3-16.6,9.2-19.2c-43.3-2.8-87.1-4.6-131.1-5.7c55.6-1.6,111-3.6,166.2-6.4
						C1226.7,111,1224.5,95.9,1193.3,93.8z"/>
					<path class="st3" d="M1228.1,36.8c-57.3-4.4-116.7-4.8-175.7-5.3C999.6,31,946.8,29.7,894,28.6v51.2c14.5-0.1,29-0.2,43.5-0.3
						c50.4-0.1,100.7-0.3,151.1-0.5c33.5-0.1,41.2-11.7,23-17c42.7-0.6,84.6-2.3,124.5-7.3C1264,51.2,1254,38.8,1228.1,36.8z"/>
				</g>
				<g class="st2">
					<path class="st3" d="M894,10.2c23.9,1,47.9,2.1,72.2,3.2l21.8,1c20.3,1.1,42.2,1.9,65.5,2.6c30.7,1,62.1,2.1,90.7,4.1
						c-43.6,1.4-90.5,1-136.2,0.6c-30.3-0.3-61.6-0.6-90.6-0.3c-7.8,0-15.6,0.1-23.4,0.1V28c8,0,16-0.1,23.9-0.1
						c28.5-0.3,58,0,89.3,0.3c62.9,0.6,127.9,1.2,185.7-2.9c4.7-0.3,8.1-1.5,8.5-2.9c0.4-1.4-2.2-2.7-6.6-3.3
						c-40.7-5.3-90.6-7-138.9-8.6c-22.8-0.8-44.4-1.5-64.3-2.6l-22.2-1C944.1,5.8,919,4.7,894,3.7V10.2z"/>
					<path class="st3" d="M1158.6,110.4c4.4-0.4,7.6-1.5,8-2.8c0.4-1.3-2-2.6-6.2-3.2c-68.5-9.9-162.2-12.3-244.9-14.3
						c-7.3-0.2-14.5-0.4-21.6-0.5V96c6.5,0.2,13,0.3,19.7,0.5c68.2,1.7,144,3.6,204.8,9.8c-44.9,2.1-94.8,1.7-140,1.3
						c-17.3-0.1-33.6-0.3-49.3-0.3c-11.8,0-23.5,0-35.1,0v6.5c11.7,0,23.4,0,35.1,0c15.5,0,31.6,0.1,48.7,0.3
						C1036.5,114.6,1102.9,115.1,1158.6,110.4z"/>
					<path class="st3" d="M980.5,144.2c-1.2-1.1-4.3-1.9-8.1-2.2c-25.6-1.8-51.9-2.7-78.4-3.3v6.6c15,0.3,29.9,0.8,44.5,1.4
						c-12.5,1.2-28.1,2.1-44.5,2.7v6.6c35.9-1.3,68.5-3.7,84.1-8.6C980.8,146.5,981.7,145.3,980.5,144.2z"/>
					<path class="st3" d="M931.7,187.3c-0.1-0.9-1.5-1.8-4-2.4c-8.8-2.1-20.4-3.6-33.6-4.5v6.7c1.7,0.1,3.4,0.3,5,0.5
						c-1.6,0.2-3.3,0.4-5,0.6v6.9c13-1.3,24.8-3,34-5.4C930.4,189.1,931.7,188.2,931.7,187.3z"/>
					<path class="st3" d="M-92.6,68.1c-98.9-1.5-198.1-4.2-293.2-10.4c-45.9-3-50-5.1-50.3-5.5c0,0,0.4-2,24.6-6.2
						c58.3-10,142.6-12,210.4-13.6l11.3-0.3c32.2-0.9,64.7-1.4,97.3-1.8v-6.5c-33.2,0.4-66.4,1-99.3,1.8l-11.1,0.3
						c-70.1,1.7-157.3,3.7-220,14.5c-18,3.1-38.3,7.4-35.3,12.8c3.1,5.6,28.2,8.3,67.6,10.8c97.1,6.4,197.8,9.1,298.1,10.6V68.1z"/>
					<path class="st3" d="M755.5,23H591.1c-102.5,0.5-206.4,0.9-309.1,0.9c-42.6,0-86.1-0.2-128.3-0.4c-37.5-0.2-75.5-0.3-113.6-0.4
						v6.5c38,0,75.9,0.2,113.3,0.4c42.2,0.2,85.9,0.4,128.6,0.4c141.3,0,285-0.8,423.9-1.5c17.8-0.1,35.7-0.2,53.7-0.3
						C757.9,26.9,756.5,25.1,755.5,23z"/>
					<path class="st3" d="M48.4,69.8c-2.8,0-5.5-0.1-8.3-0.1v6.5c2.5,0,5,0,7.5,0.1c38.8,0.4,78.9,0.8,117.7,1.3
						c220.9,3.3,410.4,7,596.1,13.8v-6.6c-185.3-6.7-374.6-10.4-595-13.7C127.4,70.6,87.3,70.2,48.4,69.8z"/>
					<path class="st3" d="M1334.8,199.3c-1.3-1.8-7.2-2.9-13.3-2.5c-44.8,2.7-92.3,2.6-138.3,2.5c-9.3,0-18.6,0-27.7,0
						c-87.7,0-174.3,0.3-261.5,0.9v6.5c87.2-0.6,173.8-0.9,261.5-0.9c9.1,0,18.3,0,27.5,0c47.2,0.1,95.9,0.2,143.1-2.6
						C1332.2,202.8,1336.1,201.1,1334.8,199.3z"/>
					<path class="st3" d="M-92.6,136.1c-61.5-0.3-123.1-1.1-184.2-2.6c-11.4-0.3-24.4-0.6-38.1-0.8c-45-0.8-99.6-1.9-135.5-7.4
						c49.2-6.3,125.7-6.2,188.5-6.2c19.6,0,38.1,0,54.2-0.2c38.2-0.6,76.6-1.1,115.1-1.5v-6.5c-38.8,0.4-77.6,0.9-116.2,1.5
						c-15.4,0.2-33.7,0.2-53.1,0.1c-73-0.1-163.7-0.1-216.6,9.6c-3,0.6-5,1.5-5.2,2.6c-0.2,1,1.3,2.1,4.1,2.7
						c39.8,9.4,108.2,10.7,163.2,11.7c13.5,0.3,26.2,0.5,37.4,0.8c61.9,1.5,124.2,2.3,186.3,2.6V136.1z"/>
					<path class="st3" d="M421.2,108.2c-42,0.2-83.9,0.3-125.6,0.4c-84.1,0.3-169.6,0.5-255.4,1.1v6.5c85.9-0.6,171.5-0.8,255.7-1.1
						c41.8-0.1,83.7-0.3,125.7-0.4c113.5-0.6,225.5-0.8,340-0.8v-6.5C646.9,107.4,534.8,107.6,421.2,108.2z"/>
					<path class="st3" d="M336.6,135.9c-33.8,0-67.5,0.1-101,0.1c-38.1,0-76.8,0.1-114.2,0.2c-26.9,0.1-54,0.1-81.3,0.1v6.5
						c27.3,0,54.5-0.1,81.4-0.1c37.4-0.1,76.1-0.2,114.1-0.2c33.6,0,67.3,0,101.1-0.1c133.6-0.1,271.7-0.3,406.3,1.8
						c6.1,0.1,12.3,0.1,18.5,0.2v-6.5c-5.9,0-11.7-0.1-17.5-0.2C609,135.7,470.5,135.8,336.6,135.9z"/>
					<path class="st3" d="M-128.6,189.1c-30.5,0.1-61,0.2-91.3,0c-9.3,0-20.2,0.1-31.8,0.2c-53.7,0.4-132.4,1-175.1-6.2
						c31.2-4.8,87.5-4.9,130.1-5c14.3,0,26.6-0.1,37.1-0.2c43.5-1,87.3-1.9,131.1-2.8v-6.5c-44.4,0.9-88.7,1.8-132.7,2.8
						c-9.6,0.2-21.7,0.2-35.7,0.2c-52.4,0.1-124.1,0.3-157,9.1c-2.3,0.6-3.7,1.5-3.6,2.4c0,0.9,1.4,1.8,3.8,2.4
						c44.9,11.5,136,10.8,202.6,10.3c11.4-0.1,22.2-0.2,31-0.2c30.4,0.2,61,0.1,91.5,0V189.1z"/>
					<path class="st3" d="M281.3,161.3c-58.4,1.1-117.5,2.1-174.6,3.1c-18.6,0.3-37.4,0.6-56.2,1c0.1,0.2,0.2,0.4,0.2,0.5h352.6
						c119.4-2,239.2-4.4,356.7-6.8c0.4-0.3,0.9-0.5,1.4-0.7v-5.9C603.8,155.7,441.3,158.9,281.3,161.3z"/>
				</g>
			</g>
		</g>
		
			<linearGradient id="SVGID_00000123402720721614791540000011178705689686856877_" gradientUnits="userSpaceOnUse" x1="401.25" y1="167.5" x2="401.25" y2="20.25">
			<stop  offset="0" style="stop-color:#462B10"/>
			<stop  offset="1" style="stop-color:#6B3710"/>
		</linearGradient>
		<path style="fill:url(#SVGID_00000123402720721614791540000011178705689686856877_);" d="M747,25.2c6.6,0,12,5.4,12,12v113.2
			c0,6.6-5.4,12-12,12H55.5c-6.6,0-12-5.4-12-12V37.2c0-6.6,5.4-12,12-12H747 M747,20.2H55.5c-9.4,0-17,7.6-17,17v113.2
			c0,9.4,7.6,17,17,17H747c9.4,0,17-7.6,17-17V37.2C764,27.9,756.4,20.2,747,20.2L747,20.2z"/>
		<path class="st5" d="M752,37.5v98c0,0,4.5,22-22.5,21.5H348.4l379.5-5.4c0,0,12.8-0.4,15.4-18.8S752,37.5,752,37.5z"/>
		
			<linearGradient id="SVGID_00000100365681189088143810000010239033941580436371_" gradientUnits="userSpaceOnUse" x1="400.6793" y1="147.875" x2="400.6793" y2="39.1782">
			<stop  offset="0" style="stop-color:#6B3710"/>
			<stop  offset="1" style="stop-color:#8E501C"/>
		</linearGradient>
		<path style="fill:url(#SVGID_00000100365681189088143810000010239033941580436371_);" d="M74.6,147.9h652.1c6.6,0,12-5.4,12-12
			V51.2c0-6.6-5.4-12-12-12H74.6c-6.6,0-12,5.4-12,12v84.7C62.6,142.5,68,147.9,74.6,147.9z"/>
		
			<linearGradient id="SVGID_00000042721884915750077230000006933985049414504323_" gradientUnits="userSpaceOnUse" x1="400.125" y1="141.125" x2="400.125" y2="45.5">
			<stop  offset="0" style="stop-color:#CE6F1B"/>
			<stop  offset="1" style="stop-color:#F4C206"/>
		</linearGradient>
		<path style="fill:url(#SVGID_00000042721884915750077230000006933985049414504323_);" d="M718.9,141.1H81.4c-6.6,0-12-5.4-12-12
			V57.5c0-6.6,5.4-12,12-12h637.5c6.6,0,12,5.4,12,12v71.6C730.9,135.7,725.5,141.1,718.9,141.1z"/>
		
			<linearGradient id="SVGID_00000095317396598940888230000005282974611281285771_" gradientUnits="userSpaceOnUse" x1="400.875" y1="131.75" x2="400.875" y2="52.25">
			<stop  offset="0" style="stop-color:#FFD800;stop-opacity:0"/>
			<stop  offset="0.1441" style="stop-color:#FFD809;stop-opacity:0.1441"/>
			<stop  offset="0.3788" style="stop-color:#FFD821;stop-opacity:0.3788"/>
			<stop  offset="0.6747" style="stop-color:#FFD849;stop-opacity:0.6747"/>
			<stop  offset="1" style="stop-color:#FFD87C"/>
		</linearGradient>
		<path style="fill:url(#SVGID_00000095317396598940888230000005282974611281285771_);" d="M712.5,131.8H89.2c-6.6,0-12-5.4-12-12
			V64.2c0-6.6,5.4-12,12-12h623.2c6.6,0,12,5.4,12,12v55.5C724.5,126.3,719.1,131.8,712.5,131.8z"/>
		<g>
			<path class="st9" d="M222.9,116.8c-3.8,0.8-7.7,1.6-11.5,2.5c-4.2,0.8-8.1,1.2-11.7,1.2c-3,0-6-0.2-9-0.6
				c-0.6-11-1.6-27.5-3-49.4c2.7,0,13-0.5,31-1.4l0.6,11.5l-19.3,0.9l0.5,9l18.9-1.6l0.9,11.5l-19.2,1.6l0.4,6.2h1.3
				c3.4,0,9.4-0.9,18.1-2.9L222.9,116.8z"/>
			<path class="st9" d="M274,112.8l-9.3,6.5L249.9,99L234,119.5l-9-7.1l17.9-23.3l-13.4-18.7l9.4-6.6l11.5,15.8l10.3-13.6l9.2,7.2
				l-12.6,16.1L274,112.8z"/>
			<path class="st9" d="M314.5,116.8c-3.8,0.8-7.7,1.6-11.5,2.5c-4.2,0.8-8.1,1.2-11.7,1.2c-3,0-6-0.2-9-0.6
				c-0.6-11-1.6-27.5-3-49.4c2.7,0,13-0.5,31-1.4l0.6,11.5l-19.3,0.9l0.5,9l18.9-1.6l0.9,11.5l-19.2,1.6l0.4,6.2h1.3
				c3.4,0,9.4-0.9,18.1-2.9L314.5,116.8z"/>
			<path class="st9" d="M368,108.6l-2.9,11.1l-28.3-7.3l0.8,7.9l-11.5,1.1l-4.5-50.5c7.4-0.7,12.9-1.1,16.4-1.1
				c17.9,0,26.9,6.1,26.9,18.3c0,6.4-4.4,11.8-13.2,16.2L368,108.6z M353.3,88c0-4.5-4.5-6.8-13.6-6.8c-1.4,0-3.2,0.1-5.7,0.2
				l1.5,17.1C347.4,94.4,353.3,90.9,353.3,88z"/>
			<path class="st9" d="M421.6,113.6c-8.7,2.9-16.2,4.4-22.5,4.4c-9.6,0-16.7-3.3-21.4-10c-3.5-5.1-5.2-10.6-5.2-16.5
				c0-6.8,2.5-12.7,7.6-17.5c5.1-4.8,11-7.2,17.9-7.2c6.8,0,13.2,3,19.1,9.1l-8.2,7.9c-3.6-3.7-7.3-5.5-11.3-5.5
				c-3.6,0-6.8,1.3-9.6,3.9c-2.8,2.6-4.2,5.7-4.2,9.3c0,0.8,0.1,1.6,0.3,2.4c1.9,8.5,7,12.8,15.4,12.8c4.5,0,10.6-1.3,18.4-4
				L421.6,113.6z"/>
			<path class="st9" d="M461.4,117.3L433,120l-1.1-11.4l6.6-0.7c-0.2-3.4-0.5-7.9-1.1-13.6c-0.7-6.7-1.1-11.2-1.2-13.6l-9.4,0.8
				l-0.8-11.5l31.4-2.7l0.9,11.5l-10.6,1c0.3,5,0.6,9.2,0.8,12.6c0.4,3.2,0.9,8,1.4,14.3l10.2-1L461.4,117.3z"/>
			<path class="st9" d="M514.9,113.6c-8.7,2.9-16.2,4.4-22.5,4.4c-9.6,0-16.7-3.3-21.4-10c-3.5-5.1-5.2-10.6-5.2-16.5
				c0-6.8,2.5-12.7,7.6-17.5c5.1-4.8,11-7.2,17.9-7.2c6.8,0,13.2,3,19.1,9.1l-8.2,7.9c-3.6-3.7-7.3-5.5-11.3-5.5
				c-3.6,0-6.8,1.3-9.6,3.9c-2.8,2.6-4.2,5.7-4.2,9.3c0,0.8,0.1,1.6,0.3,2.4c1.9,8.5,7,12.8,15.4,12.8c4.5,0,10.6-1.3,18.4-4
				L514.9,113.6z"/>
			<path class="st9" d="M554.6,116.8c-3.8,0.8-7.7,1.6-11.5,2.5c-4.2,0.8-8.1,1.2-11.7,1.2c-3,0-6-0.2-9-0.6
				c-0.6-11-1.6-27.5-3-49.4c2.7,0,13-0.5,31-1.4l0.6,11.5l-19.3,0.9l0.5,9l18.9-1.6l0.9,11.5l-19.2,1.6l0.4,6.2h1.3
				c3.4,0,9.4-0.9,18.1-2.9L554.6,116.8z"/>
			<path class="st9" d="M618.9,117.8l-11.5,0.6l-2.2-40.3l-12.4,6.3l-5.1-10.3c3.5-2.1,7-4.1,10.5-6.2c3.9-2.1,7.7-3.4,11.5-3.8
				c1.8,0.5,4,1.1,6.5,1.6C616.2,67.9,617.1,85.2,618.9,117.8z"/>
		</g>
	</g>
</g>
</svg>
