<?xml version="1.0" encoding="utf-8"?>
<!-- Generator: Adobe Illustrator 26.3.0, SVG Export Plug-In . SVG Version: 6.00 Build 0)  -->
<svg version="1.1" xmlns="http://www.w3.org/2000/svg" xmlns:xlink="http://www.w3.org/1999/xlink" x="0px" y="0px"
	 viewBox="0 0 934.8 934.1" style="enable-background:new 0 0 934.8 934.1;" xml:space="preserve">
<style type="text/css">
	.st0{display:none;}
	.st1{display:inline;}
	.st2{fill:url(#SVGID_1_);}
	.st3{fill:#FFFFFF;}
	.st4{fill:url(#SVGID_00000002365501744471135480000018296378423479562428_);}
	.st5{opacity:0.6;}
	.st6{fill:#B28760;}
	.st7{clip-path:url(#SVGID_00000000183607671642026050000000890162507832255677_);}
	.st8{opacity:0.2;}
	.st9{fill:#6B3710;}
	.st10{fill:url(#SVGID_00000171683834813003288090000009437063990929039496_);}
	.st11{fill:url(#SVGID_00000034058032534775318640000000258565355821629867_);}
	.st12{fill:url(#SVGID_00000124136269138247295180000004921885605226031769_);}
	.st13{opacity:0.5;}
	.st14{fill:#E0BF77;}
	.st15{opacity:0.5;fill:#C4580E;}
	.st16{opacity:0.6;fill:url(#SVGID_00000161620961518121535840000005182942673005942686_);}
	.st17{fill:#F2D9C7;stroke:#9B450B;stroke-width:2;stroke-linecap:round;stroke-linejoin:round;stroke-miterlimit:10;}
	.st18{fill:url(#SVGID_00000081639238247271533670000003332629762649969288_);}
	.st19{fill:url(#SVGID_00000174581504637100166630000012360978063909984157_);}
	.st20{clip-path:url(#SVGID_00000101062087447537595820000015295684918743939263_);}
	.st21{fill:url(#SVGID_00000137826764272143693080000008329606366843473327_);}
	.st22{fill:url(#SVGID_00000041253102802500611600000013964809548834424510_);}
	.st23{fill:url(#SVGID_00000078744228865890110980000000508871811777208967_);}
	.st24{opacity:0.6;fill:url(#SVGID_00000090295182785654060180000008549051135507510145_);}
	.st25{fill:#F2D9C7;}
	.st26{fill:#9B450B;}
	.st27{fill:url(#SVGID_00000056411360812326791820000012839855427974737066_);}
	.st28{fill:url(#SVGID_00000099647899398919517170000000915763112563026834_);}
	.st29{clip-path:url(#SVGID_00000132790826985039971160000013182021222236024710_);}
	.st30{fill:url(#SVGID_00000085249021908762857340000014527987081110657170_);}
	.st31{fill:url(#SVGID_00000046321983374428073160000004237480857742905782_);}
	.st32{fill:url(#SVGID_00000000911437750538315780000016236108672192984205_);}
	.st33{opacity:0.6;fill:url(#SVGID_00000132048880709347144630000002365326020262898058_);}
	.st34{fill:none;stroke:#9B450B;stroke-width:2;stroke-linecap:round;stroke-linejoin:round;stroke-miterlimit:10;}
</style>
<g id="Layer_1" class="st0">
	<g class="st1">
		<g>
			<linearGradient id="SVGID_1_" gradientUnits="userSpaceOnUse" x1="467.375" y1="921.5781" x2="467.375" y2="12.4844">
				<stop  offset="0" style="stop-color:#462B10"/>
				<stop  offset="1" style="stop-color:#6B3710"/>
			</linearGradient>
			<path class="st2" d="M467.4,921.6c-61.4,0-120.9-12-176.9-35.7C236.3,863,187.7,830.2,146,788.4c-41.7-41.7-74.5-90.4-97.4-144.5
				c-23.7-56-35.7-115.6-35.7-176.9c0-61.4,12-120.9,35.7-176.9C71.4,236,104.2,187.4,146,145.6s90.4-74.5,144.5-97.4
				c56-23.7,115.6-35.7,176.9-35.7c61.4,0,120.9,12,176.9,35.7c54.1,22.9,102.7,55.7,144.5,97.4c41.7,41.7,74.5,90.4,97.4,144.5
				c23.7,56,35.7,115.6,35.7,176.9c0,61.4-12,120.9-35.7,176.9c-22.9,54.1-55.7,102.7-97.4,144.5c-41.7,41.7-90.4,74.5-144.5,97.4
				C588.3,909.6,528.7,921.6,467.4,921.6z"/>
			<g>
				<path class="st3" d="M467.4,16c249.1,0,451,201.9,451,451c0,249.1-201.9,451-451,451s-451-201.9-451-451
					C16.3,217.9,218.3,16,467.4,16 M467.4,9c-61.8,0-121.8,12.1-178.3,36c-54.5,23.1-103.5,56.1-145.6,98.2s-75.1,91-98.2,145.6
					c-23.9,56.5-36,116.5-36,178.3c0,61.8,12.1,121.8,36,178.3c23.1,54.5,56.1,103.5,98.2,145.6c42.1,42.1,91,75.1,145.6,98.2
					c56.5,23.9,116.5,36,178.3,36c61.8,0,121.8-12.1,178.3-36c54.5-23.1,103.5-56.1,145.6-98.2c42.1-42.1,75.1-91,98.2-145.6
					c23.9-56.5,36-116.5,36-178.3c0-61.8-12.1-121.8-36-178.3c-23.1-54.5-56.1-103.5-98.2-145.6c-42.1-42.1-91-75.1-145.6-98.2
					C589.2,21.1,529.2,9,467.4,9L467.4,9z"/>
			</g>
		</g>
		<g>
			
				<linearGradient id="SVGID_00000057149932227548592460000004452548912981087894_" gradientUnits="userSpaceOnUse" x1="467.375" y1="893.1478" x2="467.375" y2="40.9147">
				<stop  offset="0" style="stop-color:#A66017"/>
				<stop  offset="1" style="stop-color:#F7A537"/>
			</linearGradient>
			<circle style="fill:url(#SVGID_00000057149932227548592460000004452548912981087894_);" cx="467.4" cy="467" r="426.1"/>
		</g>
		<g class="st5">
			<path class="st6" d="M467.4,870.2c231.5,0,419.9-184.6,426-414.6c0.1,3.8,0.2,7.6,0.2,11.5c0,235.3-190.8,426.1-426.1,426.1
				S41.3,702.4,41.3,467c0-3.8,0.1-7.7,0.2-11.5C47.5,685.6,235.9,870.2,467.4,870.2z"/>
		</g>
		<g>
			<defs>
				<circle id="SVGID_00000175323360059365900960000015439871022096909735_" cx="467.4" cy="467" r="426.1"/>
			</defs>
			<clipPath id="SVGID_00000008119854864495739270000001901341420278360977_">
				<use xlink:href="#SVGID_00000175323360059365900960000015439871022096909735_"  style="overflow:visible;"/>
			</clipPath>
			<g style="clip-path:url(#SVGID_00000008119854864495739270000001901341420278360977_);">
				<g class="st8">
					<path class="st9" d="M-120.4,37.1c48.5-11.5,104.7-3,154.1-1.2c58.9,2.2,117.8,7.6,176.4,13.6
						c118.8,12.2,237.1,26.3,356.3,34.1c119.9,7.9,240,12.1,359.9,19c55,3.1,106.5,6.1,161.6,7.1c54.8,1,103.7,4.4,158,23.8
						c0-20.9,0-41.8,0-62.8c-54.2,18.3-105,19.9-160.6,20.7c-60,0.9-117.8,6.5-177.6,11.2c-130.7,10.2-260.9,17-391.8,22.2
						c-127.5,5-254.6,4.1-382.1,3.6c-61.9-0.2-123.6,0.6-185.5,1.1c-61,0.4-122.4,4.4-181.3,21c-24.9,7-34.7,47.5-7.7,59.5
						c46.1,20.5,95.2,25.8,145.3,28.3c60.1,3,119.8,7.3,179.8,12.3c131.5,10.9,263.4,18,395.3,23.3c131.4,5.3,262.9,9.9,394.2,17.3
						c62,3.5,124,9.2,186.1,12.1c60.7,2.9,121.9,0.6,181.1,16.4c-2.6-19.8-5.2-39.7-7.8-59.5c-45.6,19.7-99.9,16.3-148.4,16.5
						c-60.7,0.3-121,7.6-181.4,13.2c-134.9,12.6-269.9,24.6-405.1,34.8c-129.7,9.8-260.1,12.9-390,18.9
						c-66.2,3.1-132.9,9.2-199.1,8.1c-61.9-1-124-2.6-184.1,14.8c-36.6,10.6-27.2,61.3,8.7,63.9c225.8,16.3,452.1-17.4,677.7-23.6
						c237.3-6.4,474.8-6.5,712.1-9.7c41.9-0.6,42-65.1,0-65.1c-240.5,0.2-481,14.7-720.6,34.4c-121.9,10-243.9,18.8-365.6,30.9
						c-96.2,9.6-202.4-2.9-292,38.8c-23,10.7-19.3,44.5,0,56.2c39.5,23.9,86.4,28,131.6,28.1c52.4,0.2,104.3-3.5,156.8-2.1
						c135.9,3.6,272,2,407.9-1.9c131.9-3.7,263.8-6.9,395.8-8.6c65.6-0.8,126.4,0.6,192-1.7c57.4-2,113.5-10.6,167.7,2.7
						c0-20.9,0-41.8,0-62.8c-113.9,20.1-229.8,27-347.9,32.4c-117,5.3-230.9,11.6-347.6,21.3c-227.3,18.9-455.8,17-679.7,65.9
						c-37.9,8.3-25.5,61.2,9.3,63.9c227.7,17.6,454.9-17.9,682.1-27.9c109-4.8,218.5-6.6,327.6-10.4c111.1-3.8,223.7-3.9,332.7,20.5
						c2.9-21.3,5.8-42.6,8.7-63.9c-258.6,30-519.2,29.5-778.2,54.2C274.4,614.6,144.5,625,14.8,636.3c-59.9,5.2-119.5,12-179.6,12.7
						c-56.7,0.7-114.7,1.5-169,19.9c-29.9,10.1-32.1,53.6,0,62.8c50.4,14.4,102.5,14.4,154.5,12.6c59.1-2,118.1-1.7,177.2-3.3
						c121.8-3.3,243.4-11.1,365.1-16.4c122.7-5.4,245.4-8.9,368.2-10.6c59.9-0.8,117,0,176.9-1.4c50.3-1.1,93.8-8.2,148,5.7
						c0-20.9,0-41.8,0-62.8c-43.4,10.6-84.2,12.1-128.2,14.3c-48.4,2.4-95.3,9.2-143.5,13.9c-94.4,9.1-188.1,17.6-282.3,28.6
						c-184.1,21.4-368.6,38.5-550.3,76.1c-36.6,7.6-27.3,64,8.8,63.9c190.2-0.5,378.7-29.2,568.2-42.8
						c94.2-6.8,188.6-9.4,283.1-10.1c44.2-0.3,88.5,0.3,132.7-0.5c41.4-0.8,82.9-4.4,122.7,9c-2.6-19.8-5.2-39.7-7.8-59.5
						c-30.9,19.2-69.3,19.6-104.6,22.4c-48.7,3.8-97.2,12.1-145.8,17.9c-101.7,12-203.6,21.3-305.5,30.8
						c-206.8,19.2-415.1,14.2-621.3,40.9c-40.5,5.2-43.1,63.7,0,65.1c99.8,3.3,200.1-13.5,299.3-22.7C287,893.1,392.6,885,498.5,880
						c105.8-5.1,211.7-5.2,317.6-3.8c107.4,1.4,215,7.1,321.1,25c41,6.9,58.6-55.8,17.3-62.8c-208.3-35.1-424.4-33.2-634.9-24.4
						c-105.8,4.4-215.7,12.5-321.1,21.9C92.2,845.4-18,864-126.5,860.5c0,21.7,0,43.4,0,65.1c211.5-27.1,425.8-22.3,636.1-41.8
						c105.5-9.8,213.1-19.8,318.3-32.3c46.9-5.6,94.7-12.9,141.8-16.6c41.8-3.3,85.6-7.4,122-30c24.7-15.3,19.2-50.5-7.5-59.5
						c-36.6-12.3-75.1-13-113.3-12.1c-46.1,1-92.1,0.9-138.2,1.1c-98,0.4-195.8,3.1-293.6,9.5c-193,12.6-384.7,43-578.5,43.5
						c2.9,21.3,5.8,42.6,8.7,63.9c182.7-37.8,368.7-54.5,553.8-76.2c94.3-11.1,189-19,283.5-28.2c44.7-4.4,89.3-10.1,134.1-12.4
						c46.4-2.3,92.9-5,138.2-16.2c31.8-7.8,30.3-54.1,0-62.8c-46.1-13.1-94-11.2-141.4-9.1c-57.8,2.6-115.9,1.4-173.7,2
						c-122.8,1.3-245.6,5-368.3,9.7c-121.8,4.7-243.4,12.5-365.2,16.7c-60,2.1-125.2,1.7-185.2,3.3c-56,1.5-117.8,6.3-172.1-9.3
						c0,20.9,0,41.8,0,62.8c54.2-17.6,111.8-17,166-17.6c60.6-0.7,123.6-8.3,183.9-13.5c126.2-11,253.9-21.2,380-33.1
						c259-24.5,520.2-24.2,778.8-54.2c33.9-3.9,47.7-55.3,9-63.9c-105-23.5-212.6-26.2-319.8-23.7c-112.3,2.7-224.6,6.8-336.8,10.5
						c-234.3,7.7-467.6,46.8-702.3,28.7c2.9,21.3,5.8,42.6,8.7,63.9c224.5-49.1,455.5-45.6,683.4-65.3
						c233.2-20.1,469.5-14.5,700.7-54.3c32.2-5.6,30.1-55.7,0-62.8c-53.8-12.7-108.5-9.6-163.2-6.4c-63.8,3.7-128,2.1-191.9,2.7
						c-131.9,1.4-263.9,3.8-395.8,8c-132.4,4.2-264.8,6.1-397.2,3.8c-53.6-0.9-110.3-2.6-163.8,0c-45.2,2.2-104.2,6.3-142.1-18.1
						c0,18.7,0,37.5,0,56.2c38-19.1,91.9-20.6,136.4-22c53.3-1.7,107.6-6,160.7-11.1c118.1-11.4,233.6-19.7,351.9-29.5
						c232.4-19.3,463-32.4,696.2-32.6c0-21.7,0-43.4,0-65.1c-238.7,3.2-470.9,3.4-708.3,9.7c-225.6,5.9-449.9,39.9-675.7,23.6
						c2.9,21.3,6.7,42.6,9.6,63.9c60.7-17.5,124.3-12.9,186.7-12.2c66.6,0.8,134.4-6.3,201-9.4c133.6-6.2,267.7-10.2,401.1-20.4
						c135-10.4,269.9-22.7,404.7-35.3c58.8-5.5,116.6-10,175.6-10.4c53.3-0.4,106-3.9,155.4-25.3c26.9-11.6,17.2-52.8-7.8-59.5
						c-55.3-14.8-112.7-16-169.6-17.7c-61-1.8-121.9-7.6-182.8-11.3c-131.3-8-262.8-13-394.3-17.9c-128.3-4.8-256.4-11.4-384.4-21.1
						c-60.2-4.5-120.4-12.2-180.7-14.2c-50.7-1.7-106.9,0.1-154.2-20.9c-2.6,19.8-5.2,39.7-7.8,59.5c56.7-16,115-18.3,173.6-18.7
						c62.3-0.5,124.6-1.2,186.9-0.9c131.2,0.5,262.1,0.8,393.3-4.5c127.4-5.1,254.7-12.2,381.8-22.1c59.4-4.6,118.2-9.7,177.8-10.5
						c57.8-0.8,116.7-3.9,171.7-22.9c31.6-10.9,30.3-51.4,0-62.8C1169,33.1,1052.8,45.2,947.6,38.8C824.1,31.3,700.4,27,576.9,19.3
						C454.2,11.6,332.3-2.8,210.1-15.6C148-22,85.7-27.2,23.3-29.5c-52.8-2-109.1-8.4-161.1,3.9C-178.6-16-161.3,46.8-120.4,37.1
						L-120.4,37.1z"/>
				</g>
				<g class="st8">
					<path class="st9" d="M53.2,855c-5.8,0-10.5-4.5-10.8-10.3C42,839,46.3,834,52,833.3c147.5-15.8,300.1-20.6,450.2-23.4
						c7-0.6,13.9-1.2,20.7-1.8l11.6-0.9c99.4-8,202.2-16.4,301.7-29.8c8-1.2,17.2-2.2,26.9-3.2c25.5-2.7,56.1-5.9,77.1-16.1
						c-27.6-10.3-74.1-7.5-109.7-5.4c-12.9,0.8-25.2,1.5-34.9,1.5c-168.2,0-314.7,3.7-447.7,11.2c-40.6,2.1-81.9,4.6-121.8,7
						C106.1,779.5-18,787-140.3,784.9c-8.5,0-18.9,0.3-29.9,0.6c-64.3,1.7-152.3,4.1-195.6-34.1c-2.3-2-3.6-4.9-3.7-8
						c0-3.1,1.2-6,3.5-8.1c31.7-29.3,101-29.8,151.6-30.1c13.5-0.1,25.1-0.2,34.4-0.8C-62,694.9,58.7,687.8,175.4,681
						c55.1-3.2,112.1-6.6,168.5-10.2c162.4-8.4,327.4-19.8,487-30.8c9.8-1.4,24-2.3,40.4-3.3c33-2.1,78.6-4.9,107.2-14.4
						c-41.8-6.6-85.6-6.9-128.4-7.2c-19.9-0.1-40.4-0.3-60.4-1c-129.9-6.7-263.3-6.3-392.3-5.8c-32.6,0.1-65.2,0.2-97.6,0.2
						c-36.7,0-74,0.3-110.1,0.6C63,609.9-68,610.9-197.1,600c-10.8-1.1-23.1-1.9-36.1-2.8c-53.1-3.4-119.2-7.7-157.6-38.9
						c-2.7-2.2-4.2-5.6-4-9c0.2-3.5,2.1-6.7,5-8.5c51-32.5,138.7-32.2,209.1-32c18.7,0.1,36.4,0.1,51.3-0.5
						c161.8-9,327.1-10.8,487-12.6c40.3-0.4,80.8-0.9,121.3-1.4c162.6-2.8,321.9-2.8,490.5-2.8c15.2,0,31,0.4,47.6,0.9
						c43.6,1.1,91.9,2.4,135.2-4.4c-58.7-20.6-132-26.8-197.8-32.4c-24.9-2.1-48.4-4.1-70.4-6.8c-204.3-29.2-408.4-43.5-652.1-56
						c-37.5-1.8-76.2-3.1-113.7-4.4c-140.4-4.7-285.7-9.6-423.3-40.7c-38-8.5-62.3-17.4-65.3-36c-2.9-18,16.7-32.3,34.1-42.7
						c60.6-35.8,144.8-42.7,212.5-48.3l10.8-0.9c110.6-10.2,224.1-8.5,333.8-6.9c40.7,0.6,82.8,1.2,123.9,1.2
						c136.3,0,274.9-2.5,408.9-5c67.1-1.2,136.4-2.5,204.6-3.4c28-0.9,58.2,0,87.4,0.9c44.2,1.4,89.4,2.8,131.5-1.9
						c-27.6-6.7-57.9-10.2-87.6-13.6c-22.4-2.6-43.6-5-63.2-8.8l-21.1-3.2c-143.7-21.7-279.5-42.2-417.9-55.5
						c-142.9-16.5-289.7-25-431.5-33.1l-8-0.5c-6.7-0.5-13.7-1.1-21.1-1.8C92,85.2,48.7,81.3,20.7,92.1c-5.6,2.1-11.9-0.6-14-6.2
						c-2.2-5.6,0.6-11.9,6.2-14c32.7-12.6,78.8-8.5,115.8-5.2c7.2,0.6,14.1,1.3,20.6,1.7l7.8,0.5C299.2,77,446.2,85.5,589.6,102
						c138.8,13.3,274.8,33.9,418.8,55.6l21.5,3.2c19.2,3.7,40,6.1,62.1,8.6c46.6,5.4,94.8,11,134.1,28.6c4.2,1.9,6.8,6.3,6.3,10.9
						c-0.4,4.6-3.7,8.5-8.3,9.5c-55.8,13.5-118.6,11.5-179.3,9.6c-30.2-0.9-58.8-1.8-86.3-0.9c-68.4,0.9-137.7,2.2-204.7,3.4
						c-134.1,2.5-272.8,5-409.3,5c-41.3,0-83.4-0.6-124.2-1.2c-109.1-1.6-222-3.3-331.5,6.8l-10.9,0.9
						c-65.4,5.4-146.9,12-203.1,45.3c-23.3,14-23.7,20.5-23.7,20.6c0.3,1.3,4.3,8.5,48.6,18.3C-164.6,357-20.4,361.9,119,366.6
						c37.5,1.3,76.3,2.6,114,4.4c244.4,12.5,449,26.9,653.9,56.1c21.4,2.6,44.7,4.6,69.4,6.7c79.9,6.8,170.4,14.5,236.5,47.6
						c4,2,6.4,6.2,6,10.7c-0.4,4.4-3.5,8.2-7.8,9.4c-53.8,15.7-117.9,14-174.5,12.5c-16.5-0.4-32.1-0.9-47.1-0.9
						c-168.5,0-327.7,0-490.2,2.8c-40.6,0.6-81,1-121.4,1.4c-159.6,1.8-324.7,3.6-486.2,12.6c-15.5,0.6-33.4,0.6-52.4,0.5
						c-60.6-0.2-134.4-0.4-182,20.5c34.7,18.4,87.4,21.8,130.9,24.6c13.2,0.9,25.7,1.7,36.7,2.8c127.9,10.8,258.3,9.9,384.5,8.9
						c36.1-0.3,73.5-0.6,110.3-0.6c32.4,0,65-0.1,97.6-0.2c129.3-0.4,263-0.9,393.3,5.8c19.6,0.8,39.9,0.9,59.6,1
						c53.5,0.4,108.8,0.7,160.9,13.3c3.7,0.9,6.7,3.7,7.8,7.4c1.1,3.7,0.2,7.7-2.3,10.5c-24,26.4-90.6,30.6-144.1,33.9
						c-15.9,1-29.7,1.8-39,3.2c-0.3,0-0.5,0.1-0.8,0.1c-160.1,11-325.3,22.4-487.7,30.8c-56.4,3.6-113.4,6.9-168.5,10.2
						c-116.6,6.8-237.1,13.9-355.1,23.4c-10.1,0.6-22,0.7-35.8,0.8c-41.1,0.3-95.5,0.7-125.6,16.5c41.3,23.9,117.2,21.8,169.1,20.4
						c11.2-0.3,21.7-0.6,30.7-0.6c121.7,2.1,245.4-5.4,365-12.6c40-2.4,81.3-4.9,121.9-7c133.4-7.6,280.2-11.2,448.9-11.2
						c9.1,0,21-0.7,33.6-1.5c48.7-2.9,109.3-6.5,138.6,18c2.4,2,3.8,5,3.9,8.1c0.1,3.1-1.3,6.2-3.6,8.3
						c-24.5,22.1-67.9,26.7-102.8,30.3c-9.4,1-18.4,1.9-26.1,3.1c-14.1,1.9-28.2,3.7-42.4,5.4c131.9-5,260.2-7.4,391-7.4
						c8.9,0,17.8,0.1,26.8,0.2c44.4,0.4,90.3,0.8,133.5-8.3c5.9-1.2,11.6,2.5,12.9,8.4c1.2,5.9-2.5,11.6-8.4,12.9
						c-45.6,9.6-92.6,9.2-138.2,8.8c-8.9-0.1-17.8-0.2-26.6-0.2c-139.4,0-275.8,2.7-417.1,8.4c-55.1,1.3-111.8,2.2-166.5,3
						c-33.5,0.5-67.2,1-101,1.6C368.3,843.5,211.1,855,53.2,855z"/>
				</g>
			</g>
		</g>
		<g>
			
				<image style="overflow:visible;opacity:0.75;" width="3121" height="3121" xlink:href="DE645C4B.png"  transform="matrix(0.24 0 0 0.24 92.83 95.52)">
			</image>
			<g>
				
					<linearGradient id="SVGID_00000023268588803489166690000002073323885793731984_" gradientUnits="userSpaceOnUse" x1="467.375" y1="831.4413" x2="467.375" y2="102.6212">
					<stop  offset="0" style="stop-color:#6B3710"/>
					<stop  offset="1" style="stop-color:#8E501C"/>
				</linearGradient>
				<circle style="fill:url(#SVGID_00000023268588803489166690000002073323885793731984_);" cx="467.4" cy="467" r="364.4"/>
			</g>
		</g>
		<g>
			
				<linearGradient id="SVGID_00000013184898980655803780000004255906947316395422_" gradientUnits="userSpaceOnUse" x1="467.375" y1="805.1099" x2="467.375" y2="128.9532">
				<stop  offset="0" style="stop-color:#CE6F1B"/>
				<stop  offset="1" style="stop-color:#F4C206"/>
			</linearGradient>
			<circle style="fill:url(#SVGID_00000013184898980655803780000004255906947316395422_);" cx="467.4" cy="467" r="338.1"/>
		</g>
		<g>
			
				<linearGradient id="SVGID_00000053532767057587016370000006090332134093987467_" gradientUnits="userSpaceOnUse" x1="467.3747" y1="771.4861" x2="467.3747" y2="162.5769">
				<stop  offset="0" style="stop-color:#FFD800;stop-opacity:0"/>
				<stop  offset="0.1441" style="stop-color:#FFD809;stop-opacity:0.1441"/>
				<stop  offset="0.3788" style="stop-color:#FFD821;stop-opacity:0.3788"/>
				<stop  offset="0.6747" style="stop-color:#FFD849;stop-opacity:0.6747"/>
				<stop  offset="1" style="stop-color:#FFD87C"/>
			</linearGradient>
			<circle style="fill:url(#SVGID_00000053532767057587016370000006090332134093987467_);" cx="467.4" cy="467" r="304.5"/>
		</g>
		<g class="st13">
			<path class="st14" d="M467.4,141.5c184.6,0,334.7,148,338,331.8c0-2.1,0.1-4.2,0.1-6.3c0-186.7-151.4-338.1-338.1-338.1
				S129.3,280.3,129.3,467c0,2.1,0,4.2,0.1,6.3C132.7,289.5,282.8,141.5,467.4,141.5z"/>
		</g>
		<g>
			<path class="st6" d="M467.4,62.1c161.7,0,302.8,84,378.3,208.8C774.7,134.2,632,40.9,467.4,40.9C302.8,40.9,160,134.2,89,270.9
				C164.5,146.1,305.7,62.1,467.4,62.1z"/>
		</g>
		<path class="st15" d="M467.4,739.7c-113.3,0-212.8-59-269.6-147.9c-12.6-19.8-22.5-15.7-14.3,6.4
			c42.9,115.1,153.8,197.1,283.8,197.1c131.4,0,243.2-83.6,285.1-200.6c7.6-21.1-0.4-27.8-11.1-10.2
			C685.6,677.5,583.7,739.7,467.4,739.7z"/>
		
			<linearGradient id="SVGID_00000041294142908465645510000003045885315037778103_" gradientUnits="userSpaceOnUse" x1="489.1704" y1="204.6697" x2="695.7756" y2="323.9533">
			<stop  offset="0" style="stop-color:#FFFFFF"/>
			<stop  offset="1" style="stop-color:#FFFFFF;stop-opacity:0.4"/>
		</linearGradient>
		<path style="opacity:0.6;fill:url(#SVGID_00000041294142908465645510000003045885315037778103_);" d="M665.7,346.8
			c-9.4,0-18.7-4.6-24.3-13c-19.1-28.6-51.7-49.9-64.8-55c-15.1-5.8-22.6-22.8-16.7-37.8c5.8-15.1,22.8-22.5,37.8-16.7
			c26.6,10.3,68.1,40.8,92.3,77c9,13.4,5.4,31.6-8,40.6C677,345.2,671.3,346.8,665.7,346.8z M513,193.5c-16.6,0-30,13.4-30,30
			s13.4,30,30,30c16.6,0,30-13.4,30-30S529.6,193.5,513,193.5z"/>
		<path class="st17" d="M698.2,310.8H260.4c-6.6,0-12,5.4-12,12V599c0,6.6,5.4,12,12,12h196.2v20.6h-22.9c-6.6,0-12,5.4-12,12v18.8
			c0,6.6,5.4,12,12,12h93c6.6,0,12-5.4,12-12v-18.8c0-6.6-5.4-12-12-12h-24V611h195.4c6.6,0,12-5.4,12-12V322.8
			C710.2,316.2,704.8,310.8,698.2,310.8z M672.7,557.7c0,6.6-5.4,12-12,12H300.8c-6.6,0-12-5.4-12-12v-196c0-6.6,5.4-12,12-12h359.9
			c6.6,0,12,5.4,12,12V557.7z"/>
	</g>
</g>
<g id="Layer_3">
	<g>
		<g>
			
				<linearGradient id="SVGID_00000053531865167209970460000004386910428898898105_" gradientUnits="userSpaceOnUse" x1="467.9902" y1="929.1377" x2="467.9902" y2="15.457">
				<stop  offset="0" style="stop-color:#462B10"/>
				<stop  offset="1" style="stop-color:#6B3710"/>
			</linearGradient>
			<path style="fill:url(#SVGID_00000053531865167209970460000004386910428898898105_);" d="M468,929.1
				c-61.7,0-121.5-12.1-177.8-35.9c-54.4-23-103.3-55.9-145.2-97.9c-42-42-74.9-90.8-97.9-145.2C23.2,593.8,11.1,534,11.1,472.3
				s12.1-121.5,35.9-177.8c23-54.4,55.9-103.3,97.9-145.2c42-42,90.8-74.9,145.2-97.9C346.5,27.5,406.3,15.5,468,15.5
				c61.7,0,121.5,12.1,177.8,35.9c54.4,23,103.3,55.9,145.2,97.9c42,42,74.9,90.8,97.9,145.2c23.8,56.3,35.9,116.2,35.9,177.8
				s-12.1,121.5-35.9,177.8c-23,54.4-55.9,103.3-97.9,145.2c-42,42-90.8,74.9-145.2,97.9C589.5,917.1,529.7,929.1,468,929.1z"/>
			<g>
				<path class="st3" d="M468,19c250.4,0,453.3,203,453.3,453.3c0,250.4-203,453.3-453.3,453.3S14.6,722.7,14.6,472.3
					C14.6,221.9,217.6,19,468,19 M468,12c-62.1,0-122.4,12.2-179.2,36.2c-54.8,23.2-104,56.4-146.3,98.7
					c-42.3,42.3-75.5,91.5-98.7,146.3c-24,56.8-36.2,117-36.2,179.2c0,62.1,12.2,122.4,36.2,179.2c23.2,54.8,56.4,104,98.7,146.3
					c42.3,42.3,91.5,75.5,146.3,98.7c56.8,24,117,36.2,179.2,36.2s122.4-12.2,179.2-36.2c54.8-23.2,104-56.4,146.3-98.7
					c42.3-42.3,75.5-91.5,98.7-146.3c24-56.8,36.2-117,36.2-179.2c0-62.1-12.2-122.4-36.2-179.2c-23.2-54.8-56.4-104-98.7-146.3
					c-42.3-42.3-91.5-75.5-146.3-98.7C590.4,24.1,530.1,12,468,12L468,12z"/>
			</g>
		</g>
		<g>
			
				<linearGradient id="SVGID_00000134971152470466854170000006314032018492413119_" gradientUnits="userSpaceOnUse" x1="467.9901" y1="900.5806" x2="467.9901" y2="44.0141">
				<stop  offset="0" style="stop-color:#A66017"/>
				<stop  offset="1" style="stop-color:#F7A537"/>
			</linearGradient>
			<circle style="fill:url(#SVGID_00000134971152470466854170000006314032018492413119_);" cx="468" cy="472.3" r="428.3"/>
		</g>
		<g class="st5">
			<path class="st6" d="M468,877.5c232.7,0,422-185.5,428.1-416.7c0.1,3.8,0.2,7.7,0.2,11.5c0,236.5-191.7,428.3-428.3,428.3
				S39.7,708.8,39.7,472.3c0-3.9,0.1-7.7,0.2-11.5C46,691.9,235.3,877.5,468,877.5z"/>
		</g>
		<g>
			<defs>
				
					<ellipse id="SVGID_00000085957610859600708850000005216249606085186963_" transform="matrix(0.7071 -0.7071 0.7071 0.7071 -196.8936 469.2517)" cx="468" cy="472.3" rx="428.3" ry="428.3"/>
			</defs>
			<clipPath id="SVGID_00000139997300539710444990000013668028364570845112_">
				<use xlink:href="#SVGID_00000085957610859600708850000005216249606085186963_"  style="overflow:visible;"/>
			</clipPath>
			<g style="clip-path:url(#SVGID_00000139997300539710444990000013668028364570845112_);">
				<g class="st8">
					<path class="st9" d="M-122.8,40.2c48.7-11.6,105.3-3,154.9-1.2c59.2,2.2,118.4,7.6,177.3,13.7C328.8,64.9,447.7,79.1,567.5,87
						c120.5,7.9,241.2,12.2,361.7,19.1c55.3,3.1,107.9,6.1,163.3,7.1c55.1,1,105.1,4.4,159.7,23.9c0-21,0-42.1,0-63.1
						c-54.5,18.4-106.5,20-162.3,20.8c-60.3,0.9-118.8,6.6-178.9,11.3c-131.4,10.3-262.4,17.1-394,22.3c-128.2,5-256,4.1-384.2,3.6
						c-62.2-0.2-124.3,0.6-186.5,1.1c-61.3,0.4-123,4.4-182.2,21.1c-25,7.1-34.9,47.7-7.8,59.8c46.4,20.6,95.7,26,146,28.5
						c60.4,3,120.4,7.3,180.7,12.3c132.2,10.9,264.7,18.1,397.3,23.4c132.1,5.3,264.2,9.9,396.2,17.3c62.4,3.5,124.6,9.2,187,12.2
						c61,2.9,122.5,0.6,182,16.5c-2.6-19.9-5.2-39.9-7.8-59.8c-45.8,19.8-100.4,16.4-149.2,16.6c-61.1,0.3-121.6,7.6-182.4,13.3
						c-135.6,12.6-271.3,24.7-407.1,35c-130.3,9.8-261.4,13-391.9,19c-66.5,3.1-133.5,9.3-200.1,8.2c-62.2-1-124.6-2.6-185,14.8
						c-36.8,10.6-27.4,61.6,8.7,64.3c226.9,16.4,454.4-17.5,681.1-23.7c238.5-6.5,477.2-6.5,715.7-9.7c42.2-0.6,42.2-65.5,0-65.4
						c-241.8,0.2-483.4,14.7-724.3,34.6c-122.5,10.1-245.1,18.9-367.4,31c-96.7,9.6-203.4-2.9-293.5,39c-23.1,10.8-19.4,44.7,0,56.5
						c39.7,24,86.8,28.1,132.3,28.3c52.7,0.2,104.8-3.5,157.6-2.1c136.6,3.7,273.4,2,410-1.9c132.6-3.7,265.2-6.9,397.8-8.6
						c66-0.9,127.9,0.6,193.8-1.8c57.7-2,114.9-10.7,169.5,2.8c0-21,0-42.1,0-63.1c-114.5,20.2-231.9,27.1-350.6,32.5
						c-117.6,5.3-232.6,11.6-349.9,21.4c-228.5,19-458.3,17.1-683.4,66.3c-38.1,8.3-25.7,61.6,9.2,64.3
						c228.8,17.7,457.2-18,685.5-28c109.6-4.8,219.6-6.7,329.3-10.4c111.7-3.8,224.8-3.9,334.4,20.6c2.9-21.4,5.8-42.8,8.7-64.3
						c-259.9,30.1-521.9,29.7-782.1,54.4C274,620.6,143.5,631.1,13.1,642.4c-60.2,5.2-120.1,12.1-180.5,12.8
						c-57,0.7-115.3,1.5-169.9,20c-30.1,10.2-32.3,53.9,0,63.1c50.7,14.5,103,14.5,155.3,12.7c59.4-2,118.7-1.7,178.1-3.3
						c122.4-3.3,244.6-11.1,366.9-16.5c123.3-5.4,246.7-8.9,370.1-10.7c60.2-0.8,118.5,0,178.7-1.4c50.5-1.1,95.1-8.3,149.6,5.8
						c0-21,0-42.1,0-63.1c-43.6,10.6-85.5,12.2-129.8,14.4c-48.6,2.4-96.2,9.3-144.7,14c-94.9,9.2-189.3,17.7-284,28.7
						c-185,21.5-370.6,38.7-553.2,76.5c-36.8,7.6-27.4,64.4,8.8,64.3c191.2-0.5,380.6-29.3,571-43c94.7-6.8,189.6-9.4,284.5-10.2
						c44.5-0.3,89,0.3,133.4-0.5c41.6-0.8,83.3-4.4,123.4,9.1c-2.6-19.9-5.2-39.9-7.8-59.8c-31.1,19.3-69.7,19.7-105.1,22.5
						c-49,3.9-97.7,12.2-146.5,17.9c-102.2,12-204.6,21.4-307.1,31C296.4,846,87,841-120.3,867.7c-40.7,5.3-43.4,64,0,65.4
						c100.3,3.3,201.1-13.6,300.9-22.8c106.1-9.8,212.3-17.9,318.7-23c106.3-5.1,212.8-5.2,319.2-3.8c108,1.4,216.1,7.1,322.7,25.1
						c41.3,6.9,58.9-56.1,17.4-63.1C949.2,810.3,732,812.2,520.4,821c-106.3,4.4-215.9,12.5-321.9,22
						c-106.7,9.6-216.6,28.3-325.7,24.7c0,21.8,0,43.6,0,65.4c212.6-27.2,427.1-22.4,638.4-42c106-9.9,213.7-19.9,319.5-32.5
						c47.2-5.6,94.9-13,142.3-16.7c42-3.3,85.9-7.4,122.5-30.1c24.8-15.4,19.2-50.8-7.6-59.8c-36.8-12.4-75.5-13-113.9-12.2
						c-46.3,1.1-92.6,0.9-138.9,1.1c-98.5,0.4-196.8,3.1-295.1,9.6c-194,12.7-386.6,43.2-581.4,43.7c2.9,21.4,5.8,42.8,8.7,64.3
						c183.7-38,370.6-54.7,556.6-76.6c94.8-11.1,190-19.1,285-28.4c44.9-4.4,89.7-10.2,134.8-12.4c46.7-2.3,93.4-5,138.9-16.2
						c32-7.9,30.5-54.4,0-63.1c-46.4-13.2-94.5-11.3-142.2-9.2c-58.1,2.6-116.5,1.4-174.6,2c-123.5,1.3-246.8,5-370.2,9.7
						c-122.4,4.7-244.7,12.5-367.1,16.8c-60.3,2.1-125,1.7-185.2,3.3c-56.3,1.5-117.5,6.3-172.1-9.3c0,21,0,42.1,0,63.1
						c54.5-17.7,111.5-17.1,166-17.7c60.9-0.7,123.8-8.3,184.4-13.6c126.9-11.1,254.9-21.3,381.7-33.3
						c260.3-24.6,522.7-24.3,782.7-54.4c34.1-3.9,47.9-55.6,9-64.3c-105.6-23.6-213.7-26.3-321.4-23.8
						c-112.8,2.7-225.7,6.8-338.5,10.5c-235.5,7.7-470,47-705.9,28.8c2.9,21.4,5.8,42.8,8.7,64.3c225.6-49.3,457.8-45.9,686.9-65.6
						c234.4-20.2,471.9-14.6,704.3-54.6c32.4-5.6,30.2-56,0-63.1c-54.1-12.8-109.1-9.6-164-6.5c-64.1,3.7-128.6,2.1-192.9,2.7
						c-132.6,1.4-265.2,3.9-397.8,8.1c-133,4.2-266.2,6.1-399.3,3.8c-53.9-0.9-110-2.6-163.8,0c-45.5,2.2-103.8,6.3-142-18.2
						c0,18.8,0,37.7,0,56.5c38.2-19.2,91.5-20.7,136.2-22.1c53.6-1.7,107.7-6,161.1-11.2c118.7-11.4,235.5-19.8,354.3-29.7
						c233.6-19.4,466-32.6,700.4-32.8c0-21.8,0-43.6,0-65.4c-239.9,3.2-474.2,3.4-712.7,9.7c-226.8,6-452.7,40.1-679.6,23.7
						c2.9,21.4,6.5,42.8,9.4,64.3c61-17.6,124.9-12.9,187.6-12.2c67,0.8,135.1-6.3,202-9.4c134.3-6.2,269.1-10.2,403.2-20.5
						c135.7-10.4,271.3-22.8,406.8-35.5c59.1-5.5,117.2-10,176.5-10.4c53.6-0.4,106.5-3.9,156.2-25.4c27-11.7,17.3-53.1-7.8-59.8
						c-55.6-14.8-113.3-16.1-170.5-17.8c-61.3-1.8-122.5-7.6-183.8-11.3c-132-8-264.2-13-396.3-18c-128.9-4.9-257.7-11.5-386.4-21.2
						c-60.5-4.6-121-12.3-181.6-14.2c-50.9-1.7-107.4,0.1-155-21c-2.6,19.9-5.2,39.9-7.8,59.8c57-16.1,115.5-18.4,174.4-18.8
						c62.6-0.5,125.2-1.2,187.8-0.9c131.9,0.5,263.5,0.8,395.3-4.5c128-5.1,256-12.3,383.7-22.3c59.7-4.7,118.8-9.7,178.7-10.6
						c58.1-0.9,117.2-3.9,172.6-23c31.7-11,30.4-51.7,0-63.1c-100.8-37.8-217.7-25.6-323.4-32.1C826.5,34.3,702.2,30,578.1,22.2
						C454.8,14.5,332.3,0,209.4-12.8c-62.4-6.5-125-11.7-187.7-14c-53.1-2-109.7-8.5-161.9,3.9C-181.3-13.2-163.8,49.9-122.8,40.2
						L-122.8,40.2z"/>
				</g>
				<g class="st8">
					<path class="st9" d="M51.7,862.2c-5.8,0-10.6-4.5-10.9-10.3c-0.3-5.8,4-10.8,9.7-11.4c148.2-15.9,301.6-20.7,452.5-23.5
						c7-0.6,13.9-1.2,20.8-1.8l11.7-0.9c99.9-8.1,203.2-16.5,303.2-30c8.1-1.2,17.3-2.2,27-3.3c25.7-2.7,56.4-6,77.5-16.2
						c-27.7-10.3-74.5-7.5-110.2-5.4c-13,0.8-25.3,1.5-35.1,1.5c-169.1,0-316.3,3.7-450,11.2c-40.8,2.1-82.3,4.6-122.4,7
						c-120.7,7.3-245.5,14.8-368.4,12.7c-8.5,0-19,0.3-30,0.6c-64.6,1.7-153.1,4.1-196.6-34.3c-2.3-2-3.7-5-3.7-8.1
						c0-3.1,1.2-6,3.5-8.1c31.9-29.4,101.5-29.9,152.3-30.3c13.6-0.1,25.3-0.2,34.6-0.8c118.7-9.6,239.9-16.7,357.2-23.6
						c55.4-3.3,112.7-6.6,169.4-10.2c163.2-8.4,329.1-19.9,489.5-30.9c9.9-1.4,24.1-2.3,40.6-3.3c33.2-2.1,79-4.9,107.7-14.5
						c-42-6.6-86.1-7-129-7.2c-20-0.1-40.6-0.3-60.7-1.1c-130.6-6.8-264.7-6.3-394.3-5.8c-32.8,0.1-65.5,0.2-98.1,0.2
						c-36.9,0-74.4,0.3-110.7,0.6c-127.3,1-259,1.9-388.7-9c-10.9-1.1-23.2-1.9-36.3-2.8c-53.4-3.4-119.8-7.7-158.4-39.1
						c-2.7-2.2-4.2-5.6-4-9.1c0.2-3.5,2.1-6.7,5-8.6c51.3-32.6,139.4-32.4,210.2-32.2c18.8,0.1,36.5,0.1,51.5-0.5
						c162.6-9,328.8-10.9,489.5-12.6c40.5-0.4,81.2-0.9,121.9-1.5c163.4-2.8,323.5-2.8,493-2.8c15.3,0,31.1,0.4,47.9,0.9
						c43.8,1.1,92.3,2.4,135.9-4.5c-59-20.7-132.6-27-198.8-32.6c-25-2.1-48.7-4.1-70.8-6.8c-205.3-29.3-410.5-43.7-655.4-56.3
						c-37.7-1.8-76.6-3.1-114.3-4.4c-141.1-4.8-287.1-9.7-425.5-40.9c-38.2-8.5-62.6-17.5-65.6-36.2c-2.9-18.1,16.8-32.4,34.2-42.9
						c60.9-36,145.6-42.9,213.6-48.5l10.8-0.9c111.2-10.3,225.2-8.6,335.5-6.9c40.9,0.6,83.2,1.3,124.5,1.3c137,0,276.3-2.5,411-5
						c67.4-1.2,137.1-2.5,205.6-3.4c28.1-0.9,58.5,0,87.9,0.9c44.4,1.4,89.9,2.8,132.2-1.9c-27.7-6.7-58.2-10.2-88-13.7
						c-22.5-2.6-43.8-5.1-63.5-8.8l-21.2-3.2c-144.5-21.8-280.9-42.4-420-55.8c-143.7-16.6-291.1-25.1-433.7-33.3l-8-0.5
						c-6.7-0.5-13.8-1.1-21.2-1.8c-35-3.1-78.5-7-106.6,3.9c-5.6,2.2-11.9-0.6-14.1-6.3c-2.2-5.6,0.6-11.9,6.3-14.1
						c32.9-12.7,79.2-8.5,116.4-5.2c7.2,0.6,14.2,1.3,20.7,1.7l7.8,0.5c142.9,8.2,290.7,16.8,434.8,33.4
						c139.5,13.4,276.2,34.1,420.9,55.9l21.6,3.3c19.3,3.7,40.2,6.1,62.4,8.7c46.9,5.4,95.3,11,134.8,28.8c4.2,1.9,6.8,6.3,6.4,11
						c-0.4,4.6-3.8,8.5-8.3,9.6c-56.1,13.5-119.2,11.6-180.2,9.7c-30.4-0.9-59.1-1.8-86.7-0.9c-68.7,0.9-138.4,2.2-205.7,3.4
						c-134.8,2.5-274.2,5-411.4,5c-41.5,0-83.8-0.6-124.8-1.3c-109.7-1.6-223.1-3.4-333.2,6.8l-10.9,0.9
						c-65.8,5.4-147.6,12.1-204.2,45.5c-23.4,14.1-23.9,20.7-23.9,20.7c0.3,1.3,4.3,8.5,48.8,18.4c136.4,30.8,281.3,35.7,421.5,40.4
						c37.7,1.3,76.7,2.6,114.6,4.4c245.6,12.6,451.3,27,657.2,56.4c21.5,2.6,44.9,4.6,69.8,6.7c80.3,6.8,171.3,14.6,237.7,47.8
						c4,2,6.4,6.3,6,10.7c-0.4,4.5-3.5,8.2-7.8,9.5c-54.1,15.8-118.5,14.1-175.4,12.6c-16.6-0.4-32.3-0.9-47.3-0.9
						c-169.4,0-329.4,0-492.7,2.8c-40.8,0.6-81.5,1-122,1.5c-160.4,1.8-326.4,3.6-488.7,12.6c-15.6,0.6-33.6,0.6-52.6,0.5
						c-60.9-0.2-135.1-0.4-182.9,20.6c34.9,18.5,87.9,21.9,131.5,24.7c13.3,0.9,25.8,1.7,36.9,2.8c128.5,10.9,259.7,9.9,386.5,8.9
						c36.3-0.3,73.9-0.6,110.9-0.6c32.6,0,65.3-0.1,98.1-0.2c129.9-0.4,264.3-0.9,395.3,5.9c19.7,0.8,40.1,0.9,59.9,1
						c53.7,0.4,109.3,0.8,161.7,13.3c3.7,0.9,6.7,3.7,7.9,7.4c1.1,3.7,0.2,7.7-2.4,10.5c-24.2,26.6-91,30.7-144.8,34.1
						c-16,1-29.8,1.9-39.2,3.2c-0.3,0-0.5,0.1-0.8,0.1c-161,11.1-326.9,22.5-490.2,31c-56.6,3.6-114,7-169.4,10.2
						c-117.2,6.9-238.3,14-356.9,23.6c-10.2,0.6-22.1,0.7-36,0.8c-41.3,0.3-96,0.7-126.2,16.6c41.5,24,117.8,22,170,20.6
						c11.2-0.3,21.8-0.6,30.8-0.6c122.3,2.1,246.6-5.4,366.9-12.7c40.2-2.4,81.7-4.9,122.6-7C480.9,742.7,628.5,739,798,739
						c9.1,0,21.1-0.7,33.8-1.5c48.9-2.9,109.8-6.5,139.4,18.1c2.4,2,3.9,5,3.9,8.2c0.1,3.2-1.3,6.2-3.6,8.3
						c-24.6,22.2-68.3,26.8-103.3,30.5c-9.5,1-18.4,2-26.2,3.1c-14.1,1.9-28.3,3.7-42.6,5.4c132.6-5,261.5-7.4,393-7.4
						c8.9,0,17.9,0.1,26.9,0.2c44.6,0.4,90.7,0.8,134.2-8.4c5.9-1.2,11.7,2.5,12.9,8.4c1.2,5.9-2.5,11.7-8.4,12.9
						c-45.8,9.6-93.1,9.2-138.9,8.8c-9-0.1-17.9-0.2-26.7-0.2c-140.1,0-277.2,2.8-419.2,8.4c-55.4,1.3-112.3,2.2-167.4,3
						c-33.7,0.5-67.5,1-101.5,1.7C368.4,850.6,210.4,862.2,51.7,862.2z"/>
				</g>
			</g>
		</g>
		<g>
			
				<image style="overflow:visible;opacity:0.75;" width="3136" height="3137" xlink:href="DE645C49.png"  transform="matrix(0.24 0 0 0.24 91.63 98.84)">
			</image>
			<g>
				
					<linearGradient id="SVGID_00000172429303471225369210000004950001882925911956_" gradientUnits="userSpaceOnUse" x1="467.9902" y1="838.5607" x2="467.9902" y2="106.0339">
					<stop  offset="0" style="stop-color:#6B3710"/>
					<stop  offset="1" style="stop-color:#8E501C"/>
				</linearGradient>
				<circle style="fill:url(#SVGID_00000172429303471225369210000004950001882925911956_);" cx="468" cy="472.3" r="366.3"/>
			</g>
		</g>
		<g>
			
				<linearGradient id="SVGID_00000170253983455798769680000006540698509830853249_" gradientUnits="userSpaceOnUse" x1="467.9901" y1="812.0949" x2="467.9901" y2="132.4997">
				<stop  offset="0" style="stop-color:#CE6F1B"/>
				<stop  offset="1" style="stop-color:#F4C206"/>
			</linearGradient>
			<circle style="fill:url(#SVGID_00000170253983455798769680000006540698509830853249_);" cx="468" cy="472.3" r="339.8"/>
		</g>
		<g>
			
				<linearGradient id="SVGID_00000131367159084605954620000010824438147524594346_" gradientUnits="userSpaceOnUse" x1="467.9901" y1="778.3002" x2="467.9901" y2="166.2944">
				<stop  offset="0" style="stop-color:#FFD800;stop-opacity:0"/>
				<stop  offset="0.1441" style="stop-color:#FFD809;stop-opacity:0.1441"/>
				<stop  offset="0.3788" style="stop-color:#FFD821;stop-opacity:0.3788"/>
				<stop  offset="0.6747" style="stop-color:#FFD849;stop-opacity:0.6747"/>
				<stop  offset="1" style="stop-color:#FFD87C"/>
			</linearGradient>
			<circle style="fill:url(#SVGID_00000131367159084605954620000010824438147524594346_);" cx="468" cy="472.3" r="306"/>
		</g>
		<g class="st13">
			<path class="st14" d="M468,145.1c185.6,0,336.4,148.7,339.7,333.5c0-2.1,0.1-4.2,0.1-6.3c0-187.7-152.1-339.8-339.8-339.8
				S128.2,284.6,128.2,472.3c0,2.1,0,4.2,0.1,6.3C131.6,293.8,282.4,145.1,468,145.1z"/>
		</g>
		<g>
			<path class="st6" d="M468,65.3c162.5,0,304.4,84.4,380.3,209.8C776.9,137.8,633.4,44,468,44c-165.4,0-308.9,93.8-380.3,231.1
				C163.6,149.7,305.5,65.3,468,65.3z"/>
		</g>
		<path class="st15" d="M468,746.3c-113.9,0-213.9-59.3-270.9-148.7c-12.7-19.9-22.7-15.8-14.4,6.4
			C225.8,719.8,337.3,802.2,468,802.2c132,0,244.4-84.1,286.6-201.6c7.6-21.2-0.4-28-11.1-10.2C687.3,683.8,584.9,746.3,468,746.3z"
			/>
		
			<linearGradient id="SVGID_00000002349404421259133510000006505112274164736182_" gradientUnits="userSpaceOnUse" x1="489.8963" y1="208.6013" x2="697.5522" y2="328.4915">
			<stop  offset="0" style="stop-color:#FFFFFF"/>
			<stop  offset="1" style="stop-color:#FFFFFF;stop-opacity:0.4"/>
		</linearGradient>
		<path style="opacity:0.6;fill:url(#SVGID_00000002349404421259133510000006505112274164736182_);" d="M667.4,351.4
			c-9.5,0-18.8-4.6-24.4-13c-19.2-28.7-51.9-50.2-65.1-55.3c-15.1-5.9-22.7-22.9-16.8-38c5.9-15.1,22.9-22.7,38-16.8
			c26.8,10.4,68.4,41,92.8,77.4c9,13.5,5.4,31.7-8.1,40.8C678.7,349.8,673,351.4,667.4,351.4z M513.8,197.4
			c-16.7,0-30.2,13.5-30.2,30.2s13.5,30.2,30.2,30.2c16.7,0,30.2-13.5,30.2-30.2S530.5,197.4,513.8,197.4z"/>
		<g>
			<g>
				<path class="st25" d="M364.1,658.7c-21.5,0-39-17.5-39-39V513.8h-25.4c-9.1,0-17.1-5.1-20.8-13.4s-2.4-17.7,3.6-24.5
					l168.3-192.9c4.4-5,10.6-7.8,17.3-7.8s12.9,2.9,17.3,7.8l168.3,192.9c6,6.9,7.4,16.3,3.6,24.5c-3.8,8.3-11.8,13.4-20.8,13.4
					h-25.4v105.9c0,21.5-17.5,39-39,39H364.1z M431.4,513.8c-5.8,0-10.5,4.7-10.5,10.5v73.1c0,5.8,4.7,10.5,10.5,10.5h73.1
					c5.8,0,10.5-4.7,10.5-10.5v-73.1c0-5.8-4.7-10.5-10.5-10.5H431.4z"/>
			</g>
			<g>
				<path class="st26" d="M468,276c6.1,0,12.1,2.5,16.5,7.5l168.3,192.9c12.4,14.2,2.3,36.3-16.5,36.3h-26.4v106.9c0,21-17,38-38,38
					H364.1c-21,0-38-17-38-38V512.8h-26.4c-18.8,0-28.9-22.1-16.5-36.3l168.3-192.9C455.9,278.5,461.9,276,468,276 M431.4,608.8
					h73.1c6.3,0,11.5-5.1,11.5-11.5v-73.1c0-6.3-5.1-11.5-11.5-11.5h-73.1c-6.3,0-11.5,5.1-11.5,11.5v73.1
					C420,603.7,425.1,608.8,431.4,608.8 M468,274c-6.9,0-13.5,3-18,8.2L281.7,475.1c-6.2,7.2-7.7,17-3.7,25.6
					c3.9,8.6,12.3,14,21.8,14h24.4v104.9c0,22.1,18,40,40,40h207.8c22.1,0,40-18,40-40V514.8h24.4c9.5,0,17.8-5.4,21.8-14
					c3.9-8.6,2.5-18.5-3.7-25.6L486,282.2C481.5,277,474.9,274,468,274L468,274z M431.4,606.8c-5.2,0-9.5-4.3-9.5-9.5v-73.1
					c0-5.2,4.3-9.5,9.5-9.5h73.1c5.2,0,9.5,4.3,9.5,9.5v73.1c0,5.2-4.3,9.5-9.5,9.5H431.4L431.4,606.8z"/>
			</g>
		</g>
	</g>
</g>
<g id="Layer_2" class="st0">
	<g class="st1">
		<g>
			
				<linearGradient id="SVGID_00000114031195135233668880000008468849667704863649_" gradientUnits="userSpaceOnUse" x1="467.375" y1="921.5781" x2="467.375" y2="12.4849">
				<stop  offset="0" style="stop-color:#462B10"/>
				<stop  offset="1" style="stop-color:#6B3710"/>
			</linearGradient>
			<path style="fill:url(#SVGID_00000114031195135233668880000008468849667704863649_);" d="M467.4,921.6
				c-61.4,0-120.9-12-176.9-35.7C236.3,863,187.7,830.2,146,788.4c-41.7-41.7-74.5-90.4-97.4-144.5c-23.7-56-35.7-115.6-35.7-176.9
				s12-120.9,35.7-176.9C71.4,236,104.2,187.4,146,145.6c41.7-41.7,90.4-74.5,144.5-97.4c56-23.7,115.6-35.7,176.9-35.7
				c61.4,0,120.9,12,176.9,35.7c54.1,22.9,102.7,55.7,144.5,97.4c41.7,41.7,74.5,90.4,97.4,144.5c23.7,56,35.7,115.6,35.7,176.9
				s-12,120.9-35.7,176.9c-22.9,54.1-55.7,102.7-97.4,144.5c-41.7,41.7-90.4,74.5-144.5,97.4C588.3,909.6,528.7,921.6,467.4,921.6z"
				/>
			<g>
				<path class="st3" d="M467.4,16c249.1,0,451,201.9,451,451c0,249.1-201.9,451-451,451c-249.1,0-451-201.9-451-451
					C16.3,217.9,218.3,16,467.4,16 M467.4,9c-61.8,0-121.8,12.1-178.3,36c-54.5,23.1-103.5,56.1-145.6,98.2
					c-42.1,42.1-75.1,91-98.2,145.6c-23.9,56.5-36,116.5-36,178.3s12.1,121.8,36,178.3c23.1,54.5,56.1,103.5,98.2,145.6
					c42.1,42.1,91,75.1,145.6,98.2c56.5,23.9,116.5,36,178.3,36s121.8-12.1,178.3-36c54.5-23.1,103.5-56.1,145.6-98.2
					c42.1-42.1,75.1-91,98.2-145.6c23.9-56.5,36-116.5,36-178.3s-12.1-121.8-36-178.3c-23.1-54.5-56.1-103.5-98.2-145.6
					c-42.1-42.1-91-75.1-145.6-98.2C589.2,21.1,529.2,9,467.4,9L467.4,9z"/>
			</g>
		</g>
		<g>
			
				<linearGradient id="SVGID_00000134942162836410793380000002890885156529789863_" gradientUnits="userSpaceOnUse" x1="467.3747" y1="893.1476" x2="467.3747" y2="40.9149">
				<stop  offset="0" style="stop-color:#A66017"/>
				<stop  offset="1" style="stop-color:#F7A537"/>
			</linearGradient>
			<circle style="fill:url(#SVGID_00000134942162836410793380000002890885156529789863_);" cx="467.4" cy="467" r="426.1"/>
		</g>
		<g class="st5">
			<path class="st6" d="M467.4,870.2c231.5,0,419.9-184.6,426-414.6c0.1,3.8,0.2,7.6,0.2,11.5c0,235.3-190.8,426.1-426.1,426.1
				C232,893.1,41.3,702.4,41.3,467c0-3.8,0.1-7.7,0.2-11.5C47.5,685.6,235.9,870.2,467.4,870.2z"/>
		</g>
		<g>
			<defs>
				
					<ellipse id="SVGID_00000164473115560114061280000013526807488792605095_" transform="matrix(0.7071 -0.7071 0.7071 0.7071 -193.3502 467.2741)" cx="467.4" cy="467" rx="426.1" ry="426.1"/>
			</defs>
			<clipPath id="SVGID_00000155824795934741427710000008469196613327854223_">
				<use xlink:href="#SVGID_00000164473115560114061280000013526807488792605095_"  style="overflow:visible;"/>
			</clipPath>
			<g style="clip-path:url(#SVGID_00000155824795934741427710000008469196613327854223_);">
				<g class="st8">
					<path class="st9" d="M-120.4,37.1c48.5-11.5,104.7-3,154.1-1.2c58.9,2.2,117.8,7.6,176.4,13.6
						c118.8,12.2,237.1,26.3,356.3,34.1c119.9,7.9,240,12.1,359.9,19c55,3.1,106.9,6.1,162,7.1c54.8,1,104.2,4.4,158.4,23.8
						c0-20.9,0-41.8,0-62.8c-54.2,18.3-105.5,19.9-161,20.7c-60,0.9-118,6.5-177.8,11.2c-130.7,10.2-261,17-391.9,22.2
						c-127.5,5-254.6,4.1-382.2,3.6c-61.9-0.2-123.7,0.6-185.6,1.1c-61,0.4-122.4,4.4-181.3,21c-24.9,7-34.7,47.5-7.7,59.5
						c46.1,20.5,95.2,25.8,145.3,28.3c60.1,3,119.7,7.3,179.8,12.3c131.5,10.9,263.4,18,395.3,23.3c131.4,5.3,262.9,9.9,394.2,17.3
						c62,3.5,124,9.2,186.1,12.1c60.7,2.9,121.9,0.6,181.1,16.4c-2.6-19.8-5.2-39.7-7.8-59.5c-45.6,19.7-99.9,16.3-148.4,16.5
						c-60.7,0.3-121,7.6-181.4,13.2c-134.9,12.6-269.9,24.6-405.1,34.8c-129.7,9.8-260.1,12.9-390,18.9
						c-66.2,3.1-132.9,9.2-199.1,8.1c-61.9-1-124-2.6-184.1,14.8c-36.6,10.6-27.2,61.3,8.7,63.9c225.8,16.3,452.1-17.4,677.7-23.6
						c237.3-6.4,474.8-6.5,712.1-9.7c41.9-0.6,42-65.1,0-65.1c-240.5,0.2-481,14.7-720.6,34.4c-121.9,10-243.9,18.8-365.6,30.9
						c-96.2,9.6-202.4-2.9-292,38.8c-23,10.7-19.3,44.5,0,56.2c39.5,23.9,86.4,28,131.6,28.1c52.4,0.2,104.3-3.5,156.8-2.1
						c136,3.6,272,2,407.9-1.9c131.9-3.7,263.8-6.9,395.8-8.6c65.6-0.8,126.8,0.6,192.4-1.7c57.4-2,113.9-10.6,168.2,2.7
						c0-20.9,0-41.8,0-62.8c-113.9,20.1-230.3,27-348.4,32.4c-117,5.3-231.2,11.6-347.9,21.3c-227.3,18.9-455.9,17-679.8,65.9
						c-37.9,8.3-25.5,61.2,9.2,63.9c227.7,17.6,454.9-17.9,682.1-27.9c109-4.8,218.5-6.6,327.6-10.4c111.1-3.8,223.7-3.9,332.7,20.5
						c2.9-21.3,5.8-42.6,8.7-63.9c-258.6,30-519.2,29.5-778.2,54.2C274.4,614.6,144.5,625,14.8,636.3c-59.9,5.2-119.5,12-179.6,12.7
						c-56.7,0.7-114.7,1.5-169,19.9c-29.9,10.1-32.1,53.6,0,62.8c50.4,14.4,102.5,14.4,154.5,12.6c59.1-2,118.1-1.7,177.2-3.3
						c121.8-3.3,243.4-11.1,365.1-16.4c122.7-5.4,245.4-8.9,368.2-10.6c59.9-0.8,117.5,0,177.3-1.4c50.3-1.1,94.2-8.2,148.4,5.7
						c0-20.9,0-41.8,0-62.8c-43.4,10.6-84.6,12.1-128.7,14.3c-48.4,2.4-95.5,9.2-143.7,13.9c-94.4,9.1-188.3,17.6-282.5,28.6
						c-184.1,21.4-368.7,38.5-550.4,76.1c-36.6,7.6-27.3,64,8.8,63.9c190.2-0.5,378.7-29.2,568.2-42.8
						c94.2-6.8,188.6-9.4,283.1-10.1c44.2-0.3,88.5,0.3,132.7-0.5c41.4-0.8,82.9-4.4,122.7,9c-2.6-19.8-5.2-39.7-7.8-59.5
						c-30.9,19.2-69.3,19.6-104.6,22.4c-48.7,3.8-97.2,12.1-145.8,17.9c-101.7,12-203.6,21.3-305.5,30.8
						c-206.8,19.2-415.1,14.2-621.3,40.9c-40.5,5.2-43.1,63.7,0,65.1c99.8,3.3,200.1-13.5,299.3-22.7C287,893.1,392.6,885,498.5,880
						c105.8-5.1,211.7-5.2,317.6-3.8c107.4,1.4,215,7.1,321.1,25c41,6.9,58.6-55.8,17.3-62.8c-208.3-35.1-424.4-33.2-634.9-24.4
						c-105.8,4.4-215.2,12.5-320.7,21.9c-106.2,9.5-216,28.2-324.5,24.6c0,21.7,0,43.4,0,65.1c211.5-27.1,425.4-22.3,635.6-41.8
						c105.5-9.8,212.9-19.8,318.1-32.3c46.9-5.6,94.6-12.9,141.7-16.6c41.8-3.3,85.5-7.4,121.9-30c24.7-15.3,19.1-50.5-7.5-59.5
						c-36.6-12.3-75.1-13-113.3-12.1c-46.1,1-92.1,0.9-138.2,1.1c-98,0.4-195.8,3.1-293.6,9.5c-193,12.6-384.7,43-578.5,43.5
						c2.9,21.3,5.8,42.6,8.7,63.9c182.7-37.8,368.7-54.5,553.8-76.2c94.3-11.1,189-19,283.5-28.2c44.7-4.4,89.3-10.1,134.1-12.4
						c46.4-2.3,92.9-5,138.2-16.2c31.8-7.8,30.3-54.1,0-62.8c-46.1-13.1-94-11.2-141.4-9.1c-57.8,2.6-115.9,1.4-173.7,2
						c-122.8,1.3-245.6,5-368.3,9.7c-121.8,4.7-243.4,12.5-365.2,16.7c-60,2.1-124.8,1.7-184.7,3.3c-56,1.5-117.4,6.3-171.6-9.3
						c0,20.9,0,41.8,0,62.8c54.2-17.6,111.4-17,165.6-17.6c60.6-0.7,123.3-8.3,183.6-13.5c126.2-11,253.8-21.2,379.9-33.1
						c259-24.5,520.2-24.2,778.8-54.2c33.9-3.9,47.7-55.3,9-63.9c-105-23.5-212.6-26.2-319.8-23.7c-112.3,2.7-224.6,6.8-336.8,10.5
						c-234.3,7.7-467.6,46.8-702.3,28.7c2.9,21.3,5.8,42.6,8.7,63.9c224.5-49.1,455.5-45.6,683.4-65.3
						c233.2-20.1,469.5-14.5,700.7-54.3c32.2-5.6,30.1-55.7,0-62.8c-53.8-12.7-108.5-9.6-163.2-6.4c-63.8,3.7-128,2.1-191.9,2.7
						c-131.9,1.4-263.9,3.8-395.8,8c-132.4,4.2-264.8,6.1-397.2,3.8c-53.6-0.9-109.9-2.6-163.4,0c-45.2,2.2-103.7,6.3-141.7-18.1
						c0,18.7,0,37.5,0,56.2c38-19.1,91.5-20.6,136-22c53.3-1.7,107.4-6,160.5-11.1c118.1-11.4,234-19.7,352.2-29.5
						c232.4-19.3,463.3-32.4,696.5-32.6c0-21.7,0-43.4,0-65.1c-238.7,3.2-471.4,3.4-708.7,9.7c-225.6,5.9-450.1,39.9-675.9,23.6
						c2.9,21.3,6.6,42.6,9.5,63.9c60.7-17.5,124.3-12.9,186.7-12.2c66.6,0.8,134.4-6.3,201-9.4c133.6-6.2,267.7-10.2,401.1-20.4
						c135-10.4,269.9-22.7,404.7-35.3c58.8-5.5,116.6-10,175.6-10.4c53.3-0.4,106-3.9,155.4-25.3c26.9-11.6,17.2-52.8-7.8-59.5
						c-55.3-14.8-112.7-16-169.6-17.7c-61-1.8-121.9-7.6-182.8-11.3c-131.3-8-262.8-13-394.3-17.9c-128.3-4.8-256.4-11.4-384.4-21.1
						c-60.2-4.5-120.4-12.2-180.7-14.2c-50.7-1.7-106.9,0.1-154.2-20.9c-2.6,19.8-5.2,39.7-7.8,59.5c56.7-16,115-18.3,173.6-18.7
						c62.3-0.5,124.6-1.2,186.9-0.9c131.2,0.5,262.1,0.8,393.3-4.5c127.4-5.1,254.7-12.2,381.8-22.1c59.4-4.6,118.2-9.7,177.8-10.5
						c57.8-0.8,116.7-3.9,171.7-22.9c31.6-10.9,30.3-51.4,0-62.8C1169,33.1,1052.8,45.2,947.6,38.8C824.1,31.3,700.4,27,576.9,19.3
						C454.2,11.6,332.3-2.8,210.1-15.6C148-22,85.7-27.2,23.3-29.5c-52.8-2-109.1-8.4-161.1,3.9C-178.6-16-161.3,46.8-120.4,37.1
						L-120.4,37.1z"/>
				</g>
				<g class="st8">
					<path class="st9" d="M53.2,855c-5.8,0-10.5-4.5-10.8-10.3C42,839,46.3,834,52,833.3c147.5-15.8,300.1-20.6,450.2-23.4
						c7-0.6,13.9-1.2,20.7-1.8l11.6-0.9c99.4-8,202.2-16.4,301.7-29.8c8-1.2,17.2-2.2,26.9-3.2c25.5-2.7,56.1-5.9,77.1-16.1
						c-27.6-10.3-74.1-7.5-109.7-5.4c-12.9,0.8-25.2,1.5-34.9,1.5c-168.2,0-314.7,3.7-447.7,11.2c-40.6,2.1-81.9,4.6-121.8,7
						C106.1,779.5-18,787-140.3,784.9c-8.5,0-18.9,0.3-29.9,0.6c-64.3,1.7-152.3,4.1-195.6-34.1c-2.3-2-3.6-4.9-3.7-8
						c0-3.1,1.2-6,3.5-8.1c31.7-29.3,101-29.8,151.6-30.1c13.5-0.1,25.1-0.2,34.4-0.8C-62,694.9,58.7,687.8,175.4,681
						c55.1-3.2,112.1-6.6,168.5-10.2c162.4-8.4,327.4-19.8,487-30.8c9.8-1.4,24-2.3,40.4-3.3c33-2.1,78.6-4.9,107.2-14.4
						c-41.8-6.6-85.6-6.9-128.4-7.2c-19.9-0.1-40.4-0.3-60.4-1c-129.9-6.7-263.3-6.3-392.3-5.8c-32.6,0.1-65.2,0.2-97.6,0.2
						c-36.7,0-74,0.3-110.1,0.6C63,609.9-68,610.9-197.1,600c-10.8-1.1-23.1-1.9-36.1-2.8c-53.1-3.4-119.2-7.7-157.6-38.9
						c-2.7-2.2-4.2-5.6-4-9c0.2-3.5,2.1-6.7,5-8.5c51-32.5,138.7-32.2,209.1-32c18.7,0.1,36.4,0.1,51.3-0.5
						c161.8-9,327.1-10.8,487-12.6c40.3-0.4,80.8-0.9,121.3-1.4c162.6-2.8,321.9-2.8,490.5-2.8c15.2,0,31,0.4,47.6,0.9
						c43.6,1.1,91.9,2.4,135.2-4.4c-58.8-20.6-132-26.8-197.8-32.4c-24.9-2.1-48.4-4.1-70.4-6.8c-204.3-29.2-408.4-43.5-652.1-56
						c-37.5-1.8-76.2-3.1-113.7-4.4c-140.4-4.7-285.7-9.6-423.3-40.7c-38-8.5-62.3-17.4-65.3-36c-2.9-18,16.7-32.3,34.1-42.7
						c60.6-35.8,144.8-42.7,212.5-48.3l10.8-0.9c110.6-10.2,224.1-8.5,333.8-6.9c40.7,0.6,82.8,1.2,123.9,1.2
						c136.3,0,274.9-2.5,408.9-5c67.1-1.2,136.4-2.5,204.6-3.4c28-0.9,58.2,0,87.4,0.9c44.2,1.4,89.4,2.8,131.5-1.9
						c-27.6-6.7-57.9-10.2-87.6-13.6c-22.4-2.6-43.6-5-63.2-8.8l-21.1-3.2c-143.7-21.7-279.5-42.2-417.9-55.5
						c-142.9-16.5-289.7-25-431.5-33.1l-8-0.5c-6.7-0.5-13.7-1.1-21.1-1.8C92,85.2,48.7,81.3,20.6,92.1c-5.6,2.1-11.9-0.6-14-6.2
						c-2.2-5.6,0.6-11.9,6.2-14c32.7-12.6,78.8-8.5,115.8-5.2c7.2,0.6,14.1,1.3,20.6,1.7l7.8,0.5C299.2,77,446.2,85.5,589.6,102
						c138.8,13.3,274.8,33.9,418.8,55.6l21.5,3.2c19.2,3.7,40,6.1,62.1,8.6c46.6,5.4,94.8,11,134.1,28.6c4.2,1.9,6.8,6.3,6.3,10.9
						c-0.4,4.6-3.7,8.5-8.3,9.5c-55.8,13.5-118.6,11.5-179.3,9.6c-30.2-0.9-58.8-1.8-86.3-0.9c-68.4,0.9-137.7,2.2-204.7,3.4
						c-134.1,2.5-272.8,5-409.3,5c-41.3,0-83.4-0.6-124.2-1.2c-109.1-1.6-222-3.3-331.5,6.8l-10.9,0.9
						c-65.4,5.4-146.9,12-203.1,45.3c-23.3,14-23.7,20.5-23.7,20.6c0.3,1.3,4.3,8.5,48.6,18.3C-164.6,357-20.4,361.9,119,366.6
						c37.5,1.3,76.3,2.6,114,4.4c244.4,12.5,449,26.9,653.9,56.1c21.4,2.6,44.7,4.6,69.4,6.7c79.9,6.8,170.4,14.5,236.5,47.6
						c4,2,6.4,6.2,6,10.7c-0.4,4.4-3.5,8.2-7.8,9.4c-53.8,15.7-117.9,14-174.5,12.5c-16.5-0.4-32.1-0.9-47.1-0.9
						c-168.5,0-327.7,0-490.2,2.8c-40.6,0.6-81,1-121.4,1.4c-159.6,1.8-324.7,3.6-486.2,12.6c-15.5,0.6-33.4,0.6-52.4,0.5
						c-60.6-0.2-134.4-0.4-182,20.5c34.7,18.4,87.4,21.8,130.9,24.6c13.2,0.8,25.7,1.7,36.7,2.8c127.9,10.8,258.3,9.9,384.5,8.9
						c36.1-0.3,73.5-0.6,110.3-0.6c32.4,0,65-0.1,97.6-0.2c129.3-0.4,263-0.9,393.3,5.8c19.6,0.8,39.9,0.9,59.6,1
						c53.5,0.4,108.8,0.7,160.9,13.3c3.7,0.9,6.7,3.7,7.8,7.4c1.1,3.7,0.2,7.7-2.3,10.5c-24,26.4-90.6,30.6-144.1,33.9
						c-15.9,1-29.7,1.8-39,3.2c-0.3,0-0.5,0.1-0.8,0.1c-160.1,11-325.3,22.4-487.7,30.8c-56.4,3.6-113.4,6.9-168.5,10.2
						c-116.6,6.8-237.1,13.9-355.1,23.4c-10.1,0.6-22,0.7-35.8,0.8c-41.1,0.3-95.5,0.7-125.6,16.5c41.3,23.9,117.2,21.8,169.1,20.4
						c11.2-0.3,21.7-0.6,30.7-0.6c121.7,2.1,245.4-5.4,365-12.6c40-2.4,81.3-4.9,121.9-7c133.4-7.6,280.2-11.2,448.9-11.2
						c9.1,0,21-0.7,33.6-1.5c48.7-2.9,109.3-6.5,138.6,18c2.4,2,3.8,5,3.9,8.1c0.1,3.1-1.2,6.2-3.6,8.3
						c-24.5,22.1-67.9,26.7-102.8,30.3c-9.4,1-18.4,1.9-26.1,3.1c-14.1,1.9-28.2,3.7-42.4,5.4c131.9-5,260.2-7.4,391-7.4
						c8.9,0,17.8,0.1,26.8,0.2c44.4,0.4,90.3,0.8,133.5-8.3c5.9-1.2,11.6,2.5,12.9,8.4c1.2,5.9-2.5,11.6-8.4,12.9
						c-45.6,9.6-92.6,9.2-138.2,8.8c-8.9-0.1-17.8-0.2-26.6-0.2c-139.4,0-275.8,2.7-417.1,8.4c-55.1,1.3-111.8,2.2-166.5,3
						c-33.5,0.5-67.2,1-101,1.6C368.3,843.5,211.1,855,53.2,855z"/>
				</g>
			</g>
		</g>
		<g>
			
				<image style="overflow:visible;opacity:0.75;" width="3121" height="3121" xlink:href="DE645C4F.png"  transform="matrix(0.24 0 0 0.24 92.83 95.52)">
			</image>
			<g>
				
					<linearGradient id="SVGID_00000138567423034185732030000014512042634440493697_" gradientUnits="userSpaceOnUse" x1="467.375" y1="831.4415" x2="467.375" y2="102.621">
					<stop  offset="0" style="stop-color:#6B3710"/>
					<stop  offset="1" style="stop-color:#8E501C"/>
				</linearGradient>
				<circle style="fill:url(#SVGID_00000138567423034185732030000014512042634440493697_);" cx="467.4" cy="467" r="364.4"/>
			</g>
		</g>
		<g>
			
				<linearGradient id="SVGID_00000170259729680053098130000011083391906417175447_" gradientUnits="userSpaceOnUse" x1="467.3749" y1="805.1096" x2="467.3749" y2="128.9529">
				<stop  offset="0" style="stop-color:#CE6F1B"/>
				<stop  offset="1" style="stop-color:#F4C206"/>
			</linearGradient>
			<circle style="fill:url(#SVGID_00000170259729680053098130000011083391906417175447_);" cx="467.4" cy="467" r="338.1"/>
		</g>
		<g>
			
				<linearGradient id="SVGID_00000143612395511866487630000018426011402158481853_" gradientUnits="userSpaceOnUse" x1="467.3749" y1="771.4859" x2="467.3749" y2="162.5766">
				<stop  offset="0" style="stop-color:#FFD800;stop-opacity:0"/>
				<stop  offset="0.1441" style="stop-color:#FFD809;stop-opacity:0.1441"/>
				<stop  offset="0.3788" style="stop-color:#FFD821;stop-opacity:0.3788"/>
				<stop  offset="0.6747" style="stop-color:#FFD849;stop-opacity:0.6747"/>
				<stop  offset="1" style="stop-color:#FFD87C"/>
			</linearGradient>
			<circle style="fill:url(#SVGID_00000143612395511866487630000018426011402158481853_);" cx="467.4" cy="467" r="304.5"/>
		</g>
		<g class="st13">
			<path class="st14" d="M467.4,141.5c184.6,0,334.7,148,338,331.8c0-2.1,0.1-4.2,0.1-6.3c0-186.7-151.4-338.1-338.1-338.1
				C280.7,129,129.3,280.3,129.3,467c0,2.1,0,4.2,0.1,6.3C132.7,289.5,282.8,141.5,467.4,141.5z"/>
		</g>
		<g>
			<path class="st6" d="M467.4,62.1c161.7,0,302.8,84,378.3,208.8C774.7,134.2,632,40.9,467.4,40.9C302.8,40.9,160,134.2,89,270.9
				C164.5,146.1,305.7,62.1,467.4,62.1z"/>
		</g>
		<path class="st15" d="M467.4,739.7c-113.3,0-212.8-59-269.6-147.9c-12.6-19.8-22.5-15.7-14.3,6.4
			c42.9,115.1,153.8,197.1,283.8,197.1c131.4,0,243.2-83.6,285.1-200.6c7.6-21.1-0.4-27.8-11.1-10.2
			C685.6,677.5,583.7,739.7,467.4,739.7z"/>
		
			<linearGradient id="SVGID_00000088843330279686891860000008372546121010815873_" gradientUnits="userSpaceOnUse" x1="489.1705" y1="204.6695" x2="695.7755" y2="323.953">
			<stop  offset="0" style="stop-color:#FFFFFF"/>
			<stop  offset="1" style="stop-color:#FFFFFF;stop-opacity:0.4"/>
		</linearGradient>
		<path style="opacity:0.6;fill:url(#SVGID_00000088843330279686891860000008372546121010815873_);" d="M665.7,346.8
			c-9.4,0-18.7-4.6-24.3-13c-19.1-28.6-51.7-49.9-64.8-55c-15.1-5.8-22.6-22.8-16.7-37.8c5.8-15.1,22.8-22.5,37.8-16.7
			c26.6,10.3,68.1,40.8,92.3,77c9,13.4,5.4,31.6-8,40.6C677,345.2,671.3,346.8,665.7,346.8z M513,193.5c-16.6,0-30,13.4-30,30
			s13.4,30,30,30c16.6,0,30-13.4,30-30S529.6,193.5,513,193.5z"/>
		<g>
			<g>
				<g>
					<path class="st25" d="M485.4,318.7c-1.9-7.6-8.4-14.8-17.6-15.6c-4.5-0.4-9.8,0.6-16,4.2c0,0-103.4,84.5-107.9,88.6H287
						c-13.7,0-24.8,10.4-24.8,23.2v142.2c0,12.9,11.1,23.2,24.8,23.2h56.9c4.5,4.2,107.9,85.7,107.9,85.7c6.2,3.5,11.5,4.6,16,4.1
						c9.2-0.8,15.6-8,17.6-15.6C485.6,658,485.6,319.4,485.4,318.7z"/>
				</g>
				<g>
					<path class="st34" d="M485.4,318.7c-1.9-7.6-8.4-14.8-17.6-15.6c-4.5-0.4-9.8,0.6-16,4.2c0,0-103.4,84.5-107.9,88.6H287
						c-13.7,0-24.8,10.4-24.8,23.2v142.2c0,12.9,11.1,23.2,24.8,23.2h56.9c4.5,4.2,107.9,85.7,107.9,85.7c6.2,3.5,11.5,4.6,16,4.1
						c9.2-0.8,15.6-8,17.6-15.6C485.6,658,485.6,319.4,485.4,318.7z"/>
				</g>
			</g>
			<path class="st17" d="M630.7,488.7l36.1-36.1c7.7-7.7,7.7-20.1,0-27.7c-7.7-7.7-20.1-7.7-27.7,0L602.9,461l-36.1-36.1
				c-7.7-7.7-20.1-7.7-27.7,0c-7.7,7.7-7.7,20.1,0,27.7l36.1,36.1l-36.1,36.1c-7.7,7.7-7.7,20.1,0,27.7c7.7,7.7,20.1,7.7,27.7,0
				l36.1-36.1l36.1,36.1c7.7,7.7,20.1,7.7,27.7,0c7.7-7.7,7.7-20.1,0-27.7L630.7,488.7z"/>
		</g>
	</g>
</g>
</svg>
