<?xml version="1.0" encoding="utf-8"?>
<!-- Generator: Adobe Illustrator 26.3.0, SVG Export Plug-In . SVG Version: 6.00 Build 0)  -->
<svg version="1.1" xmlns="http://www.w3.org/2000/svg" xmlns:xlink="http://www.w3.org/1999/xlink" x="0px" y="0px"
	 viewBox="0 0 934.8 934.1" style="enable-background:new 0 0 934.8 934.1;" xml:space="preserve">
<style type="text/css">
	.st0{fill:url(#SVGID_1_);}
	.st1{fill:#FFFFFF;}
	.st2{fill:url(#SVGID_00000116234341167319149440000017729833336637777288_);}
	.st3{opacity:0.6;}
	.st4{fill:#B28760;}
	.st5{clip-path:url(#SVGID_00000153704954101001364510000016045054968444380580_);}
	.st6{opacity:0.2;}
	.st7{fill:#6B3710;}
	.st8{fill:url(#SVGID_00000038414397391283670520000018092034741857405357_);}
	.st9{fill:url(#SVGID_00000110459679570739889820000016622100908295699606_);}
	.st10{fill:url(#SVGID_00000036216918258908733190000013925883880913906604_);}
	.st11{opacity:0.5;}
	.st12{fill:#E0BF77;}
	.st13{opacity:0.5;fill:#C4580E;}
	.st14{opacity:0.6;fill:url(#SVGID_00000112615300260252483860000009461671584240314513_);}
	.st15{fill:#F2D9C7;}
	.st16{fill:none;stroke:#9B450B;stroke-width:2;stroke-linecap:round;stroke-linejoin:round;stroke-miterlimit:10;}
	.st17{fill:url(#SVGID_00000158014611907002717040000014794848420482421949_);}
	.st18{fill:url(#SVGID_00000042006681207684843830000005065283748798260892_);}
	.st19{clip-path:url(#SVGID_00000012437136346216527420000000810515232547504815_);}
	.st20{fill:url(#SVGID_00000001640461129376068580000012787958112832909193_);}
	.st21{fill:url(#SVGID_00000015337846249119586480000005042738960843377076_);}
	.st22{fill:url(#SVGID_00000162343265955311708150000012678558274390234012_);}
	.st23{opacity:0.6;fill:url(#SVGID_00000170994813555203061220000010544465909814091656_);}
	.st24{fill:#F2D9C7;stroke:#9B450B;stroke-width:2;stroke-linecap:round;stroke-linejoin:round;stroke-miterlimit:10;}
</style>
<g id="Layer_1">
	<g>
		<g>
			<linearGradient id="SVGID_1_" gradientUnits="userSpaceOnUse" x1="467.375" y1="921.5781" x2="467.375" y2="12.4844">
				<stop  offset="0" style="stop-color:#462B10"/>
				<stop  offset="1" style="stop-color:#6B3710"/>
			</linearGradient>
			<path class="st0" d="M467.4,921.6c-61.4,0-120.9-12-176.9-35.7C236.3,863,187.7,830.2,146,788.4c-41.7-41.7-74.5-90.4-97.4-144.5
				c-23.7-56-35.7-115.6-35.7-176.9c0-61.4,12-120.9,35.7-176.9C71.4,236,104.2,187.4,146,145.6s90.4-74.5,144.5-97.4
				c56-23.7,115.6-35.7,176.9-35.7c61.4,0,120.9,12,176.9,35.7c54.1,22.9,102.7,55.7,144.5,97.4c41.7,41.7,74.5,90.4,97.4,144.5
				c23.7,56,35.7,115.6,35.7,176.9c0,61.4-12,120.9-35.7,176.9c-22.9,54.1-55.7,102.7-97.4,144.5c-41.7,41.7-90.4,74.5-144.5,97.4
				C588.3,909.6,528.7,921.6,467.4,921.6z"/>
			<g>
				<path class="st1" d="M467.4,16c249.1,0,451,201.9,451,451c0,249.1-201.9,451-451,451s-451-201.9-451-451
					C16.3,217.9,218.3,16,467.4,16 M467.4,9c-61.8,0-121.8,12.1-178.3,36c-54.5,23.1-103.5,56.1-145.6,98.2s-75.1,91-98.2,145.6
					c-23.9,56.5-36,116.5-36,178.3c0,61.8,12.1,121.8,36,178.3c23.1,54.5,56.1,103.5,98.2,145.6c42.1,42.1,91,75.1,145.6,98.2
					c56.5,23.9,116.5,36,178.3,36c61.8,0,121.8-12.1,178.3-36c54.5-23.1,103.5-56.1,145.6-98.2c42.1-42.1,75.1-91,98.2-145.6
					c23.9-56.5,36-116.5,36-178.3c0-61.8-12.1-121.8-36-178.3c-23.1-54.5-56.1-103.5-98.2-145.6c-42.1-42.1-91-75.1-145.6-98.2
					C589.2,21.1,529.2,9,467.4,9L467.4,9z"/>
			</g>
		</g>
		<g>
			
				<linearGradient id="SVGID_00000139275112110166041410000010616321097573057169_" gradientUnits="userSpaceOnUse" x1="467.375" y1="893.1478" x2="467.375" y2="40.9147">
				<stop  offset="0" style="stop-color:#A66017"/>
				<stop  offset="1" style="stop-color:#F7A537"/>
			</linearGradient>
			<circle style="fill:url(#SVGID_00000139275112110166041410000010616321097573057169_);" cx="467.4" cy="467" r="426.1"/>
		</g>
		<g class="st3">
			<path class="st4" d="M467.4,870.2c231.5,0,419.9-184.6,426-414.6c0.1,3.8,0.2,7.6,0.2,11.5c0,235.3-190.8,426.1-426.1,426.1
				S41.3,702.4,41.3,467c0-3.8,0.1-7.7,0.2-11.5C47.5,685.6,235.9,870.2,467.4,870.2z"/>
		</g>
		<g>
			<defs>
				<circle id="SVGID_00000066492375772758394710000003613265791806067866_" cx="467.4" cy="467" r="426.1"/>
			</defs>
			<clipPath id="SVGID_00000087398258215352970870000006505623205833504411_">
				<use xlink:href="#SVGID_00000066492375772758394710000003613265791806067866_"  style="overflow:visible;"/>
			</clipPath>
			<g style="clip-path:url(#SVGID_00000087398258215352970870000006505623205833504411_);">
				<g class="st6">
					<path class="st7" d="M-120.4,37.1c48.5-11.5,104.7-3,154.1-1.2c58.9,2.2,117.8,7.6,176.4,13.6
						c118.8,12.2,237.1,26.3,356.3,34.1c119.9,7.9,240,12.1,359.9,19c55,3.1,106.5,6.1,161.6,7.1c54.8,1,103.7,4.4,158,23.8
						c0-20.9,0-41.8,0-62.8c-54.2,18.3-105,19.9-160.6,20.7c-60,0.9-117.8,6.5-177.6,11.2c-130.7,10.2-260.9,17-391.8,22.2
						c-127.5,5-254.6,4.1-382.1,3.6c-61.9-0.2-123.6,0.6-185.5,1.1c-61,0.4-122.4,4.4-181.3,21c-24.9,7-34.7,47.5-7.7,59.5
						c46.1,20.5,95.2,25.8,145.3,28.3c60.1,3,119.8,7.3,179.8,12.3c131.5,10.9,263.4,18,395.3,23.3c131.4,5.3,262.9,9.9,394.2,17.3
						c62,3.5,124,9.2,186.1,12.1c60.7,2.9,121.9,0.6,181.1,16.4c-2.6-19.8-5.2-39.7-7.8-59.5c-45.6,19.7-99.9,16.3-148.4,16.5
						c-60.7,0.3-121,7.6-181.4,13.2c-134.9,12.6-269.9,24.6-405.1,34.8c-129.7,9.8-260.1,12.9-390,18.9
						c-66.2,3.1-132.9,9.2-199.1,8.1c-61.9-1-124-2.6-184.1,14.8c-36.6,10.6-27.2,61.3,8.7,63.9c225.8,16.3,452.1-17.4,677.7-23.6
						c237.3-6.4,474.8-6.5,712.1-9.7c41.9-0.6,42-65.1,0-65.1c-240.5,0.2-481,14.7-720.6,34.4c-121.9,10-243.9,18.8-365.6,30.9
						c-96.2,9.6-202.4-2.9-292,38.8c-23,10.7-19.3,44.5,0,56.2c39.5,23.9,86.4,28,131.6,28.1c52.4,0.2,104.3-3.5,156.8-2.1
						c135.9,3.6,272,2,407.9-1.9c131.9-3.7,263.8-6.9,395.8-8.6c65.6-0.8,126.4,0.6,192-1.7c57.4-2,113.5-10.6,167.7,2.7
						c0-20.9,0-41.8,0-62.8c-113.9,20.1-229.8,27-347.9,32.4c-117,5.3-230.9,11.6-347.6,21.3c-227.3,18.9-455.8,17-679.7,65.9
						c-37.9,8.3-25.5,61.2,9.3,63.9c227.7,17.6,454.9-17.9,682.1-27.9c109-4.8,218.5-6.6,327.6-10.4c111.1-3.8,223.7-3.9,332.7,20.5
						c2.9-21.3,5.8-42.6,8.7-63.9c-258.6,30-519.2,29.5-778.2,54.2C274.4,614.6,144.5,625,14.8,636.3c-59.9,5.2-119.5,12-179.6,12.7
						c-56.7,0.7-114.7,1.5-169,19.9c-29.9,10.1-32.1,53.6,0,62.8c50.4,14.4,102.5,14.4,154.5,12.6c59.1-2,118.1-1.7,177.2-3.3
						c121.8-3.3,243.4-11.1,365.1-16.4c122.7-5.4,245.4-8.9,368.2-10.6c59.9-0.8,117,0,176.9-1.4c50.3-1.1,93.8-8.2,148,5.7
						c0-20.9,0-41.8,0-62.8c-43.4,10.6-84.2,12.1-128.2,14.3c-48.4,2.4-95.3,9.2-143.5,13.9c-94.4,9.1-188.1,17.6-282.3,28.6
						c-184.1,21.4-368.6,38.5-550.3,76.1c-36.6,7.6-27.3,64,8.8,63.9c190.2-0.5,378.7-29.2,568.2-42.8
						c94.2-6.8,188.6-9.4,283.1-10.1c44.2-0.3,88.5,0.3,132.7-0.5c41.4-0.8,82.9-4.4,122.7,9c-2.6-19.8-5.2-39.7-7.8-59.5
						c-30.9,19.2-69.3,19.6-104.6,22.4c-48.7,3.8-97.2,12.1-145.8,17.9c-101.7,12-203.6,21.3-305.5,30.8
						c-206.8,19.2-415.1,14.2-621.3,40.9c-40.5,5.2-43.1,63.7,0,65.1c99.8,3.3,200.1-13.5,299.3-22.7C287,893.1,392.6,885,498.5,880
						c105.8-5.1,211.7-5.2,317.6-3.8c107.4,1.4,215,7.1,321.1,25c41,6.9,58.6-55.8,17.3-62.8c-208.3-35.1-424.4-33.2-634.9-24.4
						c-105.8,4.4-215.7,12.5-321.1,21.9C92.2,845.4-18,864-126.5,860.5c0,21.7,0,43.4,0,65.1c211.5-27.1,425.8-22.3,636.1-41.8
						c105.5-9.8,213.1-19.8,318.3-32.3c46.9-5.6,94.7-12.9,141.8-16.6c41.8-3.3,85.6-7.4,122-30c24.7-15.3,19.2-50.5-7.5-59.5
						c-36.6-12.3-75.1-13-113.3-12.1c-46.1,1-92.1,0.9-138.2,1.1c-98,0.4-195.8,3.1-293.6,9.5c-193,12.6-384.7,43-578.5,43.5
						c2.9,21.3,5.8,42.6,8.7,63.9c182.7-37.8,368.7-54.5,553.8-76.2c94.3-11.1,189-19,283.5-28.2c44.7-4.4,89.3-10.1,134.1-12.4
						c46.4-2.3,92.9-5,138.2-16.2c31.8-7.8,30.3-54.1,0-62.8c-46.1-13.1-94-11.2-141.4-9.1c-57.8,2.6-115.9,1.4-173.7,2
						c-122.8,1.3-245.6,5-368.3,9.7c-121.8,4.7-243.4,12.5-365.2,16.7c-60,2.1-125.2,1.7-185.2,3.3c-56,1.5-117.8,6.3-172.1-9.3
						c0,20.9,0,41.8,0,62.8c54.2-17.6,111.8-17,166-17.6c60.6-0.7,123.6-8.3,183.9-13.5c126.2-11,253.9-21.2,380-33.1
						c259-24.5,520.2-24.2,778.8-54.2c33.9-3.9,47.7-55.3,9-63.9c-105-23.5-212.6-26.2-319.8-23.7c-112.3,2.7-224.6,6.8-336.8,10.5
						c-234.3,7.7-467.6,46.8-702.3,28.7c2.9,21.3,5.8,42.6,8.7,63.9c224.5-49.1,455.5-45.6,683.4-65.3
						c233.2-20.1,469.5-14.5,700.7-54.3c32.2-5.6,30.1-55.7,0-62.8c-53.8-12.7-108.5-9.6-163.2-6.4c-63.8,3.7-128,2.1-191.9,2.7
						c-131.9,1.4-263.9,3.8-395.8,8c-132.4,4.2-264.8,6.1-397.2,3.8c-53.6-0.9-110.3-2.6-163.8,0c-45.2,2.2-104.2,6.3-142.1-18.1
						c0,18.7,0,37.5,0,56.2c38-19.1,91.9-20.6,136.4-22c53.3-1.7,107.6-6,160.7-11.1c118.1-11.4,233.6-19.7,351.9-29.5
						c232.4-19.3,463-32.4,696.2-32.6c0-21.7,0-43.4,0-65.1c-238.7,3.2-470.9,3.4-708.3,9.7c-225.6,5.9-449.9,39.9-675.7,23.6
						c2.9,21.3,6.7,42.6,9.6,63.9c60.7-17.5,124.3-12.9,186.7-12.2c66.6,0.8,134.4-6.3,201-9.4c133.6-6.2,267.7-10.2,401.1-20.4
						c135-10.4,269.9-22.7,404.7-35.3c58.8-5.5,116.6-10,175.6-10.4c53.3-0.4,106-3.9,155.4-25.3c26.9-11.6,17.2-52.8-7.8-59.5
						c-55.3-14.8-112.7-16-169.6-17.7c-61-1.8-121.9-7.6-182.8-11.3c-131.3-8-262.8-13-394.3-17.9c-128.3-4.8-256.4-11.4-384.4-21.1
						c-60.2-4.5-120.4-12.2-180.7-14.2c-50.7-1.7-106.9,0.1-154.2-20.9c-2.6,19.8-5.2,39.7-7.8,59.5c56.7-16,115-18.3,173.6-18.7
						c62.3-0.5,124.6-1.2,186.9-0.9c131.2,0.5,262.1,0.8,393.3-4.5c127.4-5.1,254.7-12.2,381.8-22.1c59.4-4.6,118.2-9.7,177.8-10.5
						c57.8-0.8,116.7-3.9,171.7-22.9c31.6-10.9,30.3-51.4,0-62.8C1169,33.1,1052.8,45.2,947.6,38.8C824.1,31.3,700.4,27,576.9,19.3
						C454.2,11.6,332.3-2.8,210.1-15.6C148-22,85.7-27.2,23.3-29.5c-52.8-2-109.1-8.4-161.1,3.9C-178.6-16-161.3,46.8-120.4,37.1
						L-120.4,37.1z"/>
				</g>
				<g class="st6">
					<path class="st7" d="M53.2,855c-5.8,0-10.5-4.5-10.8-10.3C42,839,46.3,834,52,833.3c147.5-15.8,300.1-20.6,450.2-23.4
						c7-0.6,13.9-1.2,20.7-1.8l11.6-0.9c99.4-8,202.2-16.4,301.7-29.8c8-1.2,17.2-2.2,26.9-3.2c25.5-2.7,56.1-5.9,77.1-16.1
						c-27.6-10.3-74.1-7.5-109.7-5.4c-12.9,0.8-25.2,1.5-34.9,1.5c-168.2,0-314.7,3.7-447.7,11.2c-40.6,2.1-81.9,4.6-121.8,7
						C106.1,779.5-18,787-140.3,784.9c-8.5,0-18.9,0.3-29.9,0.6c-64.3,1.7-152.3,4.1-195.6-34.1c-2.3-2-3.6-4.9-3.7-8
						c0-3.1,1.2-6,3.5-8.1c31.7-29.3,101-29.8,151.6-30.1c13.5-0.1,25.1-0.2,34.4-0.8C-62,694.9,58.7,687.8,175.4,681
						c55.1-3.2,112.1-6.6,168.5-10.2c162.4-8.4,327.4-19.8,487-30.8c9.8-1.4,24-2.3,40.4-3.3c33-2.1,78.6-4.9,107.2-14.4
						c-41.8-6.6-85.6-6.9-128.4-7.2c-19.9-0.1-40.4-0.3-60.4-1c-129.9-6.7-263.3-6.3-392.3-5.8c-32.6,0.1-65.2,0.2-97.6,0.2
						c-36.7,0-74,0.3-110.1,0.6C63,609.9-68,610.9-197.1,600c-10.8-1.1-23.1-1.9-36.1-2.8c-53.1-3.4-119.2-7.7-157.6-38.9
						c-2.7-2.2-4.2-5.6-4-9c0.2-3.5,2.1-6.7,5-8.5c51-32.5,138.7-32.2,209.1-32c18.7,0.1,36.4,0.1,51.3-0.5
						c161.8-9,327.1-10.8,487-12.6c40.3-0.4,80.8-0.9,121.3-1.4c162.6-2.8,321.9-2.8,490.5-2.8c15.2,0,31,0.4,47.6,0.9
						c43.6,1.1,91.9,2.4,135.2-4.4c-58.7-20.6-132-26.8-197.8-32.4c-24.9-2.1-48.4-4.1-70.4-6.8c-204.3-29.2-408.4-43.5-652.1-56
						c-37.5-1.8-76.2-3.1-113.7-4.4c-140.4-4.7-285.7-9.6-423.3-40.7c-38-8.5-62.3-17.4-65.3-36c-2.9-18,16.7-32.3,34.1-42.7
						c60.6-35.8,144.8-42.7,212.5-48.3l10.8-0.9c110.6-10.2,224.1-8.5,333.8-6.9c40.7,0.6,82.8,1.2,123.9,1.2
						c136.3,0,274.9-2.5,408.9-5c67.1-1.2,136.4-2.5,204.6-3.4c28-0.9,58.2,0,87.4,0.9c44.2,1.4,89.4,2.8,131.5-1.9
						c-27.6-6.7-57.9-10.2-87.6-13.6c-22.4-2.6-43.6-5-63.2-8.8l-21.1-3.2c-143.7-21.7-279.5-42.2-417.9-55.5
						c-142.9-16.5-289.7-25-431.5-33.1l-8-0.5c-6.7-0.5-13.7-1.1-21.1-1.8C92,85.2,48.7,81.3,20.7,92.1c-5.6,2.1-11.9-0.6-14-6.2
						c-2.2-5.6,0.6-11.9,6.2-14c32.7-12.6,78.8-8.5,115.8-5.2c7.2,0.6,14.1,1.3,20.6,1.7l7.8,0.5C299.2,77,446.2,85.5,589.6,102
						c138.8,13.3,274.8,33.9,418.8,55.6l21.5,3.2c19.2,3.7,40,6.1,62.1,8.6c46.6,5.4,94.8,11,134.1,28.6c4.2,1.9,6.8,6.3,6.3,10.9
						c-0.4,4.6-3.7,8.5-8.3,9.5c-55.8,13.5-118.6,11.5-179.3,9.6c-30.2-0.9-58.8-1.8-86.3-0.9c-68.4,0.9-137.7,2.2-204.7,3.4
						c-134.1,2.5-272.8,5-409.3,5c-41.3,0-83.4-0.6-124.2-1.2c-109.1-1.6-222-3.3-331.5,6.8l-10.9,0.9
						c-65.4,5.4-146.9,12-203.1,45.3c-23.3,14-23.7,20.5-23.7,20.6c0.3,1.3,4.3,8.5,48.6,18.3C-164.6,357-20.4,361.9,119,366.6
						c37.5,1.3,76.3,2.6,114,4.4c244.4,12.5,449,26.9,653.9,56.1c21.4,2.6,44.7,4.6,69.4,6.7c79.9,6.8,170.4,14.5,236.5,47.6
						c4,2,6.4,6.2,6,10.7c-0.4,4.4-3.5,8.2-7.8,9.4c-53.8,15.7-117.9,14-174.5,12.5c-16.5-0.4-32.1-0.9-47.1-0.9
						c-168.5,0-327.7,0-490.2,2.8c-40.6,0.6-81,1-121.4,1.4c-159.6,1.8-324.7,3.6-486.2,12.6c-15.5,0.6-33.4,0.6-52.4,0.5
						c-60.6-0.2-134.4-0.4-182,20.5c34.7,18.4,87.4,21.8,130.9,24.6c13.2,0.9,25.7,1.7,36.7,2.8c127.9,10.8,258.3,9.9,384.5,8.9
						c36.1-0.3,73.5-0.6,110.3-0.6c32.4,0,65-0.1,97.6-0.2c129.3-0.4,263-0.9,393.3,5.8c19.6,0.8,39.9,0.9,59.6,1
						c53.5,0.4,108.8,0.7,160.9,13.3c3.7,0.9,6.7,3.7,7.8,7.4c1.1,3.7,0.2,7.7-2.3,10.5c-24,26.4-90.6,30.6-144.1,33.9
						c-15.9,1-29.7,1.8-39,3.2c-0.3,0-0.5,0.1-0.8,0.1c-160.1,11-325.3,22.4-487.7,30.8c-56.4,3.6-113.4,6.9-168.5,10.2
						c-116.6,6.8-237.1,13.9-355.1,23.4c-10.1,0.6-22,0.7-35.8,0.8c-41.1,0.3-95.5,0.7-125.6,16.5c41.3,23.9,117.2,21.8,169.1,20.4
						c11.2-0.3,21.7-0.6,30.7-0.6c121.7,2.1,245.4-5.4,365-12.6c40-2.4,81.3-4.9,121.9-7c133.4-7.6,280.2-11.2,448.9-11.2
						c9.1,0,21-0.7,33.6-1.5c48.7-2.9,109.3-6.5,138.6,18c2.4,2,3.8,5,3.9,8.1c0.1,3.1-1.3,6.2-3.6,8.3
						c-24.5,22.1-67.9,26.7-102.8,30.3c-9.4,1-18.4,1.9-26.1,3.1c-14.1,1.9-28.2,3.7-42.4,5.4c131.9-5,260.2-7.4,391-7.4
						c8.9,0,17.8,0.1,26.8,0.2c44.4,0.4,90.3,0.8,133.5-8.3c5.9-1.2,11.6,2.5,12.9,8.4c1.2,5.9-2.5,11.6-8.4,12.9
						c-45.6,9.6-92.6,9.2-138.2,8.8c-8.9-0.1-17.8-0.2-26.6-0.2c-139.4,0-275.8,2.7-417.1,8.4c-55.1,1.3-111.8,2.2-166.5,3
						c-33.5,0.5-67.2,1-101,1.6C368.3,843.5,211.1,855,53.2,855z"/>
				</g>
			</g>
		</g>
		<g>
			
				<image style="overflow:visible;opacity:0.75;" width="3121" height="3121" xlink:href="26875361.png"  transform="matrix(0.24 0 0 0.24 92.83 95.52)">
			</image>
			<g>
				
					<linearGradient id="SVGID_00000150101256303726618420000014127868337944217495_" gradientUnits="userSpaceOnUse" x1="467.375" y1="831.4413" x2="467.375" y2="102.6212">
					<stop  offset="0" style="stop-color:#6B3710"/>
					<stop  offset="1" style="stop-color:#8E501C"/>
				</linearGradient>
				<circle style="fill:url(#SVGID_00000150101256303726618420000014127868337944217495_);" cx="467.4" cy="467" r="364.4"/>
			</g>
		</g>
		<g>
			
				<linearGradient id="SVGID_00000127762653203358388590000002161926952456457656_" gradientUnits="userSpaceOnUse" x1="467.375" y1="805.1099" x2="467.375" y2="128.9532">
				<stop  offset="0" style="stop-color:#CE6F1B"/>
				<stop  offset="1" style="stop-color:#F4C206"/>
			</linearGradient>
			<circle style="fill:url(#SVGID_00000127762653203358388590000002161926952456457656_);" cx="467.4" cy="467" r="338.1"/>
		</g>
		<g>
			
				<linearGradient id="SVGID_00000160177519401605600120000014871782917217545602_" gradientUnits="userSpaceOnUse" x1="467.3747" y1="771.4861" x2="467.3747" y2="162.5769">
				<stop  offset="0" style="stop-color:#FFD800;stop-opacity:0"/>
				<stop  offset="0.1441" style="stop-color:#FFD809;stop-opacity:0.1441"/>
				<stop  offset="0.3788" style="stop-color:#FFD821;stop-opacity:0.3788"/>
				<stop  offset="0.6747" style="stop-color:#FFD849;stop-opacity:0.6747"/>
				<stop  offset="1" style="stop-color:#FFD87C"/>
			</linearGradient>
			<circle style="fill:url(#SVGID_00000160177519401605600120000014871782917217545602_);" cx="467.4" cy="467" r="304.5"/>
		</g>
		<g class="st11">
			<path class="st12" d="M467.4,141.5c184.6,0,334.7,148,338,331.8c0-2.1,0.1-4.2,0.1-6.3c0-186.7-151.4-338.1-338.1-338.1
				S129.3,280.3,129.3,467c0,2.1,0,4.2,0.1,6.3C132.7,289.5,282.8,141.5,467.4,141.5z"/>
		</g>
		<g>
			<path class="st4" d="M467.4,62.1c161.7,0,302.8,84,378.3,208.8C774.7,134.2,632,40.9,467.4,40.9C302.8,40.9,160,134.2,89,270.9
				C164.5,146.1,305.7,62.1,467.4,62.1z"/>
		</g>
		<path class="st13" d="M467.4,739.7c-113.3,0-212.8-59-269.6-147.9c-12.6-19.8-22.5-15.7-14.3,6.4
			c42.9,115.1,153.8,197.1,283.8,197.1c131.4,0,243.2-83.6,285.1-200.6c7.6-21.1-0.4-27.8-11.1-10.2
			C685.6,677.5,583.7,739.7,467.4,739.7z"/>
		
			<linearGradient id="SVGID_00000023243566593481737720000018199047303224525708_" gradientUnits="userSpaceOnUse" x1="489.1704" y1="204.6697" x2="695.7756" y2="323.9533">
			<stop  offset="0" style="stop-color:#FFFFFF"/>
			<stop  offset="1" style="stop-color:#FFFFFF;stop-opacity:0.4"/>
		</linearGradient>
		<path style="opacity:0.6;fill:url(#SVGID_00000023243566593481737720000018199047303224525708_);" d="M665.7,346.8
			c-9.4,0-18.7-4.6-24.3-13c-19.1-28.6-51.7-49.9-64.8-55c-15.1-5.8-22.6-22.8-16.7-37.8c5.8-15.1,22.8-22.5,37.8-16.7
			c26.6,10.3,68.1,40.8,92.3,77c9,13.4,5.4,31.6-8,40.6C677,345.2,671.3,346.8,665.7,346.8z M513,193.5c-16.6,0-30,13.4-30,30
			s13.4,30,30,30c16.6,0,30-13.4,30-30S529.6,193.5,513,193.5z"/>
		<g>
			<g>
				<path class="st15" d="M539,348.3c-9.1-1-17,5.7-17,14.4c0,7.5,5.9,13.6,13.7,14.4c59.8,6.5,106.5,55.2,106.5,114
					c0,58.9-46.6,107.5-106.5,114c-7.8,0.8-13.7,7-13.7,14.4c0,8.7,8,15.4,17,14.4c75-8.1,133.5-69.1,133.5-142.9
					C672.5,417.4,614,356.4,539,348.3z M537.7,571.1c39.5-7.1,69.4-40.2,69.4-80c0-39.7-30-72.9-69.4-80
					c-8.2-1.5-15.7,4.6-15.7,12.6c0,7.8,5.5,14.7,13.4,16.7c23.7,5.7,41.3,26.3,41.3,50.7c0,24.9-18.3,45.7-42.6,51
					c-7,1.5-12.1,7.3-12.1,14.2v2.2C522,566.5,529.5,572.6,537.7,571.1z M467.9,303.1c-4.5-0.4-9.8,0.6-16,4.2
					c0,0-103.4,84.5-107.9,88.6H287c-13.7,0-24.8,10.4-24.8,23.2v142.2c0,12.9,11.1,23.2,24.8,23.2h56.9
					c4.5,4.2,107.9,85.7,107.9,85.7c6.2,3.5,11.5,4.6,16,4.1c9.2-0.8,15.6-8,17.6-15.6c0.1-0.7,0.1-339.3,0-340.1
					C483.5,311.1,477,303.9,467.9,303.1z"/>
			</g>
			<g>
				<path class="st16" d="M539,348.3c-9.1-1-17,5.7-17,14.4c0,7.5,5.9,13.6,13.7,14.4c59.8,6.5,106.5,55.2,106.5,114
					c0,58.9-46.6,107.5-106.5,114c-7.8,0.8-13.7,7-13.7,14.4c0,8.7,8,15.4,17,14.4c75-8.1,133.5-69.1,133.5-142.9
					C672.5,417.4,614,356.4,539,348.3z M537.7,571.1c39.5-7.1,69.4-40.2,69.4-80c0-39.7-30-72.9-69.4-80
					c-8.2-1.5-15.7,4.6-15.7,12.6c0,7.8,5.5,14.7,13.4,16.7c23.7,5.7,41.3,26.3,41.3,50.7c0,24.9-18.3,45.7-42.6,51
					c-7,1.5-12.1,7.3-12.1,14.2v2.2C522,566.5,529.5,572.6,537.7,571.1z M467.9,303.1c-4.5-0.4-9.8,0.6-16,4.2
					c0,0-103.4,84.5-107.9,88.6H287c-13.7,0-24.8,10.4-24.8,23.2v142.2c0,12.9,11.1,23.2,24.8,23.2h56.9
					c4.5,4.2,107.9,85.7,107.9,85.7c6.2,3.5,11.5,4.6,16,4.1c9.2-0.8,15.6-8,17.6-15.6c0.1-0.7,0.1-339.3,0-340.1
					C483.5,311.1,477,303.9,467.9,303.1z"/>
			</g>
		</g>
	</g>
</g>
<g id="Layer_2">
	<g>
		<g>
			
				<linearGradient id="SVGID_00000036251486651152977400000000816491920845207741_" gradientUnits="userSpaceOnUse" x1="467.375" y1="921.5781" x2="467.375" y2="12.4849">
				<stop  offset="0" style="stop-color:#462B10"/>
				<stop  offset="1" style="stop-color:#6B3710"/>
			</linearGradient>
			<path style="fill:url(#SVGID_00000036251486651152977400000000816491920845207741_);" d="M467.4,921.6
				c-61.4,0-120.9-12-176.9-35.7C236.3,863,187.7,830.2,146,788.4c-41.7-41.7-74.5-90.4-97.4-144.5c-23.7-56-35.7-115.6-35.7-176.9
				s12-120.9,35.7-176.9C71.4,236,104.2,187.4,146,145.6c41.7-41.7,90.4-74.5,144.5-97.4c56-23.7,115.6-35.7,176.9-35.7
				c61.4,0,120.9,12,176.9,35.7c54.1,22.9,102.7,55.7,144.5,97.4c41.7,41.7,74.5,90.4,97.4,144.5c23.7,56,35.7,115.6,35.7,176.9
				s-12,120.9-35.7,176.9c-22.9,54.1-55.7,102.7-97.4,144.5c-41.7,41.7-90.4,74.5-144.5,97.4C588.3,909.6,528.7,921.6,467.4,921.6z"
				/>
			<g>
				<path class="st1" d="M467.4,16c249.1,0,451,201.9,451,451c0,249.1-201.9,451-451,451c-249.1,0-451-201.9-451-451
					C16.3,217.9,218.3,16,467.4,16 M467.4,9c-61.8,0-121.8,12.1-178.3,36c-54.5,23.1-103.5,56.1-145.6,98.2
					c-42.1,42.1-75.1,91-98.2,145.6c-23.9,56.5-36,116.5-36,178.3s12.1,121.8,36,178.3c23.1,54.5,56.1,103.5,98.2,145.6
					c42.1,42.1,91,75.1,145.6,98.2c56.5,23.9,116.5,36,178.3,36s121.8-12.1,178.3-36c54.5-23.1,103.5-56.1,145.6-98.2
					c42.1-42.1,75.1-91,98.2-145.6c23.9-56.5,36-116.5,36-178.3s-12.1-121.8-36-178.3c-23.1-54.5-56.1-103.5-98.2-145.6
					c-42.1-42.1-91-75.1-145.6-98.2C589.2,21.1,529.2,9,467.4,9L467.4,9z"/>
			</g>
		</g>
		<g>
			
				<linearGradient id="SVGID_00000049221112647961534540000003242353662018608771_" gradientUnits="userSpaceOnUse" x1="467.3747" y1="893.1476" x2="467.3747" y2="40.9149">
				<stop  offset="0" style="stop-color:#A66017"/>
				<stop  offset="1" style="stop-color:#F7A537"/>
			</linearGradient>
			<circle style="fill:url(#SVGID_00000049221112647961534540000003242353662018608771_);" cx="467.4" cy="467" r="426.1"/>
		</g>
		<g class="st3">
			<path class="st4" d="M467.4,870.2c231.5,0,419.9-184.6,426-414.6c0.1,3.8,0.2,7.6,0.2,11.5c0,235.3-190.8,426.1-426.1,426.1
				C232,893.1,41.3,702.4,41.3,467c0-3.8,0.1-7.7,0.2-11.5C47.5,685.6,235.9,870.2,467.4,870.2z"/>
		</g>
		<g>
			<defs>
				
					<ellipse id="SVGID_00000023260561039312331480000014568462008784632199_" transform="matrix(0.7071 -0.7071 0.7071 0.7071 -193.3502 467.2741)" cx="467.4" cy="467" rx="426.1" ry="426.1"/>
			</defs>
			<clipPath id="SVGID_00000021822079813687657380000014329553684950798256_">
				<use xlink:href="#SVGID_00000023260561039312331480000014568462008784632199_"  style="overflow:visible;"/>
			</clipPath>
			<g style="clip-path:url(#SVGID_00000021822079813687657380000014329553684950798256_);">
				<g class="st6">
					<path class="st7" d="M-120.4,37.1c48.5-11.5,104.7-3,154.1-1.2c58.9,2.2,117.8,7.6,176.4,13.6
						c118.8,12.2,237.1,26.3,356.3,34.1c119.9,7.9,240,12.1,359.9,19c55,3.1,106.9,6.1,162,7.1c54.8,1,104.2,4.4,158.4,23.8
						c0-20.9,0-41.8,0-62.8c-54.2,18.3-105.5,19.9-161,20.7c-60,0.9-118,6.5-177.8,11.2c-130.7,10.2-261,17-391.9,22.2
						c-127.5,5-254.6,4.1-382.2,3.6c-61.9-0.2-123.7,0.6-185.6,1.1c-61,0.4-122.4,4.4-181.3,21c-24.9,7-34.7,47.5-7.7,59.5
						c46.1,20.5,95.2,25.8,145.3,28.3c60.1,3,119.7,7.3,179.8,12.3c131.5,10.9,263.4,18,395.3,23.3c131.4,5.3,262.9,9.9,394.2,17.3
						c62,3.5,124,9.2,186.1,12.1c60.7,2.9,121.9,0.6,181.1,16.4c-2.6-19.8-5.2-39.7-7.8-59.5c-45.6,19.7-99.9,16.3-148.4,16.5
						c-60.7,0.3-121,7.6-181.4,13.2c-134.9,12.6-269.9,24.6-405.1,34.8c-129.7,9.8-260.1,12.9-390,18.9
						c-66.2,3.1-132.9,9.2-199.1,8.1c-61.9-1-124-2.6-184.1,14.8c-36.6,10.6-27.2,61.3,8.7,63.9c225.8,16.3,452.1-17.4,677.7-23.6
						c237.3-6.4,474.8-6.5,712.1-9.7c41.9-0.6,42-65.1,0-65.1c-240.5,0.2-481,14.7-720.6,34.4c-121.9,10-243.9,18.8-365.6,30.9
						c-96.2,9.6-202.4-2.9-292,38.8c-23,10.7-19.3,44.5,0,56.2c39.5,23.9,86.4,28,131.6,28.1c52.4,0.2,104.3-3.5,156.8-2.1
						c136,3.6,272,2,407.9-1.9c131.9-3.7,263.8-6.9,395.8-8.6c65.6-0.8,126.8,0.6,192.4-1.7c57.4-2,113.9-10.6,168.2,2.7
						c0-20.9,0-41.8,0-62.8c-113.9,20.1-230.3,27-348.4,32.4c-117,5.3-231.2,11.6-347.9,21.3c-227.3,18.9-455.9,17-679.8,65.9
						c-37.9,8.3-25.5,61.2,9.2,63.9c227.7,17.6,454.9-17.9,682.1-27.9c109-4.8,218.5-6.6,327.6-10.4c111.1-3.8,223.7-3.9,332.7,20.5
						c2.9-21.3,5.8-42.6,8.7-63.9c-258.6,30-519.2,29.5-778.2,54.2C274.4,614.6,144.5,625,14.8,636.3c-59.9,5.2-119.5,12-179.6,12.7
						c-56.7,0.7-114.7,1.5-169,19.9c-29.9,10.1-32.1,53.6,0,62.8c50.4,14.4,102.5,14.4,154.5,12.6c59.1-2,118.1-1.7,177.2-3.3
						c121.8-3.3,243.4-11.1,365.1-16.4c122.7-5.4,245.4-8.9,368.2-10.6c59.9-0.8,117.5,0,177.3-1.4c50.3-1.1,94.2-8.2,148.4,5.7
						c0-20.9,0-41.8,0-62.8c-43.4,10.6-84.6,12.1-128.7,14.3c-48.4,2.4-95.5,9.2-143.7,13.9c-94.4,9.1-188.3,17.6-282.5,28.6
						c-184.1,21.4-368.7,38.5-550.4,76.1c-36.6,7.6-27.3,64,8.8,63.9c190.2-0.5,378.7-29.2,568.2-42.8
						c94.2-6.8,188.6-9.4,283.1-10.1c44.2-0.3,88.5,0.3,132.7-0.5c41.4-0.8,82.9-4.4,122.7,9c-2.6-19.8-5.2-39.7-7.8-59.5
						c-30.9,19.2-69.3,19.6-104.6,22.4c-48.7,3.8-97.2,12.1-145.8,17.9c-101.7,12-203.6,21.3-305.5,30.8
						c-206.8,19.2-415.1,14.2-621.3,40.9c-40.5,5.2-43.1,63.7,0,65.1c99.8,3.3,200.1-13.5,299.3-22.7C287,893.1,392.6,885,498.5,880
						c105.8-5.1,211.7-5.2,317.6-3.8c107.4,1.4,215,7.1,321.1,25c41,6.9,58.6-55.8,17.3-62.8c-208.3-35.1-424.4-33.2-634.9-24.4
						c-105.8,4.4-215.2,12.5-320.7,21.9c-106.2,9.5-216,28.2-324.5,24.6c0,21.7,0,43.4,0,65.1c211.5-27.1,425.4-22.3,635.6-41.8
						c105.5-9.8,212.9-19.8,318.1-32.3c46.9-5.6,94.6-12.9,141.7-16.6c41.8-3.3,85.5-7.4,121.9-30c24.7-15.3,19.1-50.5-7.5-59.5
						c-36.6-12.3-75.1-13-113.3-12.1c-46.1,1-92.1,0.9-138.2,1.1c-98,0.4-195.8,3.1-293.6,9.5c-193,12.6-384.7,43-578.5,43.5
						c2.9,21.3,5.8,42.6,8.7,63.9c182.7-37.8,368.7-54.5,553.8-76.2c94.3-11.1,189-19,283.5-28.2c44.7-4.4,89.3-10.1,134.1-12.4
						c46.4-2.3,92.9-5,138.2-16.2c31.8-7.8,30.3-54.1,0-62.8c-46.1-13.1-94-11.2-141.4-9.1c-57.8,2.6-115.9,1.4-173.7,2
						c-122.8,1.3-245.6,5-368.3,9.7c-121.8,4.7-243.4,12.5-365.2,16.7c-60,2.1-124.8,1.7-184.7,3.3c-56,1.5-117.4,6.3-171.6-9.3
						c0,20.9,0,41.8,0,62.8c54.2-17.6,111.4-17,165.6-17.6c60.6-0.7,123.3-8.3,183.6-13.5c126.2-11,253.8-21.2,379.9-33.1
						c259-24.5,520.2-24.2,778.8-54.2c33.9-3.9,47.7-55.3,9-63.9c-105-23.5-212.6-26.2-319.8-23.7c-112.3,2.7-224.6,6.8-336.8,10.5
						c-234.3,7.7-467.6,46.8-702.3,28.7c2.9,21.3,5.8,42.6,8.7,63.9c224.5-49.1,455.5-45.6,683.4-65.3
						c233.2-20.1,469.5-14.5,700.7-54.3c32.2-5.6,30.1-55.7,0-62.8c-53.8-12.7-108.5-9.6-163.2-6.4c-63.8,3.7-128,2.1-191.9,2.7
						c-131.9,1.4-263.9,3.8-395.8,8c-132.4,4.2-264.8,6.1-397.2,3.8c-53.6-0.9-109.9-2.6-163.4,0c-45.2,2.2-103.7,6.3-141.7-18.1
						c0,18.7,0,37.5,0,56.2c38-19.1,91.5-20.6,136-22c53.3-1.7,107.4-6,160.5-11.1c118.1-11.4,234-19.7,352.2-29.5
						c232.4-19.3,463.3-32.4,696.5-32.6c0-21.7,0-43.4,0-65.1c-238.7,3.2-471.4,3.4-708.7,9.7c-225.6,5.9-450.1,39.9-675.9,23.6
						c2.9,21.3,6.6,42.6,9.5,63.9c60.7-17.5,124.3-12.9,186.7-12.2c66.6,0.8,134.4-6.3,201-9.4c133.6-6.2,267.7-10.2,401.1-20.4
						c135-10.4,269.9-22.7,404.7-35.3c58.8-5.5,116.6-10,175.6-10.4c53.3-0.4,106-3.9,155.4-25.3c26.9-11.6,17.2-52.8-7.8-59.5
						c-55.3-14.8-112.7-16-169.6-17.7c-61-1.8-121.9-7.6-182.8-11.3c-131.3-8-262.8-13-394.3-17.9c-128.3-4.8-256.4-11.4-384.4-21.1
						c-60.2-4.5-120.4-12.2-180.7-14.2c-50.7-1.7-106.9,0.1-154.2-20.9c-2.6,19.8-5.2,39.7-7.8,59.5c56.7-16,115-18.3,173.6-18.7
						c62.3-0.5,124.6-1.2,186.9-0.9c131.2,0.5,262.1,0.8,393.3-4.5c127.4-5.1,254.7-12.2,381.8-22.1c59.4-4.6,118.2-9.7,177.8-10.5
						c57.8-0.8,116.7-3.9,171.7-22.9c31.6-10.9,30.3-51.4,0-62.8C1169,33.1,1052.8,45.2,947.6,38.8C824.1,31.3,700.4,27,576.9,19.3
						C454.2,11.6,332.3-2.8,210.1-15.6C148-22,85.7-27.2,23.3-29.5c-52.8-2-109.1-8.4-161.1,3.9C-178.6-16-161.3,46.8-120.4,37.1
						L-120.4,37.1z"/>
				</g>
				<g class="st6">
					<path class="st7" d="M53.2,855c-5.8,0-10.5-4.5-10.8-10.3C42,839,46.3,834,52,833.3c147.5-15.8,300.1-20.6,450.2-23.4
						c7-0.6,13.9-1.2,20.7-1.8l11.6-0.9c99.4-8,202.2-16.4,301.7-29.8c8-1.2,17.2-2.2,26.9-3.2c25.5-2.7,56.1-5.9,77.1-16.1
						c-27.6-10.3-74.1-7.5-109.7-5.4c-12.9,0.8-25.2,1.5-34.9,1.5c-168.2,0-314.7,3.7-447.7,11.2c-40.6,2.1-81.9,4.6-121.8,7
						C106.1,779.5-18,787-140.3,784.9c-8.5,0-18.9,0.3-29.9,0.6c-64.3,1.7-152.3,4.1-195.6-34.1c-2.3-2-3.6-4.9-3.7-8
						c0-3.1,1.2-6,3.5-8.1c31.7-29.3,101-29.8,151.6-30.1c13.5-0.1,25.1-0.2,34.4-0.8C-62,694.9,58.7,687.8,175.4,681
						c55.1-3.2,112.1-6.6,168.5-10.2c162.4-8.4,327.4-19.8,487-30.8c9.8-1.4,24-2.3,40.4-3.3c33-2.1,78.6-4.9,107.2-14.4
						c-41.8-6.6-85.6-6.9-128.4-7.2c-19.9-0.1-40.4-0.3-60.4-1c-129.9-6.7-263.3-6.3-392.3-5.8c-32.6,0.1-65.2,0.2-97.6,0.2
						c-36.7,0-74,0.3-110.1,0.6C63,609.9-68,610.9-197.1,600c-10.8-1.1-23.1-1.9-36.1-2.8c-53.1-3.4-119.2-7.7-157.6-38.9
						c-2.7-2.2-4.2-5.6-4-9c0.2-3.5,2.1-6.7,5-8.5c51-32.5,138.7-32.2,209.1-32c18.7,0.1,36.4,0.1,51.3-0.5
						c161.8-9,327.1-10.8,487-12.6c40.3-0.4,80.8-0.9,121.3-1.4c162.6-2.8,321.9-2.8,490.5-2.8c15.2,0,31,0.4,47.6,0.9
						c43.6,1.1,91.9,2.4,135.2-4.4c-58.8-20.6-132-26.8-197.8-32.4c-24.9-2.1-48.4-4.1-70.4-6.8c-204.3-29.2-408.4-43.5-652.1-56
						c-37.5-1.8-76.2-3.1-113.7-4.4c-140.4-4.7-285.7-9.6-423.3-40.7c-38-8.5-62.3-17.4-65.3-36c-2.9-18,16.7-32.3,34.1-42.7
						c60.6-35.8,144.8-42.7,212.5-48.3l10.8-0.9c110.6-10.2,224.1-8.5,333.8-6.9c40.7,0.6,82.8,1.2,123.9,1.2
						c136.3,0,274.9-2.5,408.9-5c67.1-1.2,136.4-2.5,204.6-3.4c28-0.9,58.2,0,87.4,0.9c44.2,1.4,89.4,2.8,131.5-1.9
						c-27.6-6.7-57.9-10.2-87.6-13.6c-22.4-2.6-43.6-5-63.2-8.8l-21.1-3.2c-143.7-21.7-279.5-42.2-417.9-55.5
						c-142.9-16.5-289.7-25-431.5-33.1l-8-0.5c-6.7-0.5-13.7-1.1-21.1-1.8C92,85.2,48.7,81.3,20.6,92.1c-5.6,2.1-11.9-0.6-14-6.2
						c-2.2-5.6,0.6-11.9,6.2-14c32.7-12.6,78.8-8.5,115.8-5.2c7.2,0.6,14.1,1.3,20.6,1.7l7.8,0.5C299.2,77,446.2,85.5,589.6,102
						c138.8,13.3,274.8,33.9,418.8,55.6l21.5,3.2c19.2,3.7,40,6.1,62.1,8.6c46.6,5.4,94.8,11,134.1,28.6c4.2,1.9,6.8,6.3,6.3,10.9
						c-0.4,4.6-3.7,8.5-8.3,9.5c-55.8,13.5-118.6,11.5-179.3,9.6c-30.2-0.9-58.8-1.8-86.3-0.9c-68.4,0.9-137.7,2.2-204.7,3.4
						c-134.1,2.5-272.8,5-409.3,5c-41.3,0-83.4-0.6-124.2-1.2c-109.1-1.6-222-3.3-331.5,6.8l-10.9,0.9
						c-65.4,5.4-146.9,12-203.1,45.3c-23.3,14-23.7,20.5-23.7,20.6c0.3,1.3,4.3,8.5,48.6,18.3C-164.6,357-20.4,361.9,119,366.6
						c37.5,1.3,76.3,2.6,114,4.4c244.4,12.5,449,26.9,653.9,56.1c21.4,2.6,44.7,4.6,69.4,6.7c79.9,6.8,170.4,14.5,236.5,47.6
						c4,2,6.4,6.2,6,10.7c-0.4,4.4-3.5,8.2-7.8,9.4c-53.8,15.7-117.9,14-174.5,12.5c-16.5-0.4-32.1-0.9-47.1-0.9
						c-168.5,0-327.7,0-490.2,2.8c-40.6,0.6-81,1-121.4,1.4c-159.6,1.8-324.7,3.6-486.2,12.6c-15.5,0.6-33.4,0.6-52.4,0.5
						c-60.6-0.2-134.4-0.4-182,20.5c34.7,18.4,87.4,21.8,130.9,24.6c13.2,0.8,25.7,1.7,36.7,2.8c127.9,10.8,258.3,9.9,384.5,8.9
						c36.1-0.3,73.5-0.6,110.3-0.6c32.4,0,65-0.1,97.6-0.2c129.3-0.4,263-0.9,393.3,5.8c19.6,0.8,39.9,0.9,59.6,1
						c53.5,0.4,108.8,0.7,160.9,13.3c3.7,0.9,6.7,3.7,7.8,7.4c1.1,3.7,0.2,7.7-2.3,10.5c-24,26.4-90.6,30.6-144.1,33.9
						c-15.9,1-29.7,1.8-39,3.2c-0.3,0-0.5,0.1-0.8,0.1c-160.1,11-325.3,22.4-487.7,30.8c-56.4,3.6-113.4,6.9-168.5,10.2
						c-116.6,6.8-237.1,13.9-355.1,23.4c-10.1,0.6-22,0.7-35.8,0.8c-41.1,0.3-95.5,0.7-125.6,16.5c41.3,23.9,117.2,21.8,169.1,20.4
						c11.2-0.3,21.7-0.6,30.7-0.6c121.7,2.1,245.4-5.4,365-12.6c40-2.4,81.3-4.9,121.9-7c133.4-7.6,280.2-11.2,448.9-11.2
						c9.1,0,21-0.7,33.6-1.5c48.7-2.9,109.3-6.5,138.6,18c2.4,2,3.8,5,3.9,8.1c0.1,3.1-1.2,6.2-3.6,8.3
						c-24.5,22.1-67.9,26.7-102.8,30.3c-9.4,1-18.4,1.9-26.1,3.1c-14.1,1.9-28.2,3.7-42.4,5.4c131.9-5,260.2-7.4,391-7.4
						c8.9,0,17.8,0.1,26.8,0.2c44.4,0.4,90.3,0.8,133.5-8.3c5.9-1.2,11.6,2.5,12.9,8.4c1.2,5.9-2.5,11.6-8.4,12.9
						c-45.6,9.6-92.6,9.2-138.2,8.8c-8.9-0.1-17.8-0.2-26.6-0.2c-139.4,0-275.8,2.7-417.1,8.4c-55.1,1.3-111.8,2.2-166.5,3
						c-33.5,0.5-67.2,1-101,1.6C368.3,843.5,211.1,855,53.2,855z"/>
				</g>
			</g>
		</g>
		<g>
			
				<image style="overflow:visible;opacity:0.75;" width="3121" height="3121" xlink:href="26875363.png"  transform="matrix(0.24 0 0 0.24 92.83 95.52)">
			</image>
			<g>
				
					<linearGradient id="SVGID_00000129168744164457190530000015337442164961785259_" gradientUnits="userSpaceOnUse" x1="467.375" y1="831.4415" x2="467.375" y2="102.621">
					<stop  offset="0" style="stop-color:#6B3710"/>
					<stop  offset="1" style="stop-color:#8E501C"/>
				</linearGradient>
				<circle style="fill:url(#SVGID_00000129168744164457190530000015337442164961785259_);" cx="467.4" cy="467" r="364.4"/>
			</g>
		</g>
		<g>
			
				<linearGradient id="SVGID_00000022533415511555804680000014954105186983586442_" gradientUnits="userSpaceOnUse" x1="467.3749" y1="805.1096" x2="467.3749" y2="128.9529">
				<stop  offset="0" style="stop-color:#CE6F1B"/>
				<stop  offset="1" style="stop-color:#F4C206"/>
			</linearGradient>
			<circle style="fill:url(#SVGID_00000022533415511555804680000014954105186983586442_);" cx="467.4" cy="467" r="338.1"/>
		</g>
		<g>
			
				<linearGradient id="SVGID_00000172438706386924871120000015783117434368809121_" gradientUnits="userSpaceOnUse" x1="467.3749" y1="771.4859" x2="467.3749" y2="162.5766">
				<stop  offset="0" style="stop-color:#FFD800;stop-opacity:0"/>
				<stop  offset="0.1441" style="stop-color:#FFD809;stop-opacity:0.1441"/>
				<stop  offset="0.3788" style="stop-color:#FFD821;stop-opacity:0.3788"/>
				<stop  offset="0.6747" style="stop-color:#FFD849;stop-opacity:0.6747"/>
				<stop  offset="1" style="stop-color:#FFD87C"/>
			</linearGradient>
			<circle style="fill:url(#SVGID_00000172438706386924871120000015783117434368809121_);" cx="467.4" cy="467" r="304.5"/>
		</g>
		<g class="st11">
			<path class="st12" d="M467.4,141.5c184.6,0,334.7,148,338,331.8c0-2.1,0.1-4.2,0.1-6.3c0-186.7-151.4-338.1-338.1-338.1
				C280.7,129,129.3,280.3,129.3,467c0,2.1,0,4.2,0.1,6.3C132.7,289.5,282.8,141.5,467.4,141.5z"/>
		</g>
		<g>
			<path class="st4" d="M467.4,62.1c161.7,0,302.8,84,378.3,208.8C774.7,134.2,632,40.9,467.4,40.9C302.8,40.9,160,134.2,89,270.9
				C164.5,146.1,305.7,62.1,467.4,62.1z"/>
		</g>
		<path class="st13" d="M467.4,739.7c-113.3,0-212.8-59-269.6-147.9c-12.6-19.8-22.5-15.7-14.3,6.4
			c42.9,115.1,153.8,197.1,283.8,197.1c131.4,0,243.2-83.6,285.1-200.6c7.6-21.1-0.4-27.8-11.1-10.2
			C685.6,677.5,583.7,739.7,467.4,739.7z"/>
		
			<linearGradient id="SVGID_00000022547077734269469260000017004461951197672619_" gradientUnits="userSpaceOnUse" x1="489.1705" y1="204.6695" x2="695.7755" y2="323.953">
			<stop  offset="0" style="stop-color:#FFFFFF"/>
			<stop  offset="1" style="stop-color:#FFFFFF;stop-opacity:0.4"/>
		</linearGradient>
		<path style="opacity:0.6;fill:url(#SVGID_00000022547077734269469260000017004461951197672619_);" d="M665.7,346.8
			c-9.4,0-18.7-4.6-24.3-13c-19.1-28.6-51.7-49.9-64.8-55c-15.1-5.8-22.6-22.8-16.7-37.8c5.8-15.1,22.8-22.5,37.8-16.7
			c26.6,10.3,68.1,40.8,92.3,77c9,13.4,5.4,31.6-8,40.6C677,345.2,671.3,346.8,665.7,346.8z M513,193.5c-16.6,0-30,13.4-30,30
			s13.4,30,30,30c16.6,0,30-13.4,30-30S529.6,193.5,513,193.5z"/>
		<g>
			<g>
				<g>
					<path class="st15" d="M485.4,318.7c-1.9-7.6-8.4-14.8-17.6-15.6c-4.5-0.4-9.8,0.6-16,4.2c0,0-103.4,84.5-107.9,88.6H287
						c-13.7,0-24.8,10.4-24.8,23.2v142.2c0,12.9,11.1,23.2,24.8,23.2h56.9c4.5,4.2,107.9,85.7,107.9,85.7c6.2,3.5,11.5,4.6,16,4.1
						c9.2-0.8,15.6-8,17.6-15.6C485.6,658,485.6,319.4,485.4,318.7z"/>
				</g>
				<g>
					<path class="st16" d="M485.4,318.7c-1.9-7.6-8.4-14.8-17.6-15.6c-4.5-0.4-9.8,0.6-16,4.2c0,0-103.4,84.5-107.9,88.6H287
						c-13.7,0-24.8,10.4-24.8,23.2v142.2c0,12.9,11.1,23.2,24.8,23.2h56.9c4.5,4.2,107.9,85.7,107.9,85.7c6.2,3.5,11.5,4.6,16,4.1
						c9.2-0.8,15.6-8,17.6-15.6C485.6,658,485.6,319.4,485.4,318.7z"/>
				</g>
			</g>
			<path class="st24" d="M630.7,488.7l36.1-36.1c7.7-7.7,7.7-20.1,0-27.7c-7.7-7.7-20.1-7.7-27.7,0L602.9,461l-36.1-36.1
				c-7.7-7.7-20.1-7.7-27.7,0c-7.7,7.7-7.7,20.1,0,27.7l36.1,36.1l-36.1,36.1c-7.7,7.7-7.7,20.1,0,27.7c7.7,7.7,20.1,7.7,27.7,0
				l36.1-36.1l36.1,36.1c7.7,7.7,20.1,7.7,27.7,0c7.7-7.7,7.7-20.1,0-27.7L630.7,488.7z"/>
		</g>
	</g>
</g>
</svg>
