<?xml version="1.0" encoding="utf-8"?>
<!-- Generator: Adobe Illustrator 26.3.0, SVG Export Plug-In . SVG Version: 6.00 Build 0)  -->
<svg version="1.1" id="Layer_1" xmlns="http://www.w3.org/2000/svg" xmlns:xlink="http://www.w3.org/1999/xlink" x="0px" y="0px"
	 viewBox="0 0 934.8 934.1" style="enable-background:new 0 0 934.8 934.1;" xml:space="preserve">
<style type="text/css">
	.st0{fill:url(#SVGID_1_);}
	.st1{fill:#FFFFFF;}
	.st2{fill:url(#SVGID_00000029752373186507769390000007624725473740389775_);}
	.st3{opacity:0.6;}
	.st4{fill:#B28760;}
	.st5{clip-path:url(#SVGID_00000018234905642600663820000006638821773409444762_);}
	.st6{opacity:0.2;}
	.st7{fill:#6B3710;}
	.st8{fill:url(#SVGID_00000106858602188566594120000001997729794375254705_);}
	.st9{fill:url(#SVGID_00000157282676664474220940000006971634688682683561_);}
	.st10{fill:url(#SVGID_00000078040346002572333320000000153120271274759062_);}
	.st11{opacity:0.5;}
	.st12{fill:#E0BF77;}
	.st13{opacity:0.5;fill:#C4580E;}
	.st14{opacity:0.6;fill:url(#SVGID_00000133507144009083224160000003548060894074305207_);}
	.st15{fill:#F2D9C7;}
	.st16{fill:#9B450B;}
</style>
<g>
	<g>
		<linearGradient id="SVGID_1_" gradientUnits="userSpaceOnUse" x1="467.208" y1="928.4961" x2="467.208" y2="5.7656">
			<stop  offset="0" style="stop-color:#462B10"/>
			<stop  offset="1" style="stop-color:#6B3710"/>
		</linearGradient>
		<path class="st0" d="M467.2,928.5c-62.3,0-122.7-12.2-179.6-36.3C232.7,869,183.3,835.7,141,793.4C98.6,751,65.3,701.7,42.1,646.7
			C18,589.8,5.8,529.4,5.8,467.1S18,344.4,42.1,287.5c23.2-54.9,56.5-104.3,98.9-146.6c42.4-42.4,91.7-75.6,146.6-98.9
			C344.5,18,404.9,5.8,467.2,5.8C529.5,5.8,589.9,18,646.8,42c54.9,23.2,104.3,56.5,146.6,98.9s75.6,91.7,98.9,146.6
			c24.1,56.9,36.3,117.3,36.3,179.6s-12.2,122.7-36.3,179.6c-23.2,54.9-56.5,104.3-98.9,146.6s-91.7,75.6-146.6,98.9
			C589.9,916.3,529.5,928.5,467.2,928.5z"/>
		<g>
			<path class="st1" d="M467.2,11.3c251.8,0,455.9,204.1,455.9,455.9C923.1,718.9,719,923,467.2,923
				C215.4,923,11.3,718.9,11.3,467.1C11.3,215.4,215.4,11.3,467.2,11.3 M467.2,0.3c-63,0-124.2,12.3-181.7,36.7
				C229.9,60.5,180,94.1,137.1,137c-42.9,42.9-76.5,92.8-100,148.4C12.7,343,0.3,404.1,0.3,467.1S12.7,591.3,37,648.9
				c23.5,55.6,57.2,105.5,100,148.4c42.9,42.9,92.8,76.5,148.4,100C343,921.7,404.2,934,467.2,934s124.2-12.3,181.7-36.7
				c55.6-23.5,105.5-57.2,148.4-100c42.9-42.9,76.5-92.8,100-148.4c24.3-57.6,36.7-118.7,36.7-181.7S921.7,343,897.4,285.4
				c-23.5-55.6-57.2-105.5-100-148.4c-42.9-42.9-92.8-76.5-148.4-100C591.4,12.6,530.2,0.3,467.2,0.3L467.2,0.3z"/>
		</g>
	</g>
	<g>
		
			<linearGradient id="SVGID_00000063629339581261945260000006194711363683256752_" gradientUnits="userSpaceOnUse" x1="467.2078" y1="897.7999" x2="467.2078" y2="36.4624">
			<stop  offset="0" style="stop-color:#A66017"/>
			<stop  offset="1" style="stop-color:#F7A537"/>
		</linearGradient>
		<circle style="fill:url(#SVGID_00000063629339581261945260000006194711363683256752_);" cx="467.2" cy="467.1" r="430.7"/>
	</g>
	<g class="st3">
		<path class="st4" d="M467.2,874.6c234,0,424.4-186.6,430.5-419.1c0.1,3.9,0.2,7.7,0.2,11.6c0,237.9-192.8,430.7-430.7,430.7
			C229.4,897.8,36.5,705,36.5,467.1c0-3.9,0.1-7.8,0.2-11.6C42.9,688,233.2,874.6,467.2,874.6z"/>
	</g>
	<g>
		<defs>
			
				<ellipse id="SVGID_00000123413590096642462500000006239659497755842203_" transform="matrix(0.7071 -0.7071 0.7071 0.7071 -193.4695 467.1854)" cx="467.2" cy="467.1" rx="430.7" ry="430.7"/>
		</defs>
		<clipPath id="SVGID_00000149341968848645185840000004324735251095344796_">
			<use xlink:href="#SVGID_00000123413590096642462500000006239659497755842203_"  style="overflow:visible;"/>
		</clipPath>
		<g style="clip-path:url(#SVGID_00000149341968848645185840000004324735251095344796_);">
			<g class="st6">
				<path class="st7" d="M-126.9,32.6c49-11.6,105.8-3.1,155.8-1.2c59.6,2.2,119,7.7,178.3,13.7c120,12.3,239.7,26.6,360.1,34.5
					c121.2,8,242.5,12.3,363.8,19.2c55.6,3.2,107.6,6.1,163.3,7.2c55.4,1,108.7,4.4,159.7,24c0-21.1,0-42.3,0-63.4
					c-51,18.5-106.2,20.1-162.3,21c-60.6,0.9-119,6.6-179.5,11.3c-132.1,10.3-263.6,17.2-396,22.4c-128.9,5-257.3,4.1-386.2,3.6
					c-62.6-0.2-125,0.6-187.5,1.1c-61.6,0.5-123.7,4.4-183.2,21.2c-25.2,7.1-35,48-7.8,60.1c46.6,20.7,96.3,26.1,146.8,28.6
					c60.8,3,121,7.4,181.7,12.4c132.9,11,266.2,18.2,399.5,23.5c132.8,5.3,265.7,10,398.5,17.4c62.7,3.5,125.3,9.3,188,12.3
					c61.3,2.9,123.2,0.6,183,16.6c-2.6-20-5.2-40.1-7.9-60.1c-46.1,20-101,16.5-150,16.7c-61.4,0.3-122.3,7.7-183.4,13.4
					c-136.4,12.7-272.8,24.9-409.4,35.2c-131.1,9.9-262.8,13-394.1,19.1c-66.9,3.1-134.3,9.3-201.2,8.2c-62.5-1-125.3-2.6-186,14.9
					c-37,10.7-27.5,62,8.7,64.6c228.2,16.5,456.9-17.6,684.9-23.8c239.9-6.5,479.8-6.5,719.7-9.8c42.4-0.6,42.4-65.8,0-65.8
					c-243.1,0.2-486.1,14.8-728.3,34.8c-123.2,10.2-246.5,19-369.5,31.2c-97.2,9.7-204.5-2.9-295.1,39.2c-23.2,10.8-19.5,45,0,56.8
					c39.9,24.2,87.3,28.3,133,28.4c53,0.2,105.4-3.6,158.5-2.1c137.4,3.7,274.9,2,412.3-1.9c133.3-3.7,266.6-7,400-8.7
					c66.3-0.9,128.7,0.6,195-1.8c58.1-2.1,115.9-10.7,170.5,2.8c0-21.1,0-42.3,0-63.4c-116.6,20.3-233.3,27.3-352.6,32.7
					c-118.2,5.4-233.9,11.7-351.9,21.5C272.4,519.5,41.2,517.5-185.1,567c-38.3,8.4-25.9,61.9,9.3,64.6
					c230.1,17.8,459.7-18.1,689.3-28.2c110.2-4.8,220.8-6.7,331.1-10.5c112.3-3.9,226.1-3.9,336.3,20.7c2.9-21.5,5.9-43.1,8.8-64.6
					c-261.4,30.3-524.8,29.8-786.5,54.7c-131.1,12.5-262.3,23-393.4,34.4c-60.5,5.3-120.8,12.1-181.6,12.9
					c-57.3,0.7-116,1.5-170.8,20.1c-30.2,10.2-32.5,54.2,0,63.4c51,14.6,103.6,14.6,156.2,12.8c59.7-2,119.4-1.7,179.1-3.3
					c123.1-3.4,246-11.2,369-16.6c124-5.4,248.1-9,372.1-10.7c60.5-0.9,121.3,0,181.8-1.4c50.8-1.1,101.6-8.3,152.6,5.8
					c0-21.1,0-42.3,0-63.4c-47.4,10.7-88.1,12.3-132.7,14.5c-48.9,2.4-97.9,9.3-146.6,14c-95.4,9.2-190.9,17.8-286.1,28.9
					c-186,21.6-373,38.9-556.6,76.9c-37,7.7-27.7,64.7,8.7,64.6c192.3-0.6,382.7-29.5,574.1-43.3c95.2-6.8,190.6-9.5,286-10.2
					c44.7-0.3,89.4,0.3,134.1-0.5c41.8-0.8,83.7-4.4,124,9.1c-2.6-20-5.2-40.1-7.9-60.1c-31.3,19.4-70.1,19.8-105.7,22.6
					c-49.3,3.9-98.3,12.3-147.3,18c-102.7,12.1-205.8,21.6-308.8,31.1c-209,19.4-419.5,14.4-627.9,41.3c-40.9,5.3-43.6,64.3,0,65.8
					c100.9,3.4,202.3-13.6,302.5-22.9c106.6-9.9,213.5-18,320.4-23.2c106.9-5.1,214-5.2,321-3.8c108.6,1.4,217.3,7.2,324.5,25.2
					c41.5,7,59.3-56.4,17.5-63.4c-210.5-35.4-429-33.6-641.7-24.7c-106.9,4.5-214.7,12.6-321.3,22.2
					c-107.3,9.6-223.1,28.5-325.1,24.9c0,21.9,0,43.9,0,65.8c211.3-27.4,427.1-22.5,639.6-42.3c106.6-9.9,213.7-20,320.1-32.7
					c47.4-5.7,94.9-13.1,142.5-16.8c42.2-3.3,86.1-7.5,122.9-30.3c25-15.5,19.2-51.1-7.8-60.1c-37-12.4-76-13.1-114.6-12.2
					c-46.6,1.1-93.1,0.9-139.7,1.1c-99,0.4-197.9,3.2-296.7,9.6c-195.1,12.7-388.8,43.4-584.7,44c2.9,21.5,5.8,43.1,8.7,64.6
					c184.7-38.2,372.6-55,559.7-77c95.3-11.2,191-19.2,286.6-28.5c45.1-4.4,90.2-10.2,135.5-12.5c46.9-2.3,93.9-5.1,139.7-16.3
					c32.2-7.9,30.7-54.7,0-63.4c-46.6-13.2-95-11.4-143-9.2c-58.5,2.6-117.1,1.4-175.6,2c-124.1,1.3-248.2,5-372.3,9.8
					c-123.1,4.7-246,12.6-369.1,16.9c-60.6,2.1-125.7,1.7-186.3,3.3c-56.6,1.5-114.8,6.4-173.1-9.4c0,21.1,0,42.3,0,63.4
					c58.3-17.8,112.2-17.2,167-17.8c61.2-0.7,124.5-8.4,185.4-13.7c127.6-11.1,256.4-21.4,383.9-33.5
					c261.7-24.7,525.7-24.5,787-54.7c34.2-4,48.1-55.9,9-64.6c-106.2-23.7-214.9-26.5-323.2-23.9c-113.5,2.7-227,6.8-340.4,10.6
					c-236.8,7.8-472.6,47.3-709.8,29c2.9,21.5,5.8,43.1,8.8,64.6c226.9-49.6,460.4-46.1,690.7-66c235.7-20.3,474.5-14.6,708.2-54.9
					c32.6-5.6,30.4-56.3,0-63.4c-54.4-12.8-109.7-9.7-164.9-6.5c-64.5,3.7-129.3,2.1-193.9,2.8c-133.3,1.4-266.7,3.9-400,8.1
					c-133.8,4.2-267.6,6.1-401.5,3.8c-54.2-0.9-109-2.7-163.1,0c-45.7,2.3-108.4,6.4-141.1-18.3c0,18.9,0,37.9,0,56.8
					c32.8-19.3,90.4-20.8,135.4-22.2c53.9-1.7,107.5-6.1,161.1-11.2c119.4-11.5,235.7-19.9,355.3-29.8
					c234.9-19.5,470.1-32.8,703.2-33c0-21.9,0-43.9,0-65.8c-233.1,3.3-476.2,3.5-716,9.8c-228,6-454.8,40.3-683.1,23.8
					c2.9,21.5,6.7,43.1,9.7,64.6c61.3-17.7,125.6-13,188.7-12.3c67.4,0.8,135.9-6.4,203.2-9.5c135.1-6.3,270.6-10.3,405.4-20.6
					c136.4-10.5,272.8-22.9,409-35.7c59.4-5.6,117.8-10.1,177.5-10.5c53.9-0.4,107.1-3.9,157-25.5c27.2-11.8,17.4-53.4-7.9-60.1
					c-55.9-14.9-113.9-16.2-171.4-17.9c-61.7-1.8-123.2-7.7-184.8-11.4c-132.7-8.1-265.7-13.1-398.5-18.1
					C382,202.4,252.5,195.7,123.1,186c-60.8-4.6-121.6-12.3-182.6-14.3c-51.2-1.7-108,0.1-155.9-21.1c-2.6,20-5.2,40.1-7.9,60.1
					c57.3-16.1,116.2-18.5,175.4-18.9c63-0.5,125.9-1.2,188.9-1c132.6,0.5,264.9,0.8,397.5-4.5c128.7-5.1,257.4-12.3,385.9-22.4
					c60.1-4.7,119.4-9.8,179.7-10.6c58.4-0.9,117.9-4,173.6-23.2c31.9-11,30.6-52,0-63.4c-101.4-38-218.9-25.8-325.2-32.3
					c-124.8-7.6-249.8-12-374.6-19.8c-124-7.8-247.2-22.3-370.7-35.2C144.4-27.2,81.5-32.4,18.4-34.8c-53.4-2-110.3-8.5-162.8,3.9
					C-185.7-21-168.1,42.4-126.9,32.6L-126.9,32.6z"/>
			</g>
			<g class="st6">
				<path class="st7" d="M48.6,859.2c-5.8,0-10.6-4.6-10.9-10.4c-0.3-5.8,4-10.9,9.8-11.5c149.1-16,303.3-20.9,455-23.7
					c7-0.6,14-1.2,20.9-1.9l11.8-1c100.5-8.1,204.3-16.5,304.9-30.1c8.1-1.3,17.4-2.2,27.2-3.3c25.8-2.7,56.7-6,77.9-16.3
					c-27.9-10.4-74.9-7.6-110.9-5.4c-13.1,0.8-25.4,1.5-35.3,1.5c-170,0-318,3.7-452.5,11.3c-41.1,2.1-82.8,4.6-123.1,7.1
					C102.1,783-23.4,790.5-147,788.4c-8.6,0-19.1,0.3-30.2,0.6c-65,1.8-153.9,4.2-197.7-34.5c-2.3-2.1-3.7-5-3.7-8.1
					c0-3.1,1.2-6.1,3.5-8.2c32-29.6,102.1-30.1,153.2-30.4c13.6-0.1,25.4-0.2,34.8-0.8c119.3-9.6,241.3-16.8,359.2-23.7
					c55.7-3.3,113.3-6.7,170.3-10.3c164.1-8.5,330.9-20,492.2-31.1c9.9-1.4,24.2-2.3,40.8-3.3c33.4-2.1,79.5-4.9,108.3-14.6
					c-42.2-6.7-86.6-7-129.7-7.3c-20.1-0.1-40.8-0.3-61.1-1.1c-131.3-6.8-266.1-6.3-396.5-5.9c-33,0.1-65.9,0.2-98.7,0.2
					c-37.1,0-74.8,0.3-111.3,0.6c-128,1-260.4,2-390.9-9.1c-10.9-1.1-23.3-1.9-36.5-2.8c-53.7-3.4-120.4-7.7-159.3-39.3
					c-2.7-2.2-4.2-5.6-4-9.1c0.2-3.5,2.1-6.7,5.1-8.6c51.5-32.8,140.1-32.5,211.3-32.4c18.9,0.1,36.8,0.1,51.8-0.5
					c163.6-9.1,330.6-10.9,492.2-12.7c40.8-0.4,81.6-0.9,122.6-1.5c164.3-2.8,325.3-2.8,495.7-2.8c15.4,0,31.3,0.4,48.1,0.9
					c44.1,1.2,92.9,2.5,136.6-4.5c-59.4-20.8-133.4-27.1-199.9-32.8c-25.2-2.1-48.9-4.2-71.2-6.9c-206.4-29.5-412.8-43.9-659.1-56.6
					c-37.9-1.8-77.1-3.1-114.9-4.4c-141.9-4.8-288.7-9.7-427.9-41.2c-38.5-8.5-62.9-17.6-66-36.4c-3-18.2,16.8-32.6,34.4-43.2
					c61.3-36.2,146.4-43.2,214.7-48.8l10.9-0.9c111.8-10.4,226.5-8.6,337.3-7c41.1,0.6,83.7,1.3,125.2,1.3
					c137.7,0,277.8-2.6,413.3-5c67.8-1.2,137.8-2.5,206.8-3.5c28.3-0.9,58.8,0,88.4,0.9c44.6,1.4,90.4,2.8,132.9-1.9
					c-27.9-6.7-58.5-10.3-88.5-13.8c-22.7-2.6-44.1-5.1-63.9-8.9l-21.3-3.2c-145.3-21.9-282.5-42.7-422.3-56.1
					C444,103.4,295.7,94.8,152.3,86.6l-8-0.5c-6.8-0.5-13.9-1.1-21.3-1.8c-35.1-3.1-78.9-7-107.2,3.9c-5.6,2.2-12-0.6-14.2-6.3
					c-2.2-5.7,0.6-12,6.3-14.2c33.1-12.7,79.6-8.6,117-5.3c7.3,0.6,14.3,1.3,20.8,1.7l7.9,0.5C297.3,73,445.9,81.5,590.7,98.2
					c140.2,13.5,277.7,34.3,423.3,56.2l21.7,3.3c19.4,3.7,40.5,6.1,62.7,8.7c47.1,5.5,95.8,11.1,135.5,29c4.3,1.9,6.9,6.3,6.4,11
					c-0.4,4.7-3.8,8.5-8.3,9.6c-56.4,13.6-119.8,11.6-181.2,9.7c-30.5-1-59.4-1.9-87.2-0.9c-69.1,0.9-139.2,2.2-206.9,3.5
					c-135.6,2.5-275.7,5-413.7,5c-41.7,0-84.3-0.6-125.5-1.3c-110.3-1.7-224.4-3.4-335.1,6.9l-11,0.9
					c-66.1,5.4-148.5,12.2-205.3,45.8c-23.6,14.1-24,20.8-24,20.8c0.3,1.3,4.3,8.5,49.1,18.5c137.2,31,282.9,35.9,423.8,40.6
					c37.9,1.3,77.1,2.6,115.2,4.4c247,12.7,453.8,27.2,660.9,56.7c21.6,2.6,45.2,4.6,70.2,6.8c80.7,6.9,172.2,14.7,239,48.1
					c4,2,6.4,6.3,6,10.8c-0.4,4.5-3.5,8.3-7.8,9.5c-54.4,15.9-119.2,14.1-176.4,12.6c-16.7-0.4-32.5-0.9-47.6-0.9
					c-170.3,0-331.2,0-495.4,2.8c-41,0.6-81.9,1-122.7,1.5c-161.3,1.8-328.2,3.6-491.4,12.7c-15.7,0.6-33.8,0.6-52.9,0.5
					c-61.2-0.2-135.9-0.4-183.9,20.7c35.1,18.6,88.4,22.1,132.3,24.9c13.4,0.9,26,1.7,37.1,2.8c129.2,11,261.1,10,388.6,9
					c36.5-0.3,74.3-0.6,111.5-0.6c32.8,0,65.7-0.1,98.6-0.2c130.6-0.4,265.8-0.9,397.5,5.9c19.8,0.8,40.3,0.9,60.2,1
					c54,0.4,109.9,0.8,162.6,13.4c3.8,0.9,6.8,3.7,7.9,7.4c1.1,3.7,0.2,7.7-2.4,10.6c-24.3,26.7-91.6,30.9-145.6,34.3
					c-16.1,1-30,1.9-39.4,3.2c-0.3,0-0.5,0.1-0.8,0.1C674.8,675,507.9,686.5,343.7,695c-57,3.6-114.6,7-170.3,10.3
					c-117.8,6.9-239.6,14.1-358.9,23.7c-10.2,0.6-22.3,0.7-36.2,0.8c-41.5,0.3-96.5,0.7-126.9,16.7c41.7,24.2,118.5,22.1,170.9,20.7
					c11.3-0.3,21.9-0.6,31-0.6c123,2.1,248-5.4,368.9-12.7c40.4-2.4,82.2-5,123.3-7.1c134.8-7.6,283.2-11.3,453.7-11.3
					c9.2,0,21.2-0.7,34-1.5c49.2-2.9,110.4-6.6,140.1,18.2c2.4,2,3.9,5,3.9,8.2c0.1,3.2-1.3,6.2-3.6,8.4
					c-24.8,22.3-68.7,26.9-103.9,30.7c-9.5,1-18.5,2-26.3,3.2c-14.2,1.9-28.5,3.7-42.8,5.5c133.3-5,262.9-7.4,395.1-7.4
					c8.9,0,18,0.1,27,0.2c44.8,0.4,91.2,0.8,134.9-8.4c6-1.2,11.7,2.5,13,8.5c1.2,5.9-2.5,11.7-8.5,13c-46.1,9.7-93.6,9.3-139.7,8.9
					c-9-0.1-18-0.2-26.9-0.2c-140.8,0-278.7,2.8-421.5,8.5c-55.7,1.3-113,2.2-168.3,3.1c-33.8,0.5-67.9,1-102.1,1.7
					C367,847.6,208.2,859.2,48.6,859.2z"/>
			</g>
		</g>
	</g>
	<g>
		
			<image style="overflow:visible;opacity:0.75;" width="3154" height="3154" xlink:href="1FE6BCC6.png"  transform="matrix(0.24 0 0 0.24 88.75 91.68)">
		</image>
		<g>
			
				<linearGradient id="SVGID_00000000195921361612605520000008255947710097947044_" gradientUnits="userSpaceOnUse" x1="467.2079" y1="835.4341" x2="467.2079" y2="98.8282">
				<stop  offset="0" style="stop-color:#6B3710"/>
				<stop  offset="1" style="stop-color:#8E501C"/>
			</linearGradient>
			<circle style="fill:url(#SVGID_00000000195921361612605520000008255947710097947044_);" cx="467.2" cy="467.1" r="368.3"/>
		</g>
	</g>
	<g>
		
			<linearGradient id="SVGID_00000086659179061752166180000015759583240298469507_" gradientUnits="userSpaceOnUse" x1="467.2078" y1="808.8213" x2="467.2078" y2="125.4409">
			<stop  offset="0" style="stop-color:#CE6F1B"/>
			<stop  offset="1" style="stop-color:#F4C206"/>
		</linearGradient>
		<circle style="fill:url(#SVGID_00000086659179061752166180000015759583240298469507_);" cx="467.2" cy="467.1" r="341.7"/>
	</g>
	<g>
		
			<linearGradient id="SVGID_00000122698691906187836110000014736133333026247555_" gradientUnits="userSpaceOnUse" x1="467.2078" y1="774.8383" x2="467.2078" y2="159.424">
			<stop  offset="0" style="stop-color:#FFD800;stop-opacity:0"/>
			<stop  offset="0.1441" style="stop-color:#FFD809;stop-opacity:0.1441"/>
			<stop  offset="0.3788" style="stop-color:#FFD821;stop-opacity:0.3788"/>
			<stop  offset="0.6747" style="stop-color:#FFD849;stop-opacity:0.6747"/>
			<stop  offset="1" style="stop-color:#FFD87C"/>
		</linearGradient>
		<circle style="fill:url(#SVGID_00000122698691906187836110000014736133333026247555_);" cx="467.2" cy="467.1" r="307.7"/>
	</g>
	<g class="st11">
		<path class="st12" d="M467.2,138.1c186.6,0,338.2,149.6,341.6,335.4c0-2.1,0.1-4.2,0.1-6.3c0-188.7-153-341.7-341.7-341.7
			c-188.7,0-341.7,153-341.7,341.7c0,2.1,0,4.2,0.1,6.3C129,287.7,280.6,138.1,467.2,138.1z"/>
	</g>
	<g>
		<path class="st4" d="M467.2,57.8c163.4,0,306.1,84.9,382.4,211c-71.7-138.1-216-232.4-382.4-232.4
			c-166.3,0-310.7,94.3-382.4,232.4C161.1,142.7,303.8,57.8,467.2,57.8z"/>
	</g>
	<path class="st13" d="M467.2,742.7c-114.5,0-215.1-59.6-272.4-149.5c-12.7-20-22.8-15.9-14.4,6.5
		C223.7,716,335.8,798.9,467.2,798.9c132.8,0,245.8-84.5,288.2-202.7c7.7-21.3-0.5-28.1-11.2-10.3
		C687.7,679.8,584.8,742.7,467.2,742.7z"/>
	
		<linearGradient id="SVGID_00000013904374590859219730000005650325810113416105_" gradientUnits="userSpaceOnUse" x1="489.2364" y1="201.9667" x2="698.0483" y2="322.5244">
		<stop  offset="0" style="stop-color:#FFFFFF"/>
		<stop  offset="1" style="stop-color:#FFFFFF;stop-opacity:0.4"/>
	</linearGradient>
	<path style="opacity:0.6;fill:url(#SVGID_00000013904374590859219730000005650325810113416105_);" d="M667.7,345.6
		c-9.5,0-18.9-4.6-24.6-13.1c-19.3-28.9-52.2-50.5-65.5-55.6c-15.2-5.9-22.8-23-16.9-38.2c5.9-15.2,23-22.8,38.2-16.9
		c26.9,10.4,68.8,41.2,93.3,77.9c9.1,13.6,5.5,31.9-8.1,41C679.1,344,673.3,345.6,667.7,345.6z M513.3,190.7
		c-16.8,0-30.4,13.6-30.4,30.4c0,16.8,13.6,30.4,30.4,30.4c16.8,0,30.4-13.6,30.4-30.4C543.6,204.3,530.1,190.7,513.3,190.7z"/>
	<g>
		<path class="st15" d="M352.4,677.9c-6.3,0-11.3-5.1-11.3-11.3V294.9c0-6.3,5.1-11.3,11.3-11.3c2,0,3.9,0.5,5.6,1.5l321.8,185.8
			c3.5,2,5.7,5.7,5.7,9.8c0,4.1-2.1,7.8-5.7,9.8L358.1,676.4C356.4,677.4,354.4,677.9,352.4,677.9L352.4,677.9z"/>
		<g>
			<path class="st16" d="M352.4,286.1c1.5,0,3,0.4,4.4,1.2l321.8,185.8c5.9,3.4,5.9,11.9,0,15.3L356.8,674.2
				c-1.4,0.8-2.9,1.2-4.4,1.2c-4.6,0-8.8-3.7-8.8-8.8V294.9C343.6,289.8,347.8,286.1,352.4,286.1 M352.4,281.1
				c-7.6,0-13.8,6.2-13.8,13.8v371.6c0,7.6,6.2,13.8,13.8,13.8c2.4,0,4.8-0.6,6.9-1.9l321.8-185.8c4.3-2.5,6.9-7,6.9-12
				c0-5-2.6-9.5-6.9-12L359.3,283C357.2,281.7,354.8,281.1,352.4,281.1L352.4,281.1z"/>
		</g>
	</g>
</g>
</svg>
